<?xml version="1.0" encoding="utf-8"?>
<!-- Generator: Adobe Illustrator 16.0.0, SVG Export Plug-In . SVG Version: 6.00 Build 0)  -->
<!DOCTYPE svg PUBLIC "-//W3C//DTD SVG 1.1//EN" "http://www.w3.org/Graphics/SVG/1.1/DTD/svg11.dtd">
<svg version="1.1" id="Layer_1" xmlns="http://www.w3.org/2000/svg" xmlns:xlink="http://www.w3.org/1999/xlink" x="0px" y="0px"
	 width="195px" height="306px" viewBox="0 0 195 306" enable-background="new 0 0 195 306" xml:space="preserve">
<rect width="195" height="306"/>
<title>tenderguard_1</title>
<desc>Created with Sketch.</desc>
<polygon id="Shape" fill="#FFFFFF" points="186.6,35.9 9.5,35.9 27.8,0.8 169.8,0.8 "/>
<rect id="Rectangle-path" x="9.5" y="35.9" fill="#FFFFFF" width="177.1" height="152.7"/>
<path id="Shape_1_" fill="none" stroke="#42BFFE" stroke-width="4" d="M9.5,52h177.1"/>
<path id="Shape_2_" fill="none" stroke="#405FF4" stroke-width="4" stroke-linecap="round" stroke-linejoin="round" d="M62,22h72.3"
	/>
<path id="Shape_3_" fill="none" stroke="#42BFFE" stroke-width="2.4" d="M101.105,73h-6.21C91.672,73,89,70.213,89,66.853V53h18
	v13.853C107,70.213,104.328,73,101.105,73z"/>
<g id="Group-19" transform="translate(62.000000, 66.000000)">
	<g id="Group_1_">
		<path id="Shape_4_" fill="#405FF4" d="M42.063,79.614H30.126c-11.179,0-20.274-9.253-20.274-20.626V29.783
			c0-2.024,1.611-3.663,3.6-3.663h45.379c1.989,0,3.6,1.638,3.6,3.663v29.205C62.432,70.361,53.337,79.614,42.063,79.614z"/>
		<path id="Shape_5_" fill="none" stroke="#405FF4" stroke-width="6" d="M19.137,26.795v-9.06c0-9.542,7.579-17.157,16.863-17.157
			c9.379,0,16.863,7.711,16.863,17.157v9.06"/>
	</g>
	<path id="Combined-Shape" fill="#FFFFFF" d="M31.897,53.753C30.142,52.473,29,50.394,29,48.045C29,44.154,32.134,41,36,41
		s7,3.154,7,7.045c0,2.349-1.142,4.428-2.896,5.708v5.72c0,1.917-1.555,3.471-3.471,3.471h-1.266c-1.917,0-3.47-1.554-3.47-3.471
		V53.753z"/>
</g>
<path id="Shape_6_" fill="none" stroke="#FFFFFF" stroke-width="3" d="M98,56v15.5"/>
<text transform="matrix(1 0 0 1 9 295)" fill="#FFFFFF" font-family="'KozGoPr6N-Regular-90ms-RKSJ-H'" font-size="80">保標</text>
</svg>
