<?xml version="1.0" encoding="UTF-8"?>
<svg width="1024px" height="1026px" viewBox="0 0 1024 1026" version="1.1" xmlns="http://www.w3.org/2000/svg" xmlns:xlink="http://www.w3.org/1999/xlink">
    <!-- Generator: Sketch 48.2 (47327) - http://www.bohemiancoding.com/sketch -->
    <title>telos-black</title>
    <desc>Created with Sketch.</desc>
    <defs></defs>
    <g id="Page-1" stroke="none" stroke-width="1" fill="none" fill-rule="evenodd">
        <g id="Group-42" transform="translate(-1163.000000, -2466.000000)" fill-rule="nonzero">
            <g id="telos-black" transform="translate(1163.000000, 2466.000000)">
                <rect id="Rectangle-path" fill="#000000" x="0" y="0" width="1024" height="1024"></rect>
                <path d="M62.1,512.56 C62.1,343.893333 62.0666667,175.206667 62,6.5 C62,2.21 62.79,1.05 67.32,1.05 C364.44,1.18333333 661.593333,1.16666667 958.78,1 C963.78,1 964.36,2.26 964.36,6.81 C964.233333,344.383333 964.233333,681.956667 964.36,1019.53 C964.36,1024.16 963.6,1025.29 958.73,1025.29 C661.57,1025.13667 364.413333,1025.13667 67.26,1025.29 C62.64,1025.29 61.99,1024 61.99,1019.79 C62.11,850.716667 62.1466667,681.64 62.1,512.56 Z" id="Shape" fill="#000000"></path>
                <path d="M283.52,140.36 C313.056761,115.732871 346.46005,96.155827 382.38,82.42 C578.19,7.42 797.38,123.6 842.9,328.3 C868.72,444.5 841.09,548.64 761.74,638.11 C741.74,660.61 717.53,678.11 691.8,693.52 C664.456557,709.54085 634.445175,720.493192 603.21,725.85 C546.95,735.69 492.45,729.66 439.71,707.76 C400.397826,691.490519 365.264852,666.557662 336.93,634.82 C296.043333,589.406667 271.803333,536.286667 264.21,475.46 C258.88,433.12 263.33,391.75 276.06,351.22 C279.06,341.63 281.67,331.69 287.86,323.36 C288.97,322.9 289.63,323.46 290.15,324.36 C290.91,326.36 290.15,328.18 289.55,330.03 C279.42,358.95 274.95,388.82 277.07,419.3 C280.9,474.37 301.27,522.47 339.41,562.89 C382.756104,609.35639 443.648164,635.447284 507.19,634.78 C543.43,634.6 577.68,626.52 609.8,610.07 C654.8,587.01 688.39,552.36 711.73,507.57 C717.73,496.13 722.62,484.27 727.57,472.39 C732.18,464.32 734.11,455.28 736.44,446.47 C742.183223,424.572626 745.437143,402.097099 746.14,379.47 C748.98885,293.418603 712.740088,210.70084 647.54,154.47 C603.27,116.21 552.06,93.37 494.09,86.47 C448.65,81.04 404.09,85.93 361.02,101.95 C336.604256,110.891085 313.539837,123.160252 292.48,138.41 C290.15,140.11 287.9,142.14 284.77,142.35 C283.79,142 283,141.63 283.52,140.36 Z" id="Shape" fill="#BECAEF"></path>
                <path d="M284.81,141.9 C321.81,114.24 362.72,95.49 408.33,87.46 C463.85,77.68 518.09,82.58 569.96,104.76 C653.83,140.62 709.28,202.76 736.43,289.85 C743.71,313.19 747.05,337.26 747.82,361.77 C749.035781,398.06428 743.414748,434.263457 731.25,468.48 C730.55,470.48 730.35,472.73 728.25,473.95 C726.64,470.95 728.16,468.21 728.91,465.47 C734.095871,447.060723 737.116288,428.109284 737.91,409 C740.176667,349.3 722,296.793333 683.38,251.48 C644.61,205.99 595.25,179.16 535.75,172.62 C471.38,165.55 413.56,182.41 363.16,223.47 C338.44,243.61 319.3,268.28 304.56,296.47 C302.02,301.31 299.18,305.98 296.65,310.82 C295.49,312.45 293.65,313.7 293.55,315.96 C293.419557,316.455118 293.22809,316.932106 292.98,317.38 C291.45,319.38 290.83,322.12 288.41,323.48 C270.155796,364.008846 261.74688,408.280724 263.87,452.68 C266.72,514.88 287.32,570.82 326.19,619.68 C361.476667,664 405.983333,695.333333 459.71,713.68 C482.050632,721.248118 505.251193,725.988343 528.77,727.79 C584.856667,732.223333 637.743333,721.31 687.43,695.05 C688.79,694.34 690.09,693.35 691.79,693.57 C673.9,705.94 654.32,715.09 634.12,722.84 C440.12,797.21 225.52,687.61 174.42,486.18 C145.59,372.46 170.22,269 244.31,177.77 C251.14,169.37 259.54,162.25 267.21,154.53 C270.85,153.39 272.51,149.53 275.98,148.15 C278.61,145.61 281,142.69 284.81,141.9 Z" id="Shape" fill="#405FF4"></path>
                <path d="M638.91,965.7 C614.46,965.7 597.51,951.7 592.15,926.03 C588.44,908.29 590.21,891.03 600.67,875.59 C611.13,860.15 626.33,854.84 644.32,856.48 C660.94,857.99 673.72,866.16 680.72,881.18 C690.72,902.55 690.64,924.31 678.27,944.9 C669.51,959.45 655.76,965.82 638.91,965.7 Z" id="Shape" fill="#FEFEFE"></path>
                <path d="M775.66,965.41 C761.78,965.41 749.38,962.08 741.82,948.96 C739.962506,945.971561 738.838549,942.585984 738.54,939.08 C738.44,936.83 735.46,932.9 740.34,932 C744.23,931.29 747.46,931.31 748.42,937 C750.2,947.67 757.17,954 767.79,956.25 C775.58,957.9 783.27,957.88 790.79,954.94 C799.12,951.67 803.32,945.36 803.7,936.54 C804.08,927.72 799.36,922.23 791.78,918.89 C782.28,914.7 771.88,913.56 762.06,910.41 C753.83,907.77 746.53,903.99 742.73,895.69 C736.79,882.69 741.66,867.69 754.49,861.12 C767.12,854.64 780.34,854.25 793.49,859.84 C803.73,864.21 808.93,872.52 810.31,883.37 C810.51,884.94 811.42,887.49 808.46,886.97 C806,886.54 802.46,889.37 801.07,884.9 C795.07,866.06 776.76,858.65 759.85,868.22 C753.4,871.87 749.85,877.41 749.98,884.94 C750.12,892.17 754.17,896.84 760.48,899.78 C770.81,904.6 782.26,905.54 792.98,909.06 C805.24,913.06 812.37,920.64 813.23,931.29 C814.83,951.05 803.23,963.98 782.73,965.34 C780.35,965.55 778,965.41 775.66,965.41 Z" id="Shape" fill="#FEFEFE"></path>
                <path d="M353.34,910.61 C353.34,894.99 353.43,879.37 353.27,863.75 C353.27,860.21 353.77,858.69 357.92,858.75 C378.03,859 398.14,858.9 418.25,858.81 C421.18,858.81 422.84,859 422.85,862.76 C422.86,866.52 421.7,867.31 418.18,867.27 C401.59,867.1 384.99,867.39 368.4,867.07 C363.81,866.98 362.91,868.4 363.06,872.63 C363.39,881.99 363.31,891.37 363.06,900.74 C362.98,904.14 364.06,904.93 367.32,904.89 C382.16,904.72 397,904.89 411.83,904.76 C415.25,904.76 417.1,905.05 417.06,909.37 C417.02,913.69 414.62,913.37 411.84,913.37 C397,913.37 382.16,913.46 367.33,913.28 C364.06,913.28 363,914.04 363.07,917.43 C363.283333,928.556667 363.283333,939.683333 363.07,950.81 C363,954.37 364.39,954.88 367.47,954.81 C384.85,954.68 402.22,954.81 419.6,954.67 C423.09,954.67 424.29,955.35 424.23,959.11 C424.17,962.66 422.88,963.11 419.81,963.11 C399.12,962.99 378.42,962.95 357.73,963.11 C354.07,963.11 353.21,962.11 353.25,958.58 C353.45,942.63 353.34,926.62 353.34,910.61 Z" id="Shape" fill="#FEFEFE"></path>
                <path d="M260.19,914.88 C260.19,900.64 260.02,886.4 260.3,872.16 C260.38,867.94 259.09,866.93 255.07,867.09 C247.07,867.41 239.07,867.09 231.07,867.26 C227.97,867.34 227.07,866.39 227.19,863.34 C227.32,860.62 227.06,858.7 231,858.74 C253.63,858.94 276.25,858.89 298.88,858.74 C302.01,858.74 303.24,859.36 303.33,862.84 C303.44,866.76 301.85,867.29 298.53,867.21 C290.73,867.01 282.92,867.4 275.13,867.05 C270.85,866.86 270.02,868.42 270.04,872.35 C270.19,900.63 270.12,928.92 270.12,957.2 C270.12,962.73 267.18,964.69 261.76,963.03 C259.08,962.21 260.23,960.18 260.22,958.72 C260.15,944.14 260.19,929.51 260.19,914.88 Z" id="Shape" fill="#FDFDFD"></path>
                <path d="M478,910.51 C478,894.71 478.21,878.91 477.87,863.12 C477.77,858.46 480.09,858.95 483.15,858.76 C486.63,858.54 487.8,859.42 487.77,863.18 C487.6,891.85 487.77,920.52 487.55,949.18 C487.55,953.97 488.98,954.93 493.43,954.86 C508.64,954.59 523.85,954.86 539.06,954.69 C542.32,954.69 543.8,955.02 543.84,958.97 C543.84,963.12 542.02,963.13 538.96,963.11 C520.24,963.02 501.51,962.91 482.79,963.18 C478.39,963.24 477.86,961.69 477.91,957.88 C478.07,942.1 478,926.3 478,910.51 Z" id="Shape" fill="#FEFEFE"></path>
                <path d="M276.45,148.67 C273.34,150.58 272.12,155.46 267.21,154.53 C269.276132,151.621836 271.938674,149.187707 275.02,147.39 C276.24,147 276.54,147.61 276.45,148.67 Z" id="Shape" fill="#7E92E5"></path>
                <path d="M276.45,148.67 L275,147.39 C277.411511,144.587068 280.286667,142.219292 283.5,140.39 L284.79,141.92 L276.45,148.67 Z" id="Shape" fill="#94A5EB"></path>
                <path d="M295.1,311.58 C331.35,234.81 389.56,185.45 474.5,172.26 C596.68,153.26 710.05,232.76 735.32,353.82 C743.4,392.54 741.09,430.98 729.58,468.82 C729.07,470.49 728.7,472.2 728.26,473.91 C701.12,546.39 653.62,599.16 579.26,624.35 C445.26,669.73 302.84,584.45 278.62,445.07 C271.62,405.01 275.24,365.83 288.78,327.53 C289.1,326.62 289.28,325.66 289.53,324.73 C289.66,321.55 291.37,318.97 292.75,316.27 L292.82,316.27 C293.62,314.75 293.26,312.63 295.1,311.58 Z" id="Shape" fill="#000000"></path>
                <path d="M292.75,316.29 C292.29219,319.307343 291.194299,322.191865 289.53,324.75 L288.42,323.47 C289.45,320.83 290.08,317.94 292.75,316.29 Z" id="Shape" fill="#9DA9D5"></path>
                <path d="M295.1,311.58 C294.68,313.32 294.37,315.12 292.82,316.31 C292.15,314 292.35,312.19 295.1,311.58 Z" id="Shape" fill="#8794C4"></path>
                <path d="M677.53,910.85 C677.48,922.97 675.46,934.63 667.53,944.31 C657.44,956.72 644,959.56 629,956.17 C614,952.78 606,942.08 602.47,928 C598.83,913.5 599.27,898.89 605.85,885.15 C613.02,870.15 626.19,863.26 643.23,864.84 C658.81,866.28 670.41,876.33 675.13,892.36 C676.789411,898.381039 677.59726,904.604839 677.53,910.85 Z" id="Shape" fill="#000000"></path>
            </g>
        </g>
    </g>
</svg>