<?xml version="1.0" encoding="UTF-8"?>
<svg version="1.1" viewBox="0 0 324 540" xmlns="http://www.w3.org/2000/svg" xmlns:xlink="http://www.w3.org/1999/xlink">
<title>forum(w)-2</title>
<desc>Created with Sketch.</desc>
<defs>
<linearGradient id="l" x1="50%" x2="50%" y1="50%" y2="100%">
<stop stop-color="#fff" offset="0"/>
<stop stop-color="#FAFBFC" offset="1"/>
</linearGradient>
<rect id="b" x="46.71" y="36.18" width="230.58" height="467.64" rx="31.32"/>
<filter id="n" x="-8.5%" y="-2.7%" width="119.5%" height="109.6%">
<feOffset dx="0" dy="0" in="SourceAlpha" result="shadowOffsetOuter1"/>
<feGaussianBlur in="shadowOffsetOuter1" result="shadowBlurOuter1" stdDeviation="0.5"/>
<feColorMatrix in="shadowBlurOuter1" result="shadowMatrixOuter1" values="0 0 0 0 0   0 0 0 0 0.0823529412   0 0 0 0 0.250980392  0 0 0 0.14 0"/>
<feOffset dx="0" dy="2" in="SourceAlpha" result="shadowOffsetOuter2"/>
<feGaussianBlur in="shadowOffsetOuter2" result="shadowBlurOuter2" stdDeviation="2"/>
<feColorMatrix in="shadowBlurOuter2" result="shadowMatrixOuter2" values="0 0 0 0 0   0 0 0 0 0.0823529412   0 0 0 0 0.250980392  0 0 0 0.05 0"/>
<feOffset dx="3" dy="8" in="SourceAlpha" result="shadowOffsetOuter3"/>
<feGaussianBlur in="shadowOffsetOuter3" result="shadowBlurOuter3" stdDeviation="4.5"/>
<feColorMatrix in="shadowBlurOuter3" result="shadowMatrixOuter3" values="0 0 0 0 0.678431373   0 0 0 0 0.729411765   0 0 0 0 0.8  0 0 0 0.25 0"/>
<feMerge>
<feMergeNode in="shadowMatrixOuter1"/>
<feMergeNode in="shadowMatrixOuter2"/>
<feMergeNode in="shadowMatrixOuter3"/>
</feMerge>
</filter>
<filter id="m" x="-7.6%" y="-2.2%" width="117.8%" height="108.8%">
<feGaussianBlur in="SourceAlpha" result="shadowBlurInner1" stdDeviation="0.5"/>
<feOffset dx="0" dy="1" in="shadowBlurInner1" result="shadowOffsetInner1"/>
<feComposite in="shadowOffsetInner1" in2="SourceAlpha" k2="-1" k3="1" operator="arithmetic" result="shadowInnerInner1"/>
<feColorMatrix in="shadowInnerInner1" result="shadowMatrixInner1" values="0 0 0 0 1   0 0 0 0 1   0 0 0 0 1  0 0 0 1 0"/>
<feGaussianBlur in="SourceAlpha" result="shadowBlurInner2" stdDeviation="4.5"/>
<feOffset dx="0" dy="-4" in="shadowBlurInner2" result="shadowOffsetInner2"/>
<feComposite in="shadowOffsetInner2" in2="SourceAlpha" k2="-1" k3="1" operator="arithmetic" result="shadowInnerInner2"/>
<feColorMatrix in="shadowInnerInner2" result="shadowMatrixInner2" values="0 0 0 0 0   0 0 0 0 0   0 0 0 0 0  0 0 0 0.08 0"/>
<feMerge>
<feMergeNode in="shadowMatrixInner1"/>
<feMergeNode in="shadowMatrixInner2"/>
</feMerge>
</filter>
<linearGradient id="j" x1="50%" x2="50%" y2="100%">
<stop stop-color="#F3F4F6" offset="0"/>
<stop stop-color="#fff" offset="1"/>
</linearGradient>
<linearGradient id="i" y2="100%">
<stop stop-color="#fff" offset="0"/>
<stop stop-color="#FEFEFE" offset="1"/>
</linearGradient>
<rect id="c" x="60.75" y="89.91" width="202.5" height="360.18" rx="5.4"/>
<rect id="h" x=".75" y=".43" width="202.5" height="216.57"/>
<rect id="g" width="202.5" height="76"/>
<rect id="f" width="202" height="18"/>
<rect id="e" width="202" height="18"/>
<rect id="d" width="202" height="18"/>
<linearGradient id="k" y1="50%" y2="50%">
<stop stop-color="#8955EA" offset="0"/>
<stop stop-color="#4358F7" offset="1"/>
</linearGradient>
</defs>
<g fill="none" fill-rule="evenodd">
<mask fill="white">
<use xlink:href="#b"/>
</mask>
<use fill="black" filter="url(#n)" xlink:href="#b"/>
<use fill="url(#l)" fill-rule="evenodd" xlink:href="#b"/>
<use fill="black" filter="url(#m)" xlink:href="#b"/>
<path d="m162 493.02c-8.947 0-16.2-7.253-16.2-16.2s7.253-16.2 16.2-16.2 16.2 7.253 16.2 16.2-7.253 16.2-16.2 16.2zm0-1.89c7.9032 0 14.31-6.4068 14.31-14.31s-6.4068-14.31-14.31-14.31-14.31 6.4068-14.31 14.31 6.4068 14.31 14.31 14.31z" fill="url(#j)" style="mix-blend-mode:multiply"/>
<mask id="a" fill="white">
<use xlink:href="#c"/>
</mask>
<use fill="url(#i)" fill-rule="evenodd" xlink:href="#c"/>
<rect x="60.372" y="89.532" width="203.26" height="360.94" rx="5.4" stroke="#000" stroke-opacity=".04" stroke-width=".756"/>
<g mask="url(#a)">
<g transform="translate(45.75 98.91)">
<g transform="translate(.25 6.09)">
<rect x=".71" y=".57" width="230.58" height="355.32" fill="#FAFBFD"/>
</g>
<g transform="translate(23.37 .18)" fill="#F2F2F2">
<circle cx="1.35" cy="1.35" r="1.35"/>
<circle cx="1.35" cy="6.21" r="1.35"/>
<circle cx="1.35" cy="11.07" r="1.35"/>
</g>
</g>
</g>
<g mask="url(#a)"></g>
<g mask="url(#a)">
<g transform="translate(60 232)">
<use fill="#FFFFFF" fill-rule="evenodd" xlink:href="#h"/>
<rect x="1.425" y="1.105" width="201.15" height="215.22" stroke="#F5F6F8" stroke-width="1.35"/>
<path d="m0.5 85.5h202" stroke="#F5F6F8" stroke-linecap="square" stroke-width="1.35"/>
<g transform="translate(18 11)" stroke-linecap="square" stroke-width="4.5">
<g transform="translate(1 14)" stroke="#E3E7ED">
<path d="m0.25352 19.17h166.57"/>
<path d="m0.25352 29.16h150.01"/>
<path d="m0.91873 0.27h104.18"/>
<path d="m0.92188 9.72h119.84"/>
</g>
<path d="m0.97815 1.27h40" stroke="#F5F6F8"/>
<path d="m117.98 1.27h50" stroke="#F5F6F8"/>
</g>
<g transform="translate(18 97)" stroke-linecap="square" stroke-width="4.5">
<g transform="translate(1 13)" stroke="#E3E7ED">
<path d="m0.91873 1.27h165.08"/>
<path d="m0.92188 10.72h119.84"/>
</g>
<path d="m0.97815 1.27h40" stroke="#F5F6F8"/>
<path d="m117.98 1.27h50" stroke="#F5F6F8"/>
</g>
<g transform="translate(18 163)" stroke-linecap="square" stroke-width="4.5">
<g transform="translate(2 13)" stroke="#E3E7ED">
<path d="m0 1.27h141.21"/>
<path d="m0 10.5h103"/>
</g>
<path d="m0.97815 1.27h40" stroke="#F5F6F8"/>
<path d="m117.98 1.27h50" stroke="#F5F6F8"/>
</g>
</g>
</g>
<g mask="url(#a)">
<g transform="translate(52 88)">
<rect x=".48214" y=".91" width="218" height="33.09" fill="#1D1D26" fill-rule="evenodd"/>
<text fill="#F2F2F2" font-family="PingFangTC-Regular, PingFang TC" font-size="10" letter-spacing=".3375">
<tspan x="79.2895508" y="21">論壇</tspan>
<tspan x="99.9645508" y="21" font-family="ArialMT, Arial">| Forum</tspan>
</text>
<g transform="translate(17 11)" fill="#F2F2F2" fill-rule="evenodd">
<ellipse cx="1.8171" cy="1.44" rx="1.3982" ry="1.35"/>
<ellipse cx="1.8171" cy="6.3" rx="1.3982" ry="1.35"/>
<ellipse cx="1.8171" cy="11.16" rx="1.3982" ry="1.35"/>
</g>
</g>
</g>
<text fill="#BCBCBC" font-family="PingFangTC-Regular, PingFang TC" font-size="8.5" letter-spacing=".24286" mask="url(#a)">
<tspan x="66.9093437" y="228">留言</tspan>
<tspan x="84.395058" y="228" font-family="ArialMT, Arial">| Comments</tspan>
</text>
<g mask="url(#a)">
<g transform="translate(61 122)">
<use fill="#FFFFFF" fill-rule="evenodd" xlink:href="#g"/>
<rect x=".675" y=".675" width="201.15" height="74.65" stroke="#F5F6F8" stroke-width="1.35"/>
<g transform="translate(17 14)" stroke-linecap="square">
<g transform="translate(1 17)" stroke="#CAD0D9" stroke-width="5.5">
<path d="m0.20484 14.028h134.58"/>
<path d="m0.20484 27.809h121.21"/>
<path d="m0.74487 0.99316h96.833"/>
</g>
<path d="m0.97815 1.27h40" stroke="#F5F6F8" stroke-width="4.5"/>
<path d="m117.98 1.27h50" stroke="#F5F6F8" stroke-width="4.5"/>
</g>
</g>
</g>
<g mask="url(#a)">
<g transform="translate(61 198)">
<use fill="#FFFFFF" fill-rule="evenodd" xlink:href="#f"/>
<rect x=".675" y=".675" width="200.65" height="16.65" stroke="#F6F6F7" stroke-width="1.35"/>
<path d="m100.05 15.25v-11.9" stroke="#EDEDED" stroke-linecap="square" stroke-width=".7"/>
<g transform="translate(148.7 4.4)" fill-rule="nonzero" stroke="#E3E7ED" stroke-width=".5">
<path d="m6.9554 0.50452c-0.07361-0.029668-1.8216-0.71397-3.1817 0.0072167-1.0777 0.57204-2.9694 0.14289-3.4529 0.018763v-0.37013c0-0.088685-0.071685-0.16037-0.16037-0.16037-0.088685 0-0.16037 0.071685-0.16037 0.16037v0.48111c0 0.0022452 0.0011226 0.0041696 0.001283 0.0064148 0 0.0019244-0.001283 0.0035281-0.001283 0.0054526v4.6389 0.17224 3.9974c0 0.088685 0.071685 0.16037 0.16037 0.16037 0.088685 0 0.16037-0.071685 0.16037-0.16037v-3.7887c0.36452 0.09093 1.159 0.26172 1.9835 0.26172 0.57044 0 1.1547-0.081949 1.6199-0.3286 1.2272-0.65126 2.8956 6.4148e-4 2.9123 0.0072166 0.049554 0.019886 0.10536 0.013792 0.14946-0.016358 0.043941-0.029668 0.070402-0.079383 0.070402-0.13263v-4.8111c0-0.065591-0.039932-0.12445-0.10087-0.14882zm-0.21987 4.734c-0.52281-0.16646-1.8677-0.49651-2.9619 0.084194-1.0775 0.57188-2.9686 0.14305-3.4529 0.018924v-0.049394-4.4302c0.61791 0.15412 2.4667 0.53612 3.6034-0.066874 1.053-0.55857 2.4309-0.15796 2.8114-0.029027v4.4724z"/>
</g>
<g transform="translate(43 3.7)" fill="#E3E7ED" fill-rule="nonzero">
<path d="m9.5059 6.9653c0.2066-0.26781 0.30569-0.55491 0.29304-0.85057-0.012649-0.32566-0.15601-0.58062-0.27407-0.73702 0.13703-0.34709 0.18974-0.89342-0.26774-1.3176-0.3352-0.31066-0.90442-0.44993-1.6929-0.41136-0.55446 0.02571-1.0183 0.13069-1.0372 0.13498h-0.0021082c-0.10541 0.019283-0.21714 0.04285-0.33099 0.06856-0.0084328-0.13712 0.014757-0.47778 0.26353-1.2448 0.29515-0.91271 0.27828-1.6112-0.054813-2.0782-0.34996-0.49063-0.90864-0.5292-1.0731-0.5292-0.15812 0-0.30358 0.066418-0.40688 0.18854-0.23401 0.27638-0.2066 0.7863-0.17709 1.022-0.27828 0.75845-1.0583 2.6181-1.7182 3.1345-0.012649 0.00857-0.02319 0.019283-0.033731 0.029995-0.19395 0.20782-0.32466 0.43279-0.41321 0.6299-0.12438-0.06856-0.26563-0.10713-0.41742-0.10713h-1.286c-0.48489 0-0.87701 0.40065-0.87701 0.89128v3.4816c0 0.49278 0.39423 0.89128 0.87701 0.89128h1.286c0.18763 0 0.36261-0.05999 0.50597-0.16283l0.49543 0.05999c0.075895 0.010712 1.4251 0.18426 2.8102 0.1564 0.25088 0.019282 0.48699 0.029995 0.70625 0.029995 0.37737 0 0.70625-0.029995 0.98031-0.089985 0.64511-0.13926 1.0857-0.41779 1.3092-0.82701 0.17076-0.31281 0.17076-0.62347 0.14336-0.82058 0.41953-0.38565 0.49332-0.81201 0.47856-1.112-0.0084328-0.17354-0.04638-0.32138-0.086436-0.43064zm-8.6289 2.6181c-0.17076 0-0.3078-0.14141-0.3078-0.31281v-3.4837c0-0.17354 0.13914-0.31281 0.3078-0.31281h1.286c0.17076 0 0.3078 0.14141 0.3078 0.31281v3.4816c0 0.17354-0.13914 0.31281-0.3078 0.31281h-1.286v0.0021425zm8.0892-2.8688c-0.088544 0.09427-0.10541 0.23782-0.037948 0.34923 0 0.0021425 0.086436 0.15212 0.096977 0.3578 0.014757 0.28067-0.11806 0.5292-0.39634 0.74131-0.099086 0.07713-0.13914 0.20997-0.096977 0.32995 0 0.0021425 0.090653 0.28495-0.056921 0.55277-0.14125 0.2571-0.45537 0.44136-0.93183 0.5442-0.38158 0.083558-0.9002 0.098555-1.5369 0.047135h-0.029515c-1.3556 0.029995-2.7259-0.14998-2.7407-0.15212h-0.0021082l-0.21293-0.02571c0.012649-0.05999 0.018974-0.12427 0.018974-0.18854v-3.4837c0-0.092128-0.014757-0.18211-0.040056-0.26567 0.037948-0.14355 0.14336-0.46278 0.39213-0.73488 0.94658-0.76273 1.8721-3.3359 1.9121-3.4473 0.016866-0.044993 0.021082-0.09427 0.012649-0.14355-0.035839-0.23996-0.02319-0.53348 0.027407-0.62133 0.11173 0.0021425 0.41321 0.03428 0.59451 0.28924 0.21504 0.30209 0.2066 0.842-0.025298 1.5576-0.35418 1.0905-0.38369 1.6647-0.1033 1.9175 0.13914 0.12641 0.32466 0.13284 0.45959 0.083558 0.1286-0.029995 0.25088-0.055705 0.36683-0.074988 0.0084328-0.0021425 0.018974-0.004285 0.027407-0.0064275 0.64722-0.14355 1.8067-0.23139 2.2094 0.14141 0.34153 0.31709 0.099086 0.73702 0.071679 0.78201-0.078003 0.11998-0.054813 0.27638 0.050597 0.3728 0.0021082 0.0021425 0.22347 0.21425 0.23401 0.4992 0.0084328 0.19068-0.080112 0.38565-0.26353 0.57848z"/>
</g>
</g>
</g>
<g mask="url(#a)">
<g transform="translate(61 300)">
<use fill="#FFFFFF" fill-rule="evenodd" xlink:href="#e"/>
<rect x=".675" y=".675" width="200.65" height="16.65" stroke="#F6F6F7" stroke-width="1.35"/>
<path d="m100.05 15.25v-11.9" stroke="#EDEDED" stroke-linecap="square" stroke-width=".7"/>
<g transform="translate(148.7 4.4)" fill-rule="nonzero" stroke="#E3E7ED" stroke-width=".5">
<path d="m6.9554 0.50452c-0.07361-0.029668-1.8216-0.71397-3.1817 0.0072167-1.0777 0.57204-2.9694 0.14289-3.4529 0.018763v-0.37013c0-0.088685-0.071685-0.16037-0.16037-0.16037-0.088685 0-0.16037 0.071685-0.16037 0.16037v0.48111c0 0.0022452 0.0011226 0.0041696 0.001283 0.0064148 0 0.0019244-0.001283 0.0035281-0.001283 0.0054526v4.6389 0.17224 3.9974c0 0.088685 0.071685 0.16037 0.16037 0.16037 0.088685 0 0.16037-0.071685 0.16037-0.16037v-3.7887c0.36452 0.09093 1.159 0.26172 1.9835 0.26172 0.57044 0 1.1547-0.081949 1.6199-0.3286 1.2272-0.65126 2.8956 6.4148e-4 2.9123 0.0072166 0.049554 0.019886 0.10536 0.013792 0.14946-0.016358 0.043941-0.029668 0.070402-0.079383 0.070402-0.13263v-4.8111c0-0.065591-0.039932-0.12445-0.10087-0.14882zm-0.21987 4.734c-0.52281-0.16646-1.8677-0.49651-2.9619 0.084194-1.0775 0.57188-2.9686 0.14305-3.4529 0.018924v-0.049394-4.4302c0.61791 0.15412 2.4667 0.53612 3.6034-0.066874 1.053-0.55857 2.4309-0.15796 2.8114-0.029027v4.4724z"/>
</g>
<g transform="translate(43 3.7)" fill="#E3E7ED" fill-rule="nonzero">
<path d="m9.5059 6.9653c0.2066-0.26781 0.30569-0.55491 0.29304-0.85057-0.012649-0.32566-0.15601-0.58062-0.27407-0.73702 0.13703-0.34709 0.18974-0.89342-0.26774-1.3176-0.3352-0.31066-0.90442-0.44993-1.6929-0.41136-0.55446 0.02571-1.0183 0.13069-1.0372 0.13498h-0.0021082c-0.10541 0.019283-0.21714 0.04285-0.33099 0.06856-0.0084328-0.13712 0.014757-0.47778 0.26353-1.2448 0.29515-0.91271 0.27828-1.6112-0.054813-2.0782-0.34996-0.49063-0.90864-0.5292-1.0731-0.5292-0.15812 0-0.30358 0.066418-0.40688 0.18854-0.23401 0.27638-0.2066 0.7863-0.17709 1.022-0.27828 0.75845-1.0583 2.6181-1.7182 3.1345-0.012649 0.00857-0.02319 0.019283-0.033731 0.029995-0.19395 0.20782-0.32466 0.43279-0.41321 0.6299-0.12438-0.06856-0.26563-0.10713-0.41742-0.10713h-1.286c-0.48489 0-0.87701 0.40065-0.87701 0.89128v3.4816c0 0.49278 0.39423 0.89128 0.87701 0.89128h1.286c0.18763 0 0.36261-0.05999 0.50597-0.16283l0.49543 0.05999c0.075895 0.010712 1.4251 0.18426 2.8102 0.1564 0.25088 0.019282 0.48699 0.029995 0.70625 0.029995 0.37737 0 0.70625-0.029995 0.98031-0.089985 0.64511-0.13926 1.0857-0.41779 1.3092-0.82701 0.17076-0.31281 0.17076-0.62347 0.14336-0.82058 0.41953-0.38565 0.49332-0.81201 0.47856-1.112-0.0084328-0.17354-0.04638-0.32138-0.086436-0.43064zm-8.6289 2.6181c-0.17076 0-0.3078-0.14141-0.3078-0.31281v-3.4837c0-0.17354 0.13914-0.31281 0.3078-0.31281h1.286c0.17076 0 0.3078 0.14141 0.3078 0.31281v3.4816c0 0.17354-0.13914 0.31281-0.3078 0.31281h-1.286v0.0021425zm8.0892-2.8688c-0.088544 0.09427-0.10541 0.23782-0.037948 0.34923 0 0.0021425 0.086436 0.15212 0.096977 0.3578 0.014757 0.28067-0.11806 0.5292-0.39634 0.74131-0.099086 0.07713-0.13914 0.20997-0.096977 0.32995 0 0.0021425 0.090653 0.28495-0.056921 0.55277-0.14125 0.2571-0.45537 0.44136-0.93183 0.5442-0.38158 0.083558-0.9002 0.098555-1.5369 0.047135h-0.029515c-1.3556 0.029995-2.7259-0.14998-2.7407-0.15212h-0.0021082l-0.21293-0.02571c0.012649-0.05999 0.018974-0.12427 0.018974-0.18854v-3.4837c0-0.092128-0.014757-0.18211-0.040056-0.26567 0.037948-0.14355 0.14336-0.46278 0.39213-0.73488 0.94658-0.76273 1.8721-3.3359 1.9121-3.4473 0.016866-0.044993 0.021082-0.09427 0.012649-0.14355-0.035839-0.23996-0.02319-0.53348 0.027407-0.62133 0.11173 0.0021425 0.41321 0.03428 0.59451 0.28924 0.21504 0.30209 0.2066 0.842-0.025298 1.5576-0.35418 1.0905-0.38369 1.6647-0.1033 1.9175 0.13914 0.12641 0.32466 0.13284 0.45959 0.083558 0.1286-0.029995 0.25088-0.055705 0.36683-0.074988 0.0084328-0.0021425 0.018974-0.004285 0.027407-0.0064275 0.64722-0.14355 1.8067-0.23139 2.2094 0.14141 0.34153 0.31709 0.099086 0.73702 0.071679 0.78201-0.078003 0.11998-0.054813 0.27638 0.050597 0.3728 0.0021082 0.0021425 0.22347 0.21425 0.23401 0.4992 0.0084328 0.19068-0.080112 0.38565-0.26353 0.57848z"/>
</g>
</g>
</g>
<g mask="url(#a)">
<g transform="translate(61 366)">
<use fill="#FFFFFF" fill-rule="evenodd" xlink:href="#d"/>
<rect x=".675" y=".675" width="200.65" height="16.65" stroke="#F6F6F7" stroke-width="1.35"/>
<path d="m100.05 15.25v-11.9" stroke="#EDEDED" stroke-linecap="square" stroke-width=".7"/>
<g transform="translate(148.7 4.4)" fill-rule="nonzero" stroke="#E3E7ED" stroke-width=".5">
<path d="m6.9554 0.50452c-0.07361-0.029668-1.8216-0.71397-3.1817 0.0072167-1.0777 0.57204-2.9694 0.14289-3.4529 0.018763v-0.37013c0-0.088685-0.071685-0.16037-0.16037-0.16037-0.088685 0-0.16037 0.071685-0.16037 0.16037v0.48111c0 0.0022452 0.0011226 0.0041696 0.001283 0.0064148 0 0.0019244-0.001283 0.0035281-0.001283 0.0054526v4.6389 0.17224 3.9974c0 0.088685 0.071685 0.16037 0.16037 0.16037 0.088685 0 0.16037-0.071685 0.16037-0.16037v-3.7887c0.36452 0.09093 1.159 0.26172 1.9835 0.26172 0.57044 0 1.1547-0.081949 1.6199-0.3286 1.2272-0.65126 2.8956 6.4148e-4 2.9123 0.0072166 0.049554 0.019886 0.10536 0.013792 0.14946-0.016358 0.043941-0.029668 0.070402-0.079383 0.070402-0.13263v-4.8111c0-0.065591-0.039932-0.12445-0.10087-0.14882zm-0.21987 4.734c-0.52281-0.16646-1.8677-0.49651-2.9619 0.084194-1.0775 0.57188-2.9686 0.14305-3.4529 0.018924v-0.049394-4.4302c0.61791 0.15412 2.4667 0.53612 3.6034-0.066874 1.053-0.55857 2.4309-0.15796 2.8114-0.029027v4.4724z"/>
</g>
<g transform="translate(43 3.7)" fill="#E3E7ED" fill-rule="nonzero">
<path d="m9.5059 6.9653c0.2066-0.26781 0.30569-0.55491 0.29304-0.85057-0.012649-0.32566-0.15601-0.58062-0.27407-0.73702 0.13703-0.34709 0.18974-0.89342-0.26774-1.3176-0.3352-0.31066-0.90442-0.44993-1.6929-0.41136-0.55446 0.02571-1.0183 0.13069-1.0372 0.13498h-0.0021082c-0.10541 0.019283-0.21714 0.04285-0.33099 0.06856-0.0084328-0.13712 0.014757-0.47778 0.26353-1.2448 0.29515-0.91271 0.27828-1.6112-0.054813-2.0782-0.34996-0.49063-0.90864-0.5292-1.0731-0.5292-0.15812 0-0.30358 0.066418-0.40688 0.18854-0.23401 0.27638-0.2066 0.7863-0.17709 1.022-0.27828 0.75845-1.0583 2.6181-1.7182 3.1345-0.012649 0.00857-0.02319 0.019283-0.033731 0.029995-0.19395 0.20782-0.32466 0.43279-0.41321 0.6299-0.12438-0.06856-0.26563-0.10713-0.41742-0.10713h-1.286c-0.48489 0-0.87701 0.40065-0.87701 0.89128v3.4816c0 0.49278 0.39423 0.89128 0.87701 0.89128h1.286c0.18763 0 0.36261-0.05999 0.50597-0.16283l0.49543 0.05999c0.075895 0.010712 1.4251 0.18426 2.8102 0.1564 0.25088 0.019282 0.48699 0.029995 0.70625 0.029995 0.37737 0 0.70625-0.029995 0.98031-0.089985 0.64511-0.13926 1.0857-0.41779 1.3092-0.82701 0.17076-0.31281 0.17076-0.62347 0.14336-0.82058 0.41953-0.38565 0.49332-0.81201 0.47856-1.112-0.0084328-0.17354-0.04638-0.32138-0.086436-0.43064zm-8.6289 2.6181c-0.17076 0-0.3078-0.14141-0.3078-0.31281v-3.4837c0-0.17354 0.13914-0.31281 0.3078-0.31281h1.286c0.17076 0 0.3078 0.14141 0.3078 0.31281v3.4816c0 0.17354-0.13914 0.31281-0.3078 0.31281h-1.286v0.0021425zm8.0892-2.8688c-0.088544 0.09427-0.10541 0.23782-0.037948 0.34923 0 0.0021425 0.086436 0.15212 0.096977 0.3578 0.014757 0.28067-0.11806 0.5292-0.39634 0.74131-0.099086 0.07713-0.13914 0.20997-0.096977 0.32995 0 0.0021425 0.090653 0.28495-0.056921 0.55277-0.14125 0.2571-0.45537 0.44136-0.93183 0.5442-0.38158 0.083558-0.9002 0.098555-1.5369 0.047135h-0.029515c-1.3556 0.029995-2.7259-0.14998-2.7407-0.15212h-0.0021082l-0.21293-0.02571c0.012649-0.05999 0.018974-0.12427 0.018974-0.18854v-3.4837c0-0.092128-0.014757-0.18211-0.040056-0.26567 0.037948-0.14355 0.14336-0.46278 0.39213-0.73488 0.94658-0.76273 1.8721-3.3359 1.9121-3.4473 0.016866-0.044993 0.021082-0.09427 0.012649-0.14355-0.035839-0.23996-0.02319-0.53348 0.027407-0.62133 0.11173 0.0021425 0.41321 0.03428 0.59451 0.28924 0.21504 0.30209 0.2066 0.842-0.025298 1.5576-0.35418 1.0905-0.38369 1.6647-0.1033 1.9175 0.13914 0.12641 0.32466 0.13284 0.45959 0.083558 0.1286-0.029995 0.25088-0.055705 0.36683-0.074988 0.0084328-0.0021425 0.018974-0.004285 0.027407-0.0064275 0.64722-0.14355 1.8067-0.23139 2.2094 0.14141 0.34153 0.31709 0.099086 0.73702 0.071679 0.78201-0.078003 0.11998-0.054813 0.27638 0.050597 0.3728 0.0021082 0.0021425 0.22347 0.21425 0.23401 0.4992 0.0084328 0.19068-0.080112 0.38565-0.26353 0.57848z"/>
</g>
</g>
</g>
<g mask="url(#a)">
<g transform="translate(53 415)">
<g fill="none" fill-rule="evenodd">
<g fill="#1D1D26">
<g transform="translate(.1 .7)">
<rect width="216.27" height="40"/>
</g>
</g>
<g transform="translate(25 3)">
<rect width="30" height="30"/>
<path d="m21.042 12.083-5.2083-5.2083v5.2083h5.2083zm-13.125-6.6667h7.5l6.6667 6.6667v12.083h-14.167v-18.75z" fill="#EDEEEF" opacity=".25"/>
</g>
<g transform="translate(162 3)">
<rect width="30" height="30"/>
<path d="m8.413 19.246c0.62221 0.57555 2.6467 1.8757-0.27398 3.8387 1.2216 0.44296 3.0458 0.046608 4.5098-1.1542 0.52235-0.42844 1.6961-0.264 2.3512-0.264 4.8325 0 8.75-3.1713 8.75-7.0833 0-3.912-3.9175-7.0833-8.75-7.0833s-8.75 3.1713-8.75 7.0833c0 1.7856 0.81619 3.4169 2.163 4.6628z" fill="url(#k)"/>
</g>
<g transform="translate(118 4)">
<rect width="28" height="28"/>
<path d="m5.0556 5.0556h17.889v17.889h-17.889v-17.889zm5.2146 5.8333-0.33961-1.1839 0.95831-0.76586h-1.1805l-0.35992-1.1613-0.38996 1.1613h-1.1808l0.93947 0.74882-0.36983 1.1739 0.97058-0.70399 0.95219 0.73099zm0 4.6667-0.33961-1.1839 0.95831-0.76586h-1.1805l-0.35992-1.1613-0.38996 1.1613h-1.1808l0.93947 0.74882-0.36983 1.1739 0.97058-0.70399 0.95219 0.73099zm0 4.6667-0.33961-1.1839 0.95831-0.76586h-1.1805l-0.35992-1.1613-0.38996 1.1613h-1.1808l0.93947 0.74882-0.36983 1.1739 0.97058-0.70399 0.95219 0.73099zm1.7854-11.278v0.77778h8.5556v-0.77778h-8.5556zm0 4.6667v0.77778h8.5556v-0.77778h-8.5556zm0 4.6667v0.77778h8.5556v-0.77778h-8.5556z" fill="#EDEEEF" opacity=".25"/>
</g>
</g>
<path d="m94.998 14.53h-17.998v11.766h17.998v-11.766zm-0.030761-1.5269c-0.0034451-0.72375-0.45779-0.81938-1.3675-0.86365h-7.2888c-0.59278 0-1.4215-0.33971-1.8412-0.75472l-0.63728-0.62958c-0.41993-0.41522-1.0356-0.75493-1.8412-0.75493h-3.4825c-0.7526 0-1.5092 0.5633-1.5092 1.1626v2.688h18l-0.032326-0.84774z" fill="#EDEEEF" fill-rule="nonzero" opacity=".25"/>
</g>
</g>
</g>
</svg>
