<?xml version="1.0" encoding="UTF-8"?>
<svg width="324px" height="540px" viewBox="0 0 324 540" version="1.1" xmlns="http://www.w3.org/2000/svg" xmlns:xlink="http://www.w3.org/1999/xlink">
    <!-- Generator: Sketch 48.2 (47327) - http://www.bohemiancoding.com/sketch -->
    <title>forum(w)-2</title>
    <desc>Created with Sketch.</desc>
    <defs>
        <linearGradient x1="50%" y1="50%" x2="50%" y2="100%" id="linearGradient-1">
            <stop stop-color="#FFFFFF" offset="0%"></stop>
            <stop stop-color="#FAFBFC" offset="100%"></stop>
        </linearGradient>
        <rect id="path-2" x="46.71" y="36.18" width="230.58" height="467.64" rx="31.32"></rect>
        <filter x="-8.5%" y="-2.7%" width="119.5%" height="109.6%" filterUnits="objectBoundingBox" id="filter-4">
            <feOffset dx="0" dy="0" in="SourceAlpha" result="shadowOffsetOuter1"></feOffset>
            <feGaussianBlur stdDeviation="0.5" in="shadowOffsetOuter1" result="shadowBlurOuter1"></feGaussianBlur>
            <feColorMatrix values="0 0 0 0 0   0 0 0 0 0.0823529412   0 0 0 0 0.250980392  0 0 0 0.14 0" type="matrix" in="shadowBlurOuter1" result="shadowMatrixOuter1"></feColorMatrix>
            <feOffset dx="0" dy="2" in="SourceAlpha" result="shadowOffsetOuter2"></feOffset>
            <feGaussianBlur stdDeviation="2" in="shadowOffsetOuter2" result="shadowBlurOuter2"></feGaussianBlur>
            <feColorMatrix values="0 0 0 0 0   0 0 0 0 0.0823529412   0 0 0 0 0.250980392  0 0 0 0.05 0" type="matrix" in="shadowBlurOuter2" result="shadowMatrixOuter2"></feColorMatrix>
            <feOffset dx="3" dy="8" in="SourceAlpha" result="shadowOffsetOuter3"></feOffset>
            <feGaussianBlur stdDeviation="4.5" in="shadowOffsetOuter3" result="shadowBlurOuter3"></feGaussianBlur>
            <feColorMatrix values="0 0 0 0 0.678431373   0 0 0 0 0.729411765   0 0 0 0 0.8  0 0 0 0.25 0" type="matrix" in="shadowBlurOuter3" result="shadowMatrixOuter3"></feColorMatrix>
            <feMerge>
                <feMergeNode in="shadowMatrixOuter1"></feMergeNode>
                <feMergeNode in="shadowMatrixOuter2"></feMergeNode>
                <feMergeNode in="shadowMatrixOuter3"></feMergeNode>
            </feMerge>
        </filter>
        <filter x="-7.6%" y="-2.2%" width="117.8%" height="108.8%" filterUnits="objectBoundingBox" id="filter-5">
            <feGaussianBlur stdDeviation="0.5" in="SourceAlpha" result="shadowBlurInner1"></feGaussianBlur>
            <feOffset dx="0" dy="1" in="shadowBlurInner1" result="shadowOffsetInner1"></feOffset>
            <feComposite in="shadowOffsetInner1" in2="SourceAlpha" operator="arithmetic" k2="-1" k3="1" result="shadowInnerInner1"></feComposite>
            <feColorMatrix values="0 0 0 0 1   0 0 0 0 1   0 0 0 0 1  0 0 0 1 0" type="matrix" in="shadowInnerInner1" result="shadowMatrixInner1"></feColorMatrix>
            <feGaussianBlur stdDeviation="4.5" in="SourceAlpha" result="shadowBlurInner2"></feGaussianBlur>
            <feOffset dx="0" dy="-4" in="shadowBlurInner2" result="shadowOffsetInner2"></feOffset>
            <feComposite in="shadowOffsetInner2" in2="SourceAlpha" operator="arithmetic" k2="-1" k3="1" result="shadowInnerInner2"></feComposite>
            <feColorMatrix values="0 0 0 0 0   0 0 0 0 0   0 0 0 0 0  0 0 0 0.08 0" type="matrix" in="shadowInnerInner2" result="shadowMatrixInner2"></feColorMatrix>
            <feMerge>
                <feMergeNode in="shadowMatrixInner1"></feMergeNode>
                <feMergeNode in="shadowMatrixInner2"></feMergeNode>
            </feMerge>
        </filter>
        <linearGradient x1="50%" y1="0%" x2="50%" y2="100%" id="linearGradient-6">
            <stop stop-color="#F3F4F6" offset="0%"></stop>
            <stop stop-color="#FFFFFF" offset="100%"></stop>
        </linearGradient>
        <linearGradient x1="0%" y1="0%" x2="100%" y2="100%" id="linearGradient-7">
            <stop stop-color="#FFFFFF" offset="0%"></stop>
            <stop stop-color="#FEFEFE" offset="100%"></stop>
        </linearGradient>
        <rect id="path-8" x="60.75" y="89.91" width="202.5" height="360.18" rx="5.4"></rect>
        <rect id="path-10" x="0.75" y="0.43" width="202.5" height="216.57"></rect>
        <rect id="path-11" x="0" y="0" width="202.5" height="76"></rect>
        <rect id="path-12" x="0" y="0" width="202" height="18"></rect>
        <rect id="path-13" x="0" y="0" width="202" height="18"></rect>
        <rect id="path-14" x="0" y="0" width="202" height="18"></rect>
        <linearGradient x1="0%" y1="50%" x2="100%" y2="50%" id="linearGradient-15">
            <stop stop-color="#8955EA" offset="0%"></stop>
            <stop stop-color="#4358F7" offset="100%"></stop>
        </linearGradient>
    </defs>
    <g id="Page-1" stroke="none" stroke-width="1" fill="none" fill-rule="evenodd">
        <g id="forum(w)-2">
            <mask id="mask-3" fill="white">
                <use xlink:href="#path-2"></use>
            </mask>
            <g id="iPhone-Body">
                <use fill="black" fill-opacity="1" filter="url(#filter-4)" xlink:href="#path-2"></use>
                <use fill="url(#linearGradient-1)" fill-rule="evenodd" xlink:href="#path-2"></use>
                <use fill="black" fill-opacity="1" filter="url(#filter-5)" xlink:href="#path-2"></use>
            </g>
            <path d="M162,493.02 C153.052987,493.02 145.8,485.767013 145.8,476.82 C145.8,467.872987 153.052987,460.62 162,460.62 C170.947013,460.62 178.2,467.872987 178.2,476.82 C178.2,485.767013 170.947013,493.02 162,493.02 Z M162,491.13 C169.903195,491.13 176.31,484.723195 176.31,476.82 C176.31,468.916805 169.903195,462.51 162,462.51 C154.096805,462.51 147.69,468.916805 147.69,476.82 C147.69,484.723195 154.096805,491.13 162,491.13 Z" id="Home" fill="url(#linearGradient-6)" style="mix-blend-mode: multiply;"></path>
            <mask id="mask-9" fill="white">
                <use xlink:href="#path-8"></use>
            </mask>
            <g id="Mask-for-Screen">
                <use fill="url(#linearGradient-7)" fill-rule="evenodd" xlink:href="#path-8"></use>
                <rect stroke-opacity="0.04" stroke="#000000" stroke-width="0.756" x="60.372" y="89.532" width="203.256" height="360.936" rx="5.4"></rect>
            </g>
            <g id="Group-10" mask="url(#mask-9)">
                <g transform="translate(45.750000, 98.910000)">
                    <g id="Group-17" transform="translate(0.250000, 6.090000)">
                        <rect id="Rectangle-2" fill="#FAFBFD" x="0.71" y="0.57" width="230.58" height="355.32"></rect>
                    </g>
                    <g id="Group-3" transform="translate(23.370000, 0.180000)">
                        <circle id="Oval-2" fill="#F2F2F2" cx="1.35" cy="1.35" r="1.35"></circle>
                        <circle id="Oval-2-Copy" fill="#F2F2F2" cx="1.35" cy="6.21" r="1.35"></circle>
                        <circle id="Oval-2-Copy-2" fill="#F2F2F2" cx="1.35" cy="11.07" r="1.35"></circle>
                    </g>
                </g>
            </g>
            <g id="Group-2" mask="url(#mask-9)">
                <g transform="translate(248.130000, 181.440000)"></g>
            </g>
            <g id="Group-27" mask="url(#mask-9)">
                <g transform="translate(60.000000, 232.000000)">
                    <g id="Group-25">
                        <g id="Group-18">
                            <g id="Rectangle-14">
                                <use fill="#FFFFFF" fill-rule="evenodd" xlink:href="#path-10"></use>
                                <rect stroke="#F5F6F8" stroke-width="1.35" x="1.425" y="1.105" width="201.15" height="215.22"></rect>
                            </g>
                            <path d="M0.5,85.5 L202.5,85.5" id="Line-3" stroke="#F5F6F8" stroke-width="1.35" stroke-linecap="square"></path>
                            <g id="Group-22" transform="translate(18.000000, 11.000000)" stroke-linecap="square" stroke-width="4.5">
                                <g id="Group-16" transform="translate(1.000000, 14.000000)" stroke="#E3E7ED">
                                    <g id="Group-15">
                                        <path d="M0.253518072,19.17 L166.819715,19.17" id="Line-2"></path>
                                        <path d="M0.253518072,29.16 L150.267076,29.16" id="Line-2-Copy-4"></path>
                                        <path d="M0.918725831,0.27 L105.094765,0.27" id="Line-2-Copy"></path>
                                        <path d="M0.921883899,9.72 L120.766791,9.72" id="Line-2-Copy-2"></path>
                                    </g>
                                </g>
                                <path d="M0.978150139,1.27 L40.9781501,1.27" id="Line-2-Copy" stroke="#F5F6F8"></path>
                                <path d="M117.97815,1.27 L167.97815,1.27" id="Line-2-Copy-3" stroke="#F5F6F8"></path>
                            </g>
                        </g>
                        <g id="Group-24" transform="translate(18.000000, 97.000000)" stroke-linecap="square" stroke-width="4.5">
                            <g id="Group-16" transform="translate(1.000000, 13.000000)" stroke="#E3E7ED">
                                <g id="Group-15">
                                    <path d="M0.918725831,1.27 L166,1.27" id="Line-2-Copy"></path>
                                    <path d="M0.921883899,10.72 L120.766791,10.72" id="Line-2-Copy-2"></path>
                                </g>
                            </g>
                            <path d="M0.978150139,1.27 L40.9781501,1.27" id="Line-2-Copy" stroke="#F5F6F8"></path>
                            <path d="M117.97815,1.27 L167.97815,1.27" id="Line-2-Copy-3" stroke="#F5F6F8"></path>
                        </g>
                    </g>
                    <g id="Group-26" transform="translate(18.000000, 163.000000)" stroke-linecap="square">
                        <g id="Group-16" transform="translate(2.000000, 13.000000)" stroke="#E3E7ED" stroke-width="4.5">
                            <g id="Group-15">
                                <path d="M0,1.27 L141.214102,1.27" id="Line-2-Copy"></path>
                                <path d="M0,10.5 L103,10.5" id="Line-2-Copy-2"></path>
                            </g>
                        </g>
                        <path d="M0.978150139,1.27 L40.9781501,1.27" id="Line-2-Copy" stroke="#F5F6F8" stroke-width="4.5"></path>
                        <path d="M117.97815,1.27 L167.97815,1.27" id="Line-2-Copy-3" stroke="#F5F6F8" stroke-width="4.5"></path>
                    </g>
                </g>
            </g>
            <g id="Group-3" mask="url(#mask-9)">
                <g transform="translate(52.000000, 88.000000)">
                    <rect id="Rectangle" fill="#1D1D26" fill-rule="evenodd" x="0.482142857" y="0.91" width="218" height="33.09"></rect>
                    <text id="論壇-|-Forum" fill="none" font-family="PingFangTC-Regular, PingFang TC" font-size="10" font-weight="normal" letter-spacing="0.337500006">
                        <tspan x="79.2895508" y="21" fill="#F2F2F2">論壇</tspan>
                        <tspan x="99.9645508" y="21" font-family="ArialMT, Arial" fill="#F2F2F2"> | Forum</tspan>
                    </text>
                    <g id="Group" stroke-width="1" fill="none" fill-rule="evenodd" transform="translate(17.000000, 11.000000)">
                        <ellipse id="Oval-2" fill="#F2F2F2" cx="1.81714286" cy="1.44" rx="1.39821429" ry="1.35"></ellipse>
                        <ellipse id="Oval-2-Copy" fill="#F2F2F2" cx="1.81714286" cy="6.3" rx="1.39821429" ry="1.35"></ellipse>
                        <ellipse id="Oval-2-Copy-2" fill="#F2F2F2" cx="1.81714286" cy="11.16" rx="1.39821429" ry="1.35"></ellipse>
                    </g>
                </g>
            </g>
            <text id="留言-|-Comments" mask="url(#mask-9)" font-family="PingFangTC-Regular, PingFang TC" font-size="8.5" font-weight="normal" letter-spacing="0.242857128" fill="#BCBCBC">
                <tspan x="66.9093437" y="228">留言</tspan>
                <tspan x="84.395058" y="228" font-family="ArialMT, Arial"> | Comments</tspan>
            </text>
            <g id="Group-21" mask="url(#mask-9)">
                <g transform="translate(61.000000, 122.000000)">
                    <g id="Group-14">
                        <g id="Rectangle-13">
                            <use fill="#FFFFFF" fill-rule="evenodd" xlink:href="#path-11"></use>
                            <rect stroke="#F5F6F8" stroke-width="1.35" x="0.675" y="0.675" width="201.15" height="74.65"></rect>
                        </g>
                    </g>
                    <g id="Group-20" transform="translate(17.000000, 14.000000)" stroke-linecap="square">
                        <g id="Group-15" transform="translate(1.000000, 17.000000)" stroke="#CAD0D9" stroke-width="5.5">
                            <path d="M0.20484,14.0284364 L134.788617,14.0284364" id="Line-2"></path>
                            <path d="M0.20484,27.8085818 L121.414255,27.8085818" id="Line-2-Copy-4"></path>
                            <path d="M0.744872727,0.993163636 L97.5783273,0.993163636" id="Line-2-Copy-2"></path>
                        </g>
                        <path d="M0.978150139,1.27 L40.9781501,1.27" id="Line-2-Copy" stroke="#F5F6F8" stroke-width="4.5"></path>
                        <path d="M117.97815,1.27 L167.97815,1.27" id="Line-2-Copy-3" stroke="#F5F6F8" stroke-width="4.5"></path>
                    </g>
                </g>
            </g>
            <g id="Group-8" mask="url(#mask-9)">
                <g transform="translate(61.000000, 198.000000)" id="Group-19">
                    <g>
                        <g id="Rectangle-25">
                            <use fill="#FFFFFF" fill-rule="evenodd" xlink:href="#path-12"></use>
                            <rect stroke="#F6F6F7" stroke-width="1.35" x="0.675" y="0.675" width="200.65" height="16.65"></rect>
                        </g>
                        <path d="M100.05,15.25 L100.05,3.35" id="Line-Copy" stroke="#EDEDED" stroke-width="0.7" stroke-linecap="square"></path>
                        <g id="Group-2" transform="translate(148.700000, 4.400000)" fill-rule="nonzero" stroke="#E3E7ED" stroke-width="0.5">
                            <g id="flag">
                                <path d="M6.9554074,0.504524029 C6.88179757,0.474855579 5.13376454,-0.209443224 3.77366654,0.51174068 C2.69598012,1.08378048 0.804255565,0.654630352 0.320740006,0.53050397 L0.320740006,0.160370003 C0.320740006,0.0716853913 0.249054615,0 0.160370003,0 C0.0716853913,0 0,0.0716853913 0,0.160370003 L0,0.641480012 C0,0.643725192 0.00112259002,0.645649632 0.00128296002,0.647894812 C0.00128296002,0.649819252 0,0.651422952 0,0.653347392 L0,5.2922101 L0,5.46444748 L0,9.46183018 C0,9.55051479 0.0716853913,9.62220018 0.160370003,9.62220018 C0.249054615,9.62220018 0.320740006,9.55051479 0.320740006,9.46183018 L0.320740006,5.67308886 C0.685261023,5.76401865 1.47973402,5.9348127 2.3041962,5.9348127 C2.8746323,5.9348127 3.45886022,5.85286363 3.9240936,5.60621457 C5.15124487,4.95495198 6.81973438,5.60685605 6.83641286,5.61343122 C6.88596719,5.6333171 6.94177595,5.62722304 6.9858777,5.59707348 C7.02981908,5.56740502 7.05628013,5.51769032 7.05628013,5.46444748 L7.05628013,0.653347392 C7.05628013,0.587756061 7.016348,0.52890027 6.9554074,0.504524029 Z M6.73554013,5.23848615 C6.21273392,5.07202209 4.86787107,4.74198062 3.77366654,5.3226804 C2.69614049,5.89455983 0.805057415,5.46573044 0.320740006,5.34160406 L0.320740006,5.2922101 L0.320740006,0.861988766 C0.938645628,1.01610434 2.78739102,1.39810569 3.9240936,0.795114475 C4.97708304,0.236545754 6.35498211,0.637150022 6.73554013,0.766087504 L6.73554013,5.23848615 Z" id="Shape"></path>
                            </g>
                        </g>
                        <g id="Group-6" transform="translate(43.000000, 3.700000)" fill="#E3E7ED" fill-rule="nonzero">
                            <g id="like">
                                <path d="M9.5058851,6.96528079 C9.71248894,6.69746778 9.81157446,6.41037223 9.79892524,6.11470667 C9.78627603,5.78904604 9.64291826,5.53408806 9.52485892,5.37768526 C9.66189208,5.0305996 9.71459714,4.48426105 9.2571172,4.06004525 C8.921913,3.74938215 8.35269833,3.61011939 7.56423059,3.64868446 C7.00977333,3.67439451 6.54596878,3.77937721 6.52699496,3.78366222 L6.52488675,3.78366222 C6.41947663,3.80294475 6.3077419,3.8265123 6.19389896,3.85222235 C6.18546615,3.71510209 6.20865638,3.37444394 6.45742427,2.60742747 C6.75257262,1.69472073 6.735707,0.996264401 6.40261101,0.52919851 C6.05264939,0.0385650736 5.49397573,0 5.32953593,0 C5.17142075,0 5.02595477,0.0664176267 4.92265285,0.18854036 C4.68864237,0.464923387 4.716049,0.97483936 4.74556384,1.21051481 C4.46728111,1.96896126 3.68724618,3.8286548 3.0273788,4.34499829 C3.01472958,4.35356831 3.00418857,4.36428083 2.99364756,4.37499335 C2.79969293,4.58281624 2.66898437,4.80777917 2.58043987,5.00488955 C2.45605592,4.93632942 2.31480635,4.89776434 2.16301577,4.89776434 L0.877012242,4.89776434 C0.392125666,4.89776434 0,5.29841261 0,5.78904604 L0,9.27061519 C0,9.76339113 0.394233868,10.1618969 0.877012242,10.1618969 L2.16301577,10.1618969 C2.35064579,10.1618969 2.5256266,10.1019068 2.66898437,9.99906658 L3.16441196,10.0590567 C3.24030725,10.0697692 4.58955685,10.243312 5.9746459,10.2154595 C6.225522,10.234742 6.46164068,10.2454545 6.68089374,10.2454545 C7.05826199,10.2454545 7.38714158,10.2154595 7.6612079,10.1554694 C8.30631787,10.0162066 8.74693219,9.73768108 8.97040166,9.3284628 C9.14116606,9.0156572 9.14116606,8.70499411 9.11375943,8.50788373 C9.53329173,8.12223299 9.60707882,7.69587468 9.5923214,7.39592411 C9.58388859,7.22238128 9.54594094,7.0745485 9.5058851,6.96528079 Z M0.877012242,9.58342078 C0.706247839,9.58342078 0.569214676,9.44201551 0.569214676,9.27061519 L0.569214676,5.78690354 C0.569214676,5.61336071 0.708356042,5.47409794 0.877012242,5.47409794 L2.16301577,5.47409794 C2.33378017,5.47409794 2.47081334,5.61550321 2.47081334,5.78690354 L2.47081334,9.26847268 C2.47081334,9.44201551 2.33167197,9.58127828 2.16301577,9.58127828 L0.877012242,9.58127828 L0.877012242,9.58342078 Z M8.96618525,6.71460781 C8.87764075,6.80887799 8.86077513,6.95242576 8.92823761,7.06383598 C8.92823761,7.06597848 9.01467391,7.21595377 9.02521492,7.42163416 C9.03997234,7.70230219 8.90715558,7.95083267 8.62887285,8.16294057 C8.52978734,8.24007072 8.48973149,8.37290597 8.53189554,8.4928862 C8.53189554,8.49502871 8.62254825,8.77783925 8.47497407,9.04565226 C8.3337245,9.30275275 8.01960233,9.4870081 7.54314856,9.58984829 C7.16156391,9.67340595 6.64294609,9.68840348 6.00626894,9.63698338 C5.99783613,9.63698338 5.98729511,9.63698338 5.9767541,9.63698338 C4.62117989,9.66697844 3.25084826,9.4870081 3.23609085,9.48486559 L3.23398264,9.48486559 L3.02105419,9.45915555 C3.0337034,9.39916543 3.04002801,9.33489031 3.04002801,9.27061519 L3.04002801,5.78690354 C3.04002801,5.69477586 3.02527059,5.60479069 2.99997216,5.52123303 C3.03791981,5.37768526 3.14332994,5.05845215 3.39209783,4.78635413 C4.33868076,4.02362268 5.26418166,1.45047527 5.3042375,1.33906505 C5.32110312,1.29407247 5.32531953,1.24479487 5.31688672,1.19551728 C5.28104728,0.955556823 5.29369649,0.662033763 5.34429335,0.574191095 C5.45602808,0.576333599 5.75750104,0.608471161 5.93880646,0.863429147 C6.15384311,1.16552222 6.1454103,1.70543325 5.91350803,2.42102962 C5.55933001,3.5115642 5.52981517,4.08575529 5.8102061,4.33857078 C5.94934747,4.46497852 6.13486929,4.47140603 6.26979425,4.42212844 C6.3983946,4.39213338 6.52067035,4.36642333 6.63662149,4.34714079 C6.6450543,4.34499829 6.65559531,4.34285578 6.66402812,4.34071328 C7.31124629,4.19716551 8.47075767,4.10932284 8.87342434,4.48211855 C9.21495315,4.79920916 8.97250986,5.21913996 8.94510323,5.26413254 C8.86709974,5.38411277 8.89028996,5.54051557 8.99570009,5.63692825 C8.99780829,5.63907076 9.21916956,5.85117866 9.22971057,6.13613171 C9.23814338,6.32681457 9.14959887,6.52178244 8.96618525,6.71460781 Z" id="Shape"></path>
                            </g>
                        </g>
                    </g>
                </g>
            </g>
            <g id="Group-8" mask="url(#mask-9)">
                <g transform="translate(61.000000, 300.000000)" id="Group-19">
                    <g>
                        <g id="Rectangle-25">
                            <use fill="#FFFFFF" fill-rule="evenodd" xlink:href="#path-13"></use>
                            <rect stroke="#F6F6F7" stroke-width="1.35" x="0.675" y="0.675" width="200.65" height="16.65"></rect>
                        </g>
                        <path d="M100.05,15.25 L100.05,3.35" id="Line-Copy" stroke="#EDEDED" stroke-width="0.7" stroke-linecap="square"></path>
                        <g id="Group-2" transform="translate(148.700000, 4.400000)" fill-rule="nonzero" stroke="#E3E7ED" stroke-width="0.5">
                            <g id="flag">
                                <path d="M6.9554074,0.504524029 C6.88179757,0.474855579 5.13376454,-0.209443224 3.77366654,0.51174068 C2.69598012,1.08378048 0.804255565,0.654630352 0.320740006,0.53050397 L0.320740006,0.160370003 C0.320740006,0.0716853913 0.249054615,0 0.160370003,0 C0.0716853913,0 0,0.0716853913 0,0.160370003 L0,0.641480012 C0,0.643725192 0.00112259002,0.645649632 0.00128296002,0.647894812 C0.00128296002,0.649819252 0,0.651422952 0,0.653347392 L0,5.2922101 L0,5.46444748 L0,9.46183018 C0,9.55051479 0.0716853913,9.62220018 0.160370003,9.62220018 C0.249054615,9.62220018 0.320740006,9.55051479 0.320740006,9.46183018 L0.320740006,5.67308886 C0.685261023,5.76401865 1.47973402,5.9348127 2.3041962,5.9348127 C2.8746323,5.9348127 3.45886022,5.85286363 3.9240936,5.60621457 C5.15124487,4.95495198 6.81973438,5.60685605 6.83641286,5.61343122 C6.88596719,5.6333171 6.94177595,5.62722304 6.9858777,5.59707348 C7.02981908,5.56740502 7.05628013,5.51769032 7.05628013,5.46444748 L7.05628013,0.653347392 C7.05628013,0.587756061 7.016348,0.52890027 6.9554074,0.504524029 Z M6.73554013,5.23848615 C6.21273392,5.07202209 4.86787107,4.74198062 3.77366654,5.3226804 C2.69614049,5.89455983 0.805057415,5.46573044 0.320740006,5.34160406 L0.320740006,5.2922101 L0.320740006,0.861988766 C0.938645628,1.01610434 2.78739102,1.39810569 3.9240936,0.795114475 C4.97708304,0.236545754 6.35498211,0.637150022 6.73554013,0.766087504 L6.73554013,5.23848615 Z" id="Shape"></path>
                            </g>
                        </g>
                        <g id="Group-6" transform="translate(43.000000, 3.700000)" fill="#E3E7ED" fill-rule="nonzero">
                            <g id="like">
                                <path d="M9.5058851,6.96528079 C9.71248894,6.69746778 9.81157446,6.41037223 9.79892524,6.11470667 C9.78627603,5.78904604 9.64291826,5.53408806 9.52485892,5.37768526 C9.66189208,5.0305996 9.71459714,4.48426105 9.2571172,4.06004525 C8.921913,3.74938215 8.35269833,3.61011939 7.56423059,3.64868446 C7.00977333,3.67439451 6.54596878,3.77937721 6.52699496,3.78366222 L6.52488675,3.78366222 C6.41947663,3.80294475 6.3077419,3.8265123 6.19389896,3.85222235 C6.18546615,3.71510209 6.20865638,3.37444394 6.45742427,2.60742747 C6.75257262,1.69472073 6.735707,0.996264401 6.40261101,0.52919851 C6.05264939,0.0385650736 5.49397573,0 5.32953593,0 C5.17142075,0 5.02595477,0.0664176267 4.92265285,0.18854036 C4.68864237,0.464923387 4.716049,0.97483936 4.74556384,1.21051481 C4.46728111,1.96896126 3.68724618,3.8286548 3.0273788,4.34499829 C3.01472958,4.35356831 3.00418857,4.36428083 2.99364756,4.37499335 C2.79969293,4.58281624 2.66898437,4.80777917 2.58043987,5.00488955 C2.45605592,4.93632942 2.31480635,4.89776434 2.16301577,4.89776434 L0.877012242,4.89776434 C0.392125666,4.89776434 0,5.29841261 0,5.78904604 L0,9.27061519 C0,9.76339113 0.394233868,10.1618969 0.877012242,10.1618969 L2.16301577,10.1618969 C2.35064579,10.1618969 2.5256266,10.1019068 2.66898437,9.99906658 L3.16441196,10.0590567 C3.24030725,10.0697692 4.58955685,10.243312 5.9746459,10.2154595 C6.225522,10.234742 6.46164068,10.2454545 6.68089374,10.2454545 C7.05826199,10.2454545 7.38714158,10.2154595 7.6612079,10.1554694 C8.30631787,10.0162066 8.74693219,9.73768108 8.97040166,9.3284628 C9.14116606,9.0156572 9.14116606,8.70499411 9.11375943,8.50788373 C9.53329173,8.12223299 9.60707882,7.69587468 9.5923214,7.39592411 C9.58388859,7.22238128 9.54594094,7.0745485 9.5058851,6.96528079 Z M0.877012242,9.58342078 C0.706247839,9.58342078 0.569214676,9.44201551 0.569214676,9.27061519 L0.569214676,5.78690354 C0.569214676,5.61336071 0.708356042,5.47409794 0.877012242,5.47409794 L2.16301577,5.47409794 C2.33378017,5.47409794 2.47081334,5.61550321 2.47081334,5.78690354 L2.47081334,9.26847268 C2.47081334,9.44201551 2.33167197,9.58127828 2.16301577,9.58127828 L0.877012242,9.58127828 L0.877012242,9.58342078 Z M8.96618525,6.71460781 C8.87764075,6.80887799 8.86077513,6.95242576 8.92823761,7.06383598 C8.92823761,7.06597848 9.01467391,7.21595377 9.02521492,7.42163416 C9.03997234,7.70230219 8.90715558,7.95083267 8.62887285,8.16294057 C8.52978734,8.24007072 8.48973149,8.37290597 8.53189554,8.4928862 C8.53189554,8.49502871 8.62254825,8.77783925 8.47497407,9.04565226 C8.3337245,9.30275275 8.01960233,9.4870081 7.54314856,9.58984829 C7.16156391,9.67340595 6.64294609,9.68840348 6.00626894,9.63698338 C5.99783613,9.63698338 5.98729511,9.63698338 5.9767541,9.63698338 C4.62117989,9.66697844 3.25084826,9.4870081 3.23609085,9.48486559 L3.23398264,9.48486559 L3.02105419,9.45915555 C3.0337034,9.39916543 3.04002801,9.33489031 3.04002801,9.27061519 L3.04002801,5.78690354 C3.04002801,5.69477586 3.02527059,5.60479069 2.99997216,5.52123303 C3.03791981,5.37768526 3.14332994,5.05845215 3.39209783,4.78635413 C4.33868076,4.02362268 5.26418166,1.45047527 5.3042375,1.33906505 C5.32110312,1.29407247 5.32531953,1.24479487 5.31688672,1.19551728 C5.28104728,0.955556823 5.29369649,0.662033763 5.34429335,0.574191095 C5.45602808,0.576333599 5.75750104,0.608471161 5.93880646,0.863429147 C6.15384311,1.16552222 6.1454103,1.70543325 5.91350803,2.42102962 C5.55933001,3.5115642 5.52981517,4.08575529 5.8102061,4.33857078 C5.94934747,4.46497852 6.13486929,4.47140603 6.26979425,4.42212844 C6.3983946,4.39213338 6.52067035,4.36642333 6.63662149,4.34714079 C6.6450543,4.34499829 6.65559531,4.34285578 6.66402812,4.34071328 C7.31124629,4.19716551 8.47075767,4.10932284 8.87342434,4.48211855 C9.21495315,4.79920916 8.97250986,5.21913996 8.94510323,5.26413254 C8.86709974,5.38411277 8.89028996,5.54051557 8.99570009,5.63692825 C8.99780829,5.63907076 9.21916956,5.85117866 9.22971057,6.13613171 C9.23814338,6.32681457 9.14959887,6.52178244 8.96618525,6.71460781 Z" id="Shape"></path>
                            </g>
                        </g>
                    </g>
                </g>
            </g>
            <g id="Group-8" mask="url(#mask-9)">
                <g transform="translate(61.000000, 366.000000)" id="Group-19">
                    <g>
                        <g id="Rectangle-25">
                            <use fill="#FFFFFF" fill-rule="evenodd" xlink:href="#path-14"></use>
                            <rect stroke="#F6F6F7" stroke-width="1.35" x="0.675" y="0.675" width="200.65" height="16.65"></rect>
                        </g>
                        <path d="M100.05,15.25 L100.05,3.35" id="Line-Copy" stroke="#EDEDED" stroke-width="0.7" stroke-linecap="square"></path>
                        <g id="Group-2" transform="translate(148.700000, 4.400000)" fill-rule="nonzero" stroke="#E3E7ED" stroke-width="0.5">
                            <g id="flag">
                                <path d="M6.9554074,0.504524029 C6.88179757,0.474855579 5.13376454,-0.209443224 3.77366654,0.51174068 C2.69598012,1.08378048 0.804255565,0.654630352 0.320740006,0.53050397 L0.320740006,0.160370003 C0.320740006,0.0716853913 0.249054615,0 0.160370003,0 C0.0716853913,0 0,0.0716853913 0,0.160370003 L0,0.641480012 C0,0.643725192 0.00112259002,0.645649632 0.00128296002,0.647894812 C0.00128296002,0.649819252 0,0.651422952 0,0.653347392 L0,5.2922101 L0,5.46444748 L0,9.46183018 C0,9.55051479 0.0716853913,9.62220018 0.160370003,9.62220018 C0.249054615,9.62220018 0.320740006,9.55051479 0.320740006,9.46183018 L0.320740006,5.67308886 C0.685261023,5.76401865 1.47973402,5.9348127 2.3041962,5.9348127 C2.8746323,5.9348127 3.45886022,5.85286363 3.9240936,5.60621457 C5.15124487,4.95495198 6.81973438,5.60685605 6.83641286,5.61343122 C6.88596719,5.6333171 6.94177595,5.62722304 6.9858777,5.59707348 C7.02981908,5.56740502 7.05628013,5.51769032 7.05628013,5.46444748 L7.05628013,0.653347392 C7.05628013,0.587756061 7.016348,0.52890027 6.9554074,0.504524029 Z M6.73554013,5.23848615 C6.21273392,5.07202209 4.86787107,4.74198062 3.77366654,5.3226804 C2.69614049,5.89455983 0.805057415,5.46573044 0.320740006,5.34160406 L0.320740006,5.2922101 L0.320740006,0.861988766 C0.938645628,1.01610434 2.78739102,1.39810569 3.9240936,0.795114475 C4.97708304,0.236545754 6.35498211,0.637150022 6.73554013,0.766087504 L6.73554013,5.23848615 Z" id="Shape"></path>
                            </g>
                        </g>
                        <g id="Group-6" transform="translate(43.000000, 3.700000)" fill="#E3E7ED" fill-rule="nonzero">
                            <g id="like">
                                <path d="M9.5058851,6.96528079 C9.71248894,6.69746778 9.81157446,6.41037223 9.79892524,6.11470667 C9.78627603,5.78904604 9.64291826,5.53408806 9.52485892,5.37768526 C9.66189208,5.0305996 9.71459714,4.48426105 9.2571172,4.06004525 C8.921913,3.74938215 8.35269833,3.61011939 7.56423059,3.64868446 C7.00977333,3.67439451 6.54596878,3.77937721 6.52699496,3.78366222 L6.52488675,3.78366222 C6.41947663,3.80294475 6.3077419,3.8265123 6.19389896,3.85222235 C6.18546615,3.71510209 6.20865638,3.37444394 6.45742427,2.60742747 C6.75257262,1.69472073 6.735707,0.996264401 6.40261101,0.52919851 C6.05264939,0.0385650736 5.49397573,0 5.32953593,0 C5.17142075,0 5.02595477,0.0664176267 4.92265285,0.18854036 C4.68864237,0.464923387 4.716049,0.97483936 4.74556384,1.21051481 C4.46728111,1.96896126 3.68724618,3.8286548 3.0273788,4.34499829 C3.01472958,4.35356831 3.00418857,4.36428083 2.99364756,4.37499335 C2.79969293,4.58281624 2.66898437,4.80777917 2.58043987,5.00488955 C2.45605592,4.93632942 2.31480635,4.89776434 2.16301577,4.89776434 L0.877012242,4.89776434 C0.392125666,4.89776434 0,5.29841261 0,5.78904604 L0,9.27061519 C0,9.76339113 0.394233868,10.1618969 0.877012242,10.1618969 L2.16301577,10.1618969 C2.35064579,10.1618969 2.5256266,10.1019068 2.66898437,9.99906658 L3.16441196,10.0590567 C3.24030725,10.0697692 4.58955685,10.243312 5.9746459,10.2154595 C6.225522,10.234742 6.46164068,10.2454545 6.68089374,10.2454545 C7.05826199,10.2454545 7.38714158,10.2154595 7.6612079,10.1554694 C8.30631787,10.0162066 8.74693219,9.73768108 8.97040166,9.3284628 C9.14116606,9.0156572 9.14116606,8.70499411 9.11375943,8.50788373 C9.53329173,8.12223299 9.60707882,7.69587468 9.5923214,7.39592411 C9.58388859,7.22238128 9.54594094,7.0745485 9.5058851,6.96528079 Z M0.877012242,9.58342078 C0.706247839,9.58342078 0.569214676,9.44201551 0.569214676,9.27061519 L0.569214676,5.78690354 C0.569214676,5.61336071 0.708356042,5.47409794 0.877012242,5.47409794 L2.16301577,5.47409794 C2.33378017,5.47409794 2.47081334,5.61550321 2.47081334,5.78690354 L2.47081334,9.26847268 C2.47081334,9.44201551 2.33167197,9.58127828 2.16301577,9.58127828 L0.877012242,9.58127828 L0.877012242,9.58342078 Z M8.96618525,6.71460781 C8.87764075,6.80887799 8.86077513,6.95242576 8.92823761,7.06383598 C8.92823761,7.06597848 9.01467391,7.21595377 9.02521492,7.42163416 C9.03997234,7.70230219 8.90715558,7.95083267 8.62887285,8.16294057 C8.52978734,8.24007072 8.48973149,8.37290597 8.53189554,8.4928862 C8.53189554,8.49502871 8.62254825,8.77783925 8.47497407,9.04565226 C8.3337245,9.30275275 8.01960233,9.4870081 7.54314856,9.58984829 C7.16156391,9.67340595 6.64294609,9.68840348 6.00626894,9.63698338 C5.99783613,9.63698338 5.98729511,9.63698338 5.9767541,9.63698338 C4.62117989,9.66697844 3.25084826,9.4870081 3.23609085,9.48486559 L3.23398264,9.48486559 L3.02105419,9.45915555 C3.0337034,9.39916543 3.04002801,9.33489031 3.04002801,9.27061519 L3.04002801,5.78690354 C3.04002801,5.69477586 3.02527059,5.60479069 2.99997216,5.52123303 C3.03791981,5.37768526 3.14332994,5.05845215 3.39209783,4.78635413 C4.33868076,4.02362268 5.26418166,1.45047527 5.3042375,1.33906505 C5.32110312,1.29407247 5.32531953,1.24479487 5.31688672,1.19551728 C5.28104728,0.955556823 5.29369649,0.662033763 5.34429335,0.574191095 C5.45602808,0.576333599 5.75750104,0.608471161 5.93880646,0.863429147 C6.15384311,1.16552222 6.1454103,1.70543325 5.91350803,2.42102962 C5.55933001,3.5115642 5.52981517,4.08575529 5.8102061,4.33857078 C5.94934747,4.46497852 6.13486929,4.47140603 6.26979425,4.42212844 C6.3983946,4.39213338 6.52067035,4.36642333 6.63662149,4.34714079 C6.6450543,4.34499829 6.65559531,4.34285578 6.66402812,4.34071328 C7.31124629,4.19716551 8.47075767,4.10932284 8.87342434,4.48211855 C9.21495315,4.79920916 8.97250986,5.21913996 8.94510323,5.26413254 C8.86709974,5.38411277 8.89028996,5.54051557 8.99570009,5.63692825 C8.99780829,5.63907076 9.21916956,5.85117866 9.22971057,6.13613171 C9.23814338,6.32681457 9.14959887,6.52178244 8.96618525,6.71460781 Z" id="Shape"></path>
                            </g>
                        </g>
                    </g>
                </g>
            </g>
            <g id="Group-2" mask="url(#mask-9)">
                <g transform="translate(53.000000, 415.000000)">
                    <g id="Group-4" stroke-width="1" fill="none" fill-rule="evenodd">
                        <g id="Group-12" fill="#1D1D26">
                            <g id="Group-14" transform="translate(0.100000, 0.700000)">
                                <rect id="Rectangle-4" x="0" y="0" width="216.27" height="40"></rect>
                            </g>
                        </g>
                        <g id="icon_ios_page_filled" transform="translate(25.000000, 3.000000)">
                            <rect id="@bounds" x="0" y="0" width="30" height="30"></rect>
                            <path d="M21.0416667,12.0833333 L15.8333333,6.875 L15.8333333,12.0833333 L21.0416667,12.0833333 Z M7.91666667,5.41666667 L15.4166667,5.41666667 L22.0833333,12.0833333 L22.0833333,24.1666667 L7.91666667,24.1666667 L7.91666667,5.41666667 Z" id="Rectangle-166" fill="#EDEEEF" opacity="0.25"></path>
                        </g>
                        <g id="icon_ios_chat_filled" transform="translate(162.000000, 3.000000)">
                            <rect id="@bounds" x="0" y="0" width="30" height="30"></rect>
                            <path d="M8.41304433,19.2461216 C9.03525824,19.821672 11.0597646,21.1217848 8.13906689,23.0848265 C9.36064248,23.5277815 11.1848573,23.1314341 12.6488376,21.930666 C13.171191,21.5022275 14.344945,21.6666667 15,21.6666667 C19.8324916,21.6666667 23.75,18.4953503 23.75,14.5833333 C23.75,10.6713164 19.8324916,7.5 15,7.5 C10.1675084,7.5 6.25,10.6713164 6.25,14.5833333 C6.25,16.3689669 7.06619359,18.0002792 8.41304433,19.2461216 Z" id="Oval-19" fill="url(#linearGradient-15)"></path>
                        </g>
                        <g id="icon_ios_topcharts_filled" transform="translate(118.000000, 4.000000)">
                            <rect id="@bounds" x="0" y="0" width="28" height="28"></rect>
                            <path d="M5.05555556,5.05555556 L22.9444444,5.05555556 L22.9444444,22.9444444 L5.05555556,22.9444444 L5.05555556,5.05555556 Z M10.2701904,10.8888889 L9.93057673,9.70497662 L10.8888889,8.93911492 L9.70841667,8.93911492 L9.34849393,7.77777778 L8.9585356,8.93911492 L7.77777778,8.93911492 L8.7172434,9.68793771 L8.34741797,10.8618874 L9.31799714,10.1578984 L10.2701904,10.8888889 Z M10.2701904,15.5555556 L9.93057673,14.3716433 L10.8888889,13.6057816 L9.70841667,13.6057816 L9.34849393,12.4444444 L8.9585356,13.6057816 L7.77777778,13.6057816 L8.7172434,14.3546044 L8.34741797,15.528554 L9.31799714,14.8245651 L10.2701904,15.5555556 Z M10.2701904,20.2222222 L9.93057673,19.03831 L10.8888889,18.2724483 L9.70841667,18.2724483 L9.34849393,17.1111111 L8.9585356,18.2724483 L7.77777778,18.2724483 L8.7172434,19.021271 L8.34741797,20.1952207 L9.31799714,19.4912318 L10.2701904,20.2222222 Z M12.0555556,8.94444444 L12.0555556,9.72222222 L20.6111111,9.72222222 L20.6111111,8.94444444 L12.0555556,8.94444444 Z M12.0555556,13.6111111 L12.0555556,14.3888889 L20.6111111,14.3888889 L20.6111111,13.6111111 L12.0555556,13.6111111 Z M12.0555556,18.2777778 L12.0555556,19.0555556 L20.6111111,19.0555556 L20.6111111,18.2777778 L12.0555556,18.2777778 Z" id="Rectangle-205" fill="#EDEEEF" opacity="0.25"></path>
                        </g>
                    </g>
                    <path d="M94.9984345,14.5297337 L77,14.5297337 L77,26.2954952 L94.9984345,26.2954952 L94.9984345,14.5297337 Z M94.9676737,13.0028759 C94.9642286,12.2791232 94.5098807,12.1834936 93.6002059,12.1392294 L86.3114236,12.1392294 C85.7186432,12.1392294 84.8899057,11.7995197 84.4701889,11.3845092 L83.8329125,10.754934 C83.4129818,10.3397096 82.7973162,10 81.9916778,10 L78.5092263,10 C77.7566266,10 77,10.5633038 77,11.1625792 L77,13.8506129 L95,13.8506129 L94.9676737,13.0028759 Z" id="Notes" fill="#EDEEEF" fill-rule="nonzero" opacity="0.25"></path>
                </g>
            </g>
        </g>
    </g>
</svg>