<?xml version="1.0" encoding="UTF-8"?>
<svg width="1920px" height="1000px" viewBox="0 0 1920 1000" version="1.1" xmlns="http://www.w3.org/2000/svg" xmlns:xlink="http://www.w3.org/1999/xlink">
    <!-- Generator: Sketch 48.2 (47327) - http://www.bohemiancoding.com/sketch -->
    <title>tender-diagram2</title>
    <desc>Created with Sketch.</desc>
    <defs></defs>
    <g id="Page-1" stroke="none" stroke-width="1" fill="none" fill-rule="evenodd">
        <g id="tender-diagram2">
            <g id="estate" transform="translate(85.000000, 402.000000)">
                <path d="M98.4860139,0.00266942471 C152.317492,-0.399365227 197.255882,44.6640698 196.998903,98.9606272 C196.744659,152.417561 152.314758,197.1446 98.1688918,196.999649 C44.6381332,196.860167 -0.43694719,152.220646 0.0031964258,97.6177768 C0.429670985,44.4015166 44.6189965,-0.330991987 98.4860139,0.00266942471" id="Fill-4" fill="#C5EFFD"></path>
                <path d="M106.454113,147.782417 L95.8177283,147.782417 C93.687731,145.669539 93.5598768,142.91979 93.543555,140.194641 C93.4429038,122.53174 93.4646662,104.868839 93.5299535,87.2059384 C93.5381144,84.4698562 93.7040528,81.7474406 95.5402574,79.4814944 C95.5919431,69.9393732 95.8095673,60.3917854 95.6300273,50.8523976 C95.5348167,45.8777026 97.4118258,43.9178914 102.400861,44.0026252 C114.383796,44.204893 126.374892,44.1912263 138.360547,44.0080919 C143.102035,43.9370248 144.723335,45.9296362 144.709734,50.5271291 C144.609082,80.755235 144.535634,110.980607 144.734216,141.203247 C144.796783,150.234231 138.697864,147.58835 133.89925,147.782417 C131.937911,145.535605 129.103355,144.253664 127.337879,141.78545 C125.91516,138.070829 126.622439,134.167606 126.35857,130.351851 C126.100141,126.626297 124.051753,125.284222 120.580646,125.267822 C117.066015,125.248689 114.321229,125.956626 114.005674,130.239784 C113.725483,134.055539 114.430041,137.956028 113.078051,141.687049 C111.386022,144.280998 108.439934,145.502804 106.454113,147.782417" id="Fill-6" fill="#6875E1"></path>
                <path d="M95.2067123,79 C95.2993728,101.599088 95.389308,124.195463 95.4846939,146.791838 C81.2040705,146.843385 66.9234472,146.789125 52.6455491,146.998024 C47.9552909,147.068562 46.2083673,145.256294 46.2465217,140.60354 C46.3964137,122.326223 46.4154909,104.043479 46.2356204,85.7688745 C46.1865649,80.7688602 48.0806552,78.9891481 53.0461696,79.0488336 C67.097867,79.2143251 81.1522896,79.0406946 95.2067123,79" id="Fill-8" fill="#88BBFA"></path>
                <path d="M128.182312,142.115608 C131.998432,141.804692 133.746478,143.512224 133.676556,147 L106.544188,147 C106.452751,143.492164 108.219623,141.799678 112.038432,142.115608 C117.419725,139.294797 122.801019,139.294797 128.182312,142.115608" id="Fill-10" fill="#88BBFA"></path>
                <path d="M128.653061,141 L112.571429,141 C112.576786,136.322511 112.633044,131.642318 112.574108,126.967532 C112.496418,120.665088 117.130972,122.157559 120.594832,122.146744 C124.077444,122.135929 128.685208,120.719163 128.645024,126.967532 C128.610198,131.642318 128.647703,136.322511 128.653061,141" id="Fill-12" fill="#C5EFFD"></path>
                <path d="M117.44825,62.0926349 C118.218181,67.1784356 115.95547,68.9378478 110.856754,68.9983276 C105.530936,69.0615564 103.553487,67.3433805 103.525791,61.894701 C103.495326,56.2205968 105.940827,54.9972555 111.042313,55.0000046 C116.345975,55.0000046 118.16279,57.2020189 117.44825,62.0926349" id="Fill-14" fill="#88BBFA"></path>
                <path d="M129.36242,68.8439895 C123.362902,69.7983442 122.743026,66.2567508 122.626799,61.4298127 C122.496735,55.9077956 125.291714,55.1823757 129.904812,55.0113642 C135.799173,54.7934625 136.645968,57.7227243 136.693012,62.6296516 C136.748358,68.0799542 134.147091,69.4894201 129.36242,68.8439895" id="Fill-16" fill="#88BBFA"></path>
                <path d="M110.856603,90.8003411 C105.588589,91.6860695 103.522755,89.6532955 103.525513,84.1326224 C103.531029,78.8210033 105.185903,76.8817534 110.616646,77.0055353 C115.432328,77.112813 117.718812,78.2983686 117.591938,83.5632257 C117.476097,88.3659636 116.880343,91.870367 110.856603,90.8003411" id="Fill-18" fill="#C5EFFD"></path>
                <path d="M136.546444,84.0872014 C137.313674,89.1648013 135.064609,90.9379751 129.957124,90.9984554 C124.639136,91.0589358 122.65043,89.3544897 122.622732,83.9002622 C122.592264,78.2343534 125.024136,76.9972555 130.13439,77.0000046 C135.43576,77.0000046 137.258279,79.1965408 136.546444,84.0872014" id="Fill-20" fill="#88BBFA"></path>
                <path d="M110.650145,98.2183724 C116.446442,97.1624823 117.554963,100.222914 117.596325,105.254889 C117.634931,110.295114 115.856333,111.988938 110.810081,111.999937 C105.634225,112.010936 103.450274,110.589334 103.527484,105.040412 C103.599179,99.7664611 105.124085,97.203728 110.650145,98.2183724" id="Fill-22" fill="#C5EFFD"></path>
                <path d="M136.489053,105.070547 C137.520923,110.790396 134.508306,111.87127 129.420884,111.99472 C123.628028,112.13463 122.684684,109.490057 122.623823,104.557544 C122.560195,99.3314948 124.704161,98.0421283 129.578569,98.0009783 C134.881771,97.9543417 137.471127,99.5646781 136.489053,105.070547" id="Fill-24" fill="#C5EFFD"></path>
                <path d="M68.1341201,93.5020619 C69.0709237,99.1687755 66.6762541,101.04852 61.2466736,100.999053 C56.2466924,100.949586 54.3148814,99.361147 54.2760789,94.2440661 C54.240048,88.9648435 55.9085562,86.8267721 61.4323714,87.0108991 C66.2688277,87.1702926 69.181788,88.2942915 68.1341201,93.5020619" id="Fill-26" fill="#C5EFFD"></path>
                <path d="M74.5639037,94.1884832 C73.6615161,88.8281339 76.047584,86.9488521 81.4785182,87.0010544 C86.4637947,87.0477617 88.4180452,88.6165774 88.4484939,93.7406427 C88.4817106,99.0020824 86.8181064,101.128638 81.3041304,100.994011 C76.3880554,100.875869 73.7473259,99.5103677 74.5639037,94.1884832" id="Fill-28" fill="#C5EFFD"></path>
                <path d="M60.9260719,122.847057 C54.31046,123.757523 54.4521635,119.587088 54.2854535,115.087335 C54.0631733,109.234336 57.5974272,109.234336 61.9013259,109.018481 C68.1585112,108.705767 68.2251952,112.402981 68.3418923,116.969151 C68.4947099,122.775105 65.1577296,123.378393 60.9260719,122.847057" id="Fill-30" fill="#C5EFFD"></path>
            </g>
            <g id="arrows1" transform="translate(1104.460258, 296.525073) scale(-1, 1) rotate(36.000000) translate(-1104.460258, -296.525073) translate(894.460258, 286.525073)">
                <polygon id="Triangle" fill="#AFF1B6" transform="translate(10.000000, 10.000000) rotate(90.000000) translate(-10.000000, -10.000000) " points="10 0 20 20 0 20"></polygon>
                <polygon id="Triangle-Copy" fill="#AFF1C3" transform="translate(50.000000, 10.000000) rotate(90.000000) translate(-50.000000, -10.000000) " points="50 0 60 20 40 20"></polygon>
                <polygon id="Triangle-Copy-2" fill="#AFF1C5" transform="translate(90.000000, 10.000000) rotate(90.000000) translate(-90.000000, -10.000000) " points="90 0 100 20 80 20"></polygon>
                <polygon id="Triangle-Copy-3" fill="#AFF1C6" transform="translate(130.000000, 10.000000) rotate(90.000000) translate(-130.000000, -10.000000) " points="130 0 140 20 120 20"></polygon>
                <polygon id="Triangle-Copy-4" fill="#AFF1CA" transform="translate(170.000000, 10.000000) rotate(90.000000) translate(-170.000000, -10.000000) " points="170 0 180 20 160 20"></polygon>
                <polygon id="Triangle-Copy-5" fill="#AFF1CC" transform="translate(210.000000, 10.000000) rotate(90.000000) translate(-210.000000, -10.000000) " points="210 0 220 20 200 20"></polygon>
                <polygon id="Triangle-Copy-6" fill="#AFF1CF" transform="translate(250.000000, 10.000000) rotate(90.000000) translate(-250.000000, -10.000000) " points="250 0 260 20 240 20"></polygon>
                <polygon id="Triangle-Copy-7" fill="#AFF1D3" transform="translate(290.000000, 10.000000) rotate(90.000000) translate(-290.000000, -10.000000) " points="290 0 300 20 280 20"></polygon>
                <polygon id="Triangle-Copy-8" fill="#AFF1D5" transform="translate(330.000000, 10.000000) rotate(90.000000) translate(-330.000000, -10.000000) " points="330 0 340 20 320 20"></polygon>
                <polygon id="Triangle-Copy-9" fill="#AFF1D8" transform="translate(370.000000, 10.000000) rotate(90.000000) translate(-370.000000, -10.000000) " points="370 0 380 20 360 20"></polygon>
                <polygon id="Triangle-Copy-10" fill="#AFF1D8" transform="translate(410.000000, 10.000000) rotate(90.000000) translate(-410.000000, -10.000000) " points="410 0 420 20 400 20"></polygon>
            </g>
            <g id="arrows1" transform="translate(1104.460258, 706.525073) scale(-1, -1) rotate(36.000000) translate(-1104.460258, -706.525073) translate(894.460258, 696.525073)">
                <polygon id="Triangle" fill="#AFF1B6" transform="translate(10.000000, 10.000000) rotate(90.000000) translate(-10.000000, -10.000000) " points="10 0 20 20 0 20"></polygon>
                <polygon id="Triangle-Copy" fill="#AFF1C3" transform="translate(50.000000, 10.000000) rotate(90.000000) translate(-50.000000, -10.000000) " points="50 0 60 20 40 20"></polygon>
                <polygon id="Triangle-Copy-2" fill="#AFF1C5" transform="translate(90.000000, 10.000000) rotate(90.000000) translate(-90.000000, -10.000000) " points="90 0 100 20 80 20"></polygon>
                <polygon id="Triangle-Copy-3" fill="#AFF1C6" transform="translate(130.000000, 10.000000) rotate(90.000000) translate(-130.000000, -10.000000) " points="130 0 140 20 120 20"></polygon>
                <polygon id="Triangle-Copy-4" fill="#AFF1CA" transform="translate(170.000000, 10.000000) rotate(90.000000) translate(-170.000000, -10.000000) " points="170 0 180 20 160 20"></polygon>
                <polygon id="Triangle-Copy-5" fill="#AFF1CC" transform="translate(210.000000, 10.000000) rotate(90.000000) translate(-210.000000, -10.000000) " points="210 0 220 20 200 20"></polygon>
                <polygon id="Triangle-Copy-6" fill="#AFF1CF" transform="translate(250.000000, 10.000000) rotate(90.000000) translate(-250.000000, -10.000000) " points="250 0 260 20 240 20"></polygon>
                <polygon id="Triangle-Copy-7" fill="#AFF1D3" transform="translate(290.000000, 10.000000) rotate(90.000000) translate(-290.000000, -10.000000) " points="290 0 300 20 280 20"></polygon>
                <polygon id="Triangle-Copy-8" fill="#AFF1D5" transform="translate(330.000000, 10.000000) rotate(90.000000) translate(-330.000000, -10.000000) " points="330 0 340 20 320 20"></polygon>
                <polygon id="Triangle-Copy-9" fill="#AFF1D8" transform="translate(370.000000, 10.000000) rotate(90.000000) translate(-370.000000, -10.000000) " points="370 0 380 20 360 20"></polygon>
                <polygon id="Triangle-Copy-10" fill="#AFF1D8" transform="translate(410.000000, 10.000000) rotate(90.000000) translate(-410.000000, -10.000000) " points="410 0 420 20 400 20"></polygon>
            </g>
            <g id="Group-8" transform="translate(1531.000000, 434.000000)">
                <path d="M0.5,68.5 L65.5,68.5" id="Line" stroke="#3D59F9" stroke-width="5" opacity="0.5" stroke-linecap="square"></path>
                <g id="Page-1" transform="translate(224.000000, 0.000000)">
                    <circle id="Oval-4" fill="#DFD9F3" cx="66" cy="66" r="66"></circle>
                    <g id="Group-7" transform="translate(32.560000, 33.440000)">
                        <path d="M35.1846704,33.3685365 C36.5823247,35.1792185 37.4079302,37.7865396 40.7443659,36.5763777 C41.939484,36.1430911 42.8207483,37.3593342 43.6324391,38.1514126 C49.7518148,44.1338084 55.8093473,50.1785366 61.9952043,56.0909984 C63.9525387,57.9640128 63.6618761,59.4280654 62.0276719,61.2554707 C57.5084867,66.3165623 56.9441684,66.3910572 52.1080372,61.5701736 C46.7740691,56.2536709 41.4864832,50.8915591 36.1834366,45.547691 C35.1042744,44.4606737 34.2230101,43.5363289 34.719301,41.6131445 C35.3392782,39.2217065 32.7867038,38.4463515 31.3473055,37.1662556 C29.7161935,36.6782381 28.6493998,35.6337893 28.1608393,34.0268281 C22.6939084,28.5339702 17.7758352,22.3098461 11.5606027,17.8203887 C7.70468486,15.035192 4.10077768,12.5646982 1.7182719,8.461398 C0.891120314,7.03535296 0.315979399,6.09732546 1.78320716,4.57702158 C3.38339761,2.92141065 4.49811965,3.47024035 6.00245328,4.45995818 C9.57853107,6.80882768 13.5287597,8.55413654 14.669765,13.4434338 C15.0949364,15.2632376 17.3027354,16.7789806 18.8998337,18.217188 C23.3138856,22.1912624 26.8343046,27.1094455 32.0152111,30.2731978 C33.4035889,30.9770985 34.7455843,31.725088 35.1846704,33.3685365" id="Fill-4" fill="#BDB1F1"></path>
                        <path d="M34.8430661,32.56 C33.6657883,31.647339 32.0132792,31.2070068 31.68,29.4563432 C35.8259311,25.3105159 40.127701,21.3018164 44.0576178,16.965534 C46.5170946,14.2504057 46.3273106,10.3803574 47.1543367,7.01006346 C47.5323616,5.46204417 45.5728036,4.81754401 44.2196285,4.5387177 C41.8419285,4.05267621 39.4194828,3.76470805 37.0032088,3.49045267 C35.4540779,3.31523395 33.9111188,3.25124102 33.0208314,1.68950896 C41.3034358,-2.65134435 55.8643407,1.8022584 60.075076,10.1472404 C61.4915125,12.9568344 62.9850969,15.4357984 65.9306058,16.8664973 C68.4132269,18.0716974 68.2311578,19.5359164 66.2145102,21.1189795 C65.5155498,21.6674902 64.902995,22.334845 64.3027839,22.9915343 C62.452776,25.0179769 61.3341307,24.1906398 60.3759531,22.1200116 C58.1093462,17.2230293 57.6341148,17.8202966 52.5639512,18.5089824 C45.1469469,19.5161091 43.0053197,26.2902171 37.9366991,29.7305986 C36.7902805,30.5076555 35.867591,31.6077244 34.8430661,32.56" id="Fill-6" fill="#7259B3"></path>
                        <path d="M27.6694438,33.44 C29.0000441,34.2137551 30.0344491,35.2877271 30.8,36.6356084 C29.490665,38.327037 27.3686917,39.5402849 28.4623358,42.4248438 C28.9347292,43.6628519 27.4841319,44.6640909 26.6016219,45.5647418 C20.902521,51.3864749 15.2170907,57.217493 9.4784971,62.9974433 C6.3965473,66.1002011 6.04718877,65.857242 1.89437913,61.8987112 C-0.655938133,59.4660252 -0.610369629,57.751384 1.90501178,55.3125081 C7.74841291,49.648621 13.3578957,43.7324898 19.0676292,37.9231368 C20.3891158,36.5814455 21.4584567,35.1422611 23.8948527,36.046007 C25.6477212,36.6959613 26.2750476,34.1642347 27.6694438,33.44" id="Fill-8" fill="#7259B3"></path>
                    </g>
                </g>
                <g id="tender-copy" transform="translate(133.000000, 0.000000)">
                    <circle id="Oval-26" fill="#E7E2F8" cx="66" cy="66" r="66"></circle>
                    <g id="Group-46" transform="translate(43.051213, 32.021563)">
                        <path d="M6.16,0 L28.2692522,0 C29.8709605,0.531897183 30.6718146,5.80957245 30.6718146,15.8330258 C39.7493398,13.9793527 45.0617894,15.8944861 46.6091636,21.5784259 L46.6091636,55.7483558 C46.6091636,59.1504299 43.8512377,61.9083558 40.4491636,61.9083558 L6.16,61.9083558 C2.75792594,61.9083558 -4.71544509e-16,59.1504299 -8.8817842e-16,55.7483558 L0,6.16 C-4.16633911e-16,2.75792594 2.75792594,3.28948613e-15 6.16,2.66453526e-15 Z" id="Combined-Shape" fill="#BDB1F1"></path>
                        <rect id="Rectangle-66" fill="#FFFFFF" x="10.6738544" y="31.309973" width="25.6172507" height="3.91374663" rx="1.95687332"></rect>
                        <rect id="Rectangle-66-Copy" fill="#FFFFFF" x="11.0296496" y="39.4932615" width="14.5876011" height="3.91374663" rx="1.95687332"></rect>
                    </g>
                </g>
                <g id="Page-1" transform="translate(48.000000, 0.000000)">
                    <g id="Group-7">
                        <circle id="Oval-3" fill="#EBE7FA" cx="66" cy="66" r="66"></circle>
                        <g id="Group-6" transform="translate(29.700000, 28.600000)">
                            <path d="M33.432533,13.2 C43.7459238,13.2260948 54.0611643,13.2316865 64.3745551,13.2838761 C70.2451977,13.3155626 72.1243951,15.173884 72.1373424,21.0489383 C72.166936,36.4075827 72.1687856,51.7662272 72.1354927,67.1285994 C72.1225455,72.7781202 70.2211528,74.757596 64.7259799,74.7706434 C45.6343693,74.8097855 26.5427588,74.8097855 7.4529978,74.7706434 C1.94672725,74.7594599 0.0379361152,72.7837119 0.0249888886,67.1435107 C-0.0101535839,51.7848663 -0.00645437627,36.424358 0.0249888886,21.0657135 C0.0360865114,15.1794758 1.90973517,13.3342017 7.76928005,13.2820122 C13.1553264,13.2335504 18.5432223,13.2260948 23.9311182,13.2 C25.8953974,15.0266349 25.4662893,17.472089 25.4792366,19.7330156 C25.5476719,32.2678316 25.4237484,44.8045115 25.5791152,57.3393275 C25.6105584,59.8090124 24.4989465,63.7288218 28.9065524,63.5331109 C32.8369605,63.3560392 31.7604911,59.6953137 31.7882352,57.3393275 C31.9325043,44.8045115 31.8159792,32.2678316 31.8844146,19.7348795 C31.8973618,17.472089 31.4682537,15.0266349 33.432533,13.2" id="Fill-4" fill="#BDB1F1"></path>
                            <path d="M63.318727,45.4969237 C63.318727,50.9445852 63.2169073,56.3959972 63.3571495,61.8380329 C63.441679,65.2660278 61.6415848,66.0273877 58.5773904,65.9992586 C55.6399903,65.9692543 53.6458625,65.5154388 53.6804428,61.9674266 C53.7880258,50.9183314 53.7841835,39.867361 53.6804428,28.8163906 C53.6516259,25.4033978 55.3998496,24.6270358 58.464044,24.6401627 C61.4283399,24.6551648 63.4339945,25.1727395 63.3533072,28.6888722 C63.2226707,34.2884306 63.318727,39.89549 63.318727,45.4969237" id="Fill-8" fill="#FEFEFE"></path>
                            <path d="M19.3166225,47.9279327 C19.3166225,52.3723554 19.2281639,56.8204741 19.3435446,61.2630488 C19.4358492,64.814891 17.2013086,65.1290497 14.3360199,65.1198098 C11.5918809,65.1124178 9.65733022,64.6374836 9.68425239,61.3979523 C9.75924989,52.20234 9.77078796,43.0048798 9.68040637,33.8074196 C9.64579214,30.2703614 11.8264884,29.9839225 14.6898542,29.9229387 C17.8589789,29.858259 19.4608484,30.8487831 19.3550827,34.1326664 C19.2070108,38.7267765 19.3166225,43.3301266 19.3166225,47.9279327" id="Fill-10" fill="#FEFEFE"></path>
                            <path d="M48.3335082,53.8646362 C48.3354187,56.2046567 48.2016811,58.5540975 48.3678979,60.8846977 C48.6143572,64.3608151 47.4814084,66.0093802 43.5877325,65.9999599 C39.7704782,65.9924236 38.5897659,64.511541 38.7311457,60.9525243 C38.9336627,55.8108851 38.8839887,50.6541733 38.7521616,45.5087659 C38.6642769,42.0533733 40.5270511,41.3543816 43.5323269,41.3600339 C46.4917498,41.363802 48.5169198,41.9327925 48.3583452,45.4390551 C48.2284286,48.244442 48.3315977,51.0554811 48.3335082,53.8646362" id="Fill-12" fill="#FEFEFE"></path>
                            <rect id="Rectangle" fill="#7259B3" x="23.76" y="0" width="9.68" height="65.12" rx="4.84"></rect>
                        </g>
                    </g>
                </g>
            </g>
            <g id="Group-8" transform="translate(1398.000000, 100.000000)">
                <path d="M0.5,68.5 L65.5,68.5" id="Line" stroke="#3D59F9" stroke-width="5" opacity="0.5" stroke-linecap="square"></path>
                <g id="Page-1" transform="translate(226.000000, 0.000000)">
                    <circle id="Oval-4" fill="#DFD9F3" cx="66" cy="66" r="66"></circle>
                    <g id="Group-7" transform="translate(32.560000, 33.440000)">
                        <path d="M35.1846704,33.3685365 C36.5823247,35.1792185 37.4079302,37.7865396 40.7443659,36.5763777 C41.939484,36.1430911 42.8207483,37.3593342 43.6324391,38.1514126 C49.7518148,44.1338084 55.8093473,50.1785366 61.9952043,56.0909984 C63.9525387,57.9640128 63.6618761,59.4280654 62.0276719,61.2554707 C57.5084867,66.3165623 56.9441684,66.3910572 52.1080372,61.5701736 C46.7740691,56.2536709 41.4864832,50.8915591 36.1834366,45.547691 C35.1042744,44.4606737 34.2230101,43.5363289 34.719301,41.6131445 C35.3392782,39.2217065 32.7867038,38.4463515 31.3473055,37.1662556 C29.7161935,36.6782381 28.6493998,35.6337893 28.1608393,34.0268281 C22.6939084,28.5339702 17.7758352,22.3098461 11.5606027,17.8203887 C7.70468486,15.035192 4.10077768,12.5646982 1.7182719,8.461398 C0.891120314,7.03535296 0.315979399,6.09732546 1.78320716,4.57702158 C3.38339761,2.92141065 4.49811965,3.47024035 6.00245328,4.45995818 C9.57853107,6.80882768 13.5287597,8.55413654 14.669765,13.4434338 C15.0949364,15.2632376 17.3027354,16.7789806 18.8998337,18.217188 C23.3138856,22.1912624 26.8343046,27.1094455 32.0152111,30.2731978 C33.4035889,30.9770985 34.7455843,31.725088 35.1846704,33.3685365" id="Fill-4" fill="#BDB1F1"></path>
                        <path d="M34.8430661,32.56 C33.6657883,31.647339 32.0132792,31.2070068 31.68,29.4563432 C35.8259311,25.3105159 40.127701,21.3018164 44.0576178,16.965534 C46.5170946,14.2504057 46.3273106,10.3803574 47.1543367,7.01006346 C47.5323616,5.46204417 45.5728036,4.81754401 44.2196285,4.5387177 C41.8419285,4.05267621 39.4194828,3.76470805 37.0032088,3.49045267 C35.4540779,3.31523395 33.9111188,3.25124102 33.0208314,1.68950896 C41.3034358,-2.65134435 55.8643407,1.8022584 60.075076,10.1472404 C61.4915125,12.9568344 62.9850969,15.4357984 65.9306058,16.8664973 C68.4132269,18.0716974 68.2311578,19.5359164 66.2145102,21.1189795 C65.5155498,21.6674902 64.902995,22.334845 64.3027839,22.9915343 C62.452776,25.0179769 61.3341307,24.1906398 60.3759531,22.1200116 C58.1093462,17.2230293 57.6341148,17.8202966 52.5639512,18.5089824 C45.1469469,19.5161091 43.0053197,26.2902171 37.9366991,29.7305986 C36.7902805,30.5076555 35.867591,31.6077244 34.8430661,32.56" id="Fill-6" fill="#7259B3"></path>
                        <path d="M27.6694438,33.44 C29.0000441,34.2137551 30.0344491,35.2877271 30.8,36.6356084 C29.490665,38.327037 27.3686917,39.5402849 28.4623358,42.4248438 C28.9347292,43.6628519 27.4841319,44.6640909 26.6016219,45.5647418 C20.902521,51.3864749 15.2170907,57.217493 9.4784971,62.9974433 C6.3965473,66.1002011 6.04718877,65.857242 1.89437913,61.8987112 C-0.655938133,59.4660252 -0.610369629,57.751384 1.90501178,55.3125081 C7.74841291,49.648621 13.3578957,43.7324898 19.0676292,37.9231368 C20.3891158,36.5814455 21.4584567,35.1422611 23.8948527,36.046007 C25.6477212,36.6959613 26.2750476,34.1642347 27.6694438,33.44" id="Fill-8" fill="#7259B3"></path>
                    </g>
                </g>
                <g id="tender-copy-2" transform="translate(135.000000, 0.000000)">
                    <circle id="Oval-26" fill="#E7E2F8" cx="66" cy="66" r="66"></circle>
                    <g id="Group-46" transform="translate(43.051213, 32.021563)">
                        <path d="M6.16,0 L28.2692522,0 C29.8709605,0.531897183 30.6718146,5.80957245 30.6718146,15.8330258 C39.7493398,13.9793527 45.0617894,15.8944861 46.6091636,21.5784259 L46.6091636,55.7483558 C46.6091636,59.1504299 43.8512377,61.9083558 40.4491636,61.9083558 L6.16,61.9083558 C2.75792594,61.9083558 4.06092863e-15,59.1504299 -8.8817842e-16,55.7483558 L-8.8817842e-16,6.16 C-1.30481233e-15,2.75792594 2.75792594,-2.63227554e-16 6.16,-8.8817842e-16 Z" id="Combined-Shape" fill="#BDB1F1"></path>
                        <rect id="Rectangle-66" fill="#FFFFFF" x="10.6738544" y="31.309973" width="25.6172507" height="3.91374663" rx="1.95687332"></rect>
                        <rect id="Rectangle-66-Copy" fill="#FFFFFF" x="11.0296496" y="39.4932615" width="14.5876011" height="3.91374663" rx="1.95687332"></rect>
                    </g>
                </g>
                <g id="Page-1" transform="translate(50.000000, 0.000000)">
                    <g id="Group-7">
                        <circle id="Oval-3" fill="#EBE7FA" cx="66" cy="66" r="66"></circle>
                        <g id="Group-6" transform="translate(29.700000, 28.600000)">
                            <path d="M33.432533,13.2 C43.7459238,13.2260948 54.0611643,13.2316865 64.3745551,13.2838761 C70.2451977,13.3155626 72.1243951,15.173884 72.1373424,21.0489383 C72.166936,36.4075827 72.1687856,51.7662272 72.1354927,67.1285994 C72.1225455,72.7781202 70.2211528,74.757596 64.7259799,74.7706434 C45.6343693,74.8097855 26.5427588,74.8097855 7.4529978,74.7706434 C1.94672725,74.7594599 0.0379361152,72.7837119 0.0249888886,67.1435107 C-0.0101535839,51.7848663 -0.00645437627,36.424358 0.0249888886,21.0657135 C0.0360865114,15.1794758 1.90973517,13.3342017 7.76928005,13.2820122 C13.1553264,13.2335504 18.5432223,13.2260948 23.9311182,13.2 C25.8953974,15.0266349 25.4662893,17.472089 25.4792366,19.7330156 C25.5476719,32.2678316 25.4237484,44.8045115 25.5791152,57.3393275 C25.6105584,59.8090124 24.4989465,63.7288218 28.9065524,63.5331109 C32.8369605,63.3560392 31.7604911,59.6953137 31.7882352,57.3393275 C31.9325043,44.8045115 31.8159792,32.2678316 31.8844146,19.7348795 C31.8973618,17.472089 31.4682537,15.0266349 33.432533,13.2" id="Fill-4" fill="#BDB1F1"></path>
                            <path d="M63.318727,45.4969237 C63.318727,50.9445852 63.2169073,56.3959972 63.3571495,61.8380329 C63.441679,65.2660278 61.6415848,66.0273877 58.5773904,65.9992586 C55.6399903,65.9692543 53.6458625,65.5154388 53.6804428,61.9674266 C53.7880258,50.9183314 53.7841835,39.867361 53.6804428,28.8163906 C53.6516259,25.4033978 55.3998496,24.6270358 58.464044,24.6401627 C61.4283399,24.6551648 63.4339945,25.1727395 63.3533072,28.6888722 C63.2226707,34.2884306 63.318727,39.89549 63.318727,45.4969237" id="Fill-8" fill="#FEFEFE"></path>
                            <path d="M19.3166225,47.9279327 C19.3166225,52.3723554 19.2281639,56.8204741 19.3435446,61.2630488 C19.4358492,64.814891 17.2013086,65.1290497 14.3360199,65.1198098 C11.5918809,65.1124178 9.65733022,64.6374836 9.68425239,61.3979523 C9.75924989,52.20234 9.77078796,43.0048798 9.68040637,33.8074196 C9.64579214,30.2703614 11.8264884,29.9839225 14.6898542,29.9229387 C17.8589789,29.858259 19.4608484,30.8487831 19.3550827,34.1326664 C19.2070108,38.7267765 19.3166225,43.3301266 19.3166225,47.9279327" id="Fill-10" fill="#FEFEFE"></path>
                            <path d="M48.3335082,53.8646362 C48.3354187,56.2046567 48.2016811,58.5540975 48.3678979,60.8846977 C48.6143572,64.3608151 47.4814084,66.0093802 43.5877325,65.9999599 C39.7704782,65.9924236 38.5897659,64.511541 38.7311457,60.9525243 C38.9336627,55.8108851 38.8839887,50.6541733 38.7521616,45.5087659 C38.6642769,42.0533733 40.5270511,41.3543816 43.5323269,41.3600339 C46.4917498,41.363802 48.5169198,41.9327925 48.3583452,45.4390551 C48.2284286,48.244442 48.3315977,51.0554811 48.3335082,53.8646362" id="Fill-12" fill="#FEFEFE"></path>
                            <rect id="Rectangle" fill="#7259B3" x="23.76" y="0" width="9.68" height="65.12" rx="4.84"></rect>
                        </g>
                    </g>
                </g>
            </g>
            <g id="Group-8" transform="translate(1398.000000, 769.000000)">
                <path d="M0.5,68.5 L65.5,68.5" id="Line" stroke="#3D59F9" stroke-width="5" opacity="0.5" stroke-linecap="square"></path>
                <g id="Page-1" transform="translate(226.000000, 0.000000)">
                    <circle id="Oval-4" fill="#DFD9F3" cx="66" cy="66" r="66"></circle>
                    <g id="Group-7" transform="translate(32.560000, 33.440000)">
                        <path d="M35.1846704,33.3685365 C36.5823247,35.1792185 37.4079302,37.7865396 40.7443659,36.5763777 C41.939484,36.1430911 42.8207483,37.3593342 43.6324391,38.1514126 C49.7518148,44.1338084 55.8093473,50.1785366 61.9952043,56.0909984 C63.9525387,57.9640128 63.6618761,59.4280654 62.0276719,61.2554707 C57.5084867,66.3165623 56.9441684,66.3910572 52.1080372,61.5701736 C46.7740691,56.2536709 41.4864832,50.8915591 36.1834366,45.547691 C35.1042744,44.4606737 34.2230101,43.5363289 34.719301,41.6131445 C35.3392782,39.2217065 32.7867038,38.4463515 31.3473055,37.1662556 C29.7161935,36.6782381 28.6493998,35.6337893 28.1608393,34.0268281 C22.6939084,28.5339702 17.7758352,22.3098461 11.5606027,17.8203887 C7.70468486,15.035192 4.10077768,12.5646982 1.7182719,8.461398 C0.891120314,7.03535296 0.315979399,6.09732546 1.78320716,4.57702158 C3.38339761,2.92141065 4.49811965,3.47024035 6.00245328,4.45995818 C9.57853107,6.80882768 13.5287597,8.55413654 14.669765,13.4434338 C15.0949364,15.2632376 17.3027354,16.7789806 18.8998337,18.217188 C23.3138856,22.1912624 26.8343046,27.1094455 32.0152111,30.2731978 C33.4035889,30.9770985 34.7455843,31.725088 35.1846704,33.3685365" id="Fill-4" fill="#BDB1F1"></path>
                        <path d="M34.8430661,32.56 C33.6657883,31.647339 32.0132792,31.2070068 31.68,29.4563432 C35.8259311,25.3105159 40.127701,21.3018164 44.0576178,16.965534 C46.5170946,14.2504057 46.3273106,10.3803574 47.1543367,7.01006346 C47.5323616,5.46204417 45.5728036,4.81754401 44.2196285,4.5387177 C41.8419285,4.05267621 39.4194828,3.76470805 37.0032088,3.49045267 C35.4540779,3.31523395 33.9111188,3.25124102 33.0208314,1.68950896 C41.3034358,-2.65134435 55.8643407,1.8022584 60.075076,10.1472404 C61.4915125,12.9568344 62.9850969,15.4357984 65.9306058,16.8664973 C68.4132269,18.0716974 68.2311578,19.5359164 66.2145102,21.1189795 C65.5155498,21.6674902 64.902995,22.334845 64.3027839,22.9915343 C62.452776,25.0179769 61.3341307,24.1906398 60.3759531,22.1200116 C58.1093462,17.2230293 57.6341148,17.8202966 52.5639512,18.5089824 C45.1469469,19.5161091 43.0053197,26.2902171 37.9366991,29.7305986 C36.7902805,30.5076555 35.867591,31.6077244 34.8430661,32.56" id="Fill-6" fill="#7259B3"></path>
                        <path d="M27.6694438,33.44 C29.0000441,34.2137551 30.0344491,35.2877271 30.8,36.6356084 C29.490665,38.327037 27.3686917,39.5402849 28.4623358,42.4248438 C28.9347292,43.6628519 27.4841319,44.6640909 26.6016219,45.5647418 C20.902521,51.3864749 15.2170907,57.217493 9.4784971,62.9974433 C6.3965473,66.1002011 6.04718877,65.857242 1.89437913,61.8987112 C-0.655938133,59.4660252 -0.610369629,57.751384 1.90501178,55.3125081 C7.74841291,49.648621 13.3578957,43.7324898 19.0676292,37.9231368 C20.3891158,36.5814455 21.4584567,35.1422611 23.8948527,36.046007 C25.6477212,36.6959613 26.2750476,34.1642347 27.6694438,33.44" id="Fill-8" fill="#7259B3"></path>
                    </g>
                </g>
                <g id="tender" transform="translate(135.000000, 0.000000)">
                    <circle id="Oval-26" fill="#E7E2F8" cx="66" cy="66" r="66"></circle>
                    <g id="Group-46" transform="translate(43.051213, 32.021563)">
                        <path d="M6.16,0 L28.2692522,0 C29.8709605,0.531897183 30.6718146,5.80957245 30.6718146,15.8330258 C39.7493398,13.9793527 45.0617894,15.8944861 46.6091636,21.5784259 L46.6091636,55.7483558 C46.6091636,59.1504299 43.8512377,61.9083558 40.4491636,61.9083558 L6.16,61.9083558 C2.75792594,61.9083558 -4.71544509e-16,59.1504299 -8.8817842e-16,55.7483558 L0,6.16 C-4.16633911e-16,2.75792594 2.75792594,3.28948613e-15 6.16,2.66453526e-15 Z" id="Combined-Shape" fill="#BDB1F1"></path>
                        <rect id="Rectangle-66" fill="#FFFFFF" x="10.6738544" y="31.309973" width="25.6172507" height="3.91374663" rx="1.95687332"></rect>
                        <rect id="Rectangle-66-Copy" fill="#FFFFFF" x="11.0296496" y="39.4932615" width="14.5876011" height="3.91374663" rx="1.95687332"></rect>
                    </g>
                </g>
                <g id="Page-1" transform="translate(50.000000, 0.000000)">
                    <g id="Group-7">
                        <circle id="Oval-3" fill="#EBE7FA" cx="66" cy="66" r="66"></circle>
                        <g id="Group-6" transform="translate(29.700000, 28.600000)">
                            <path d="M33.432533,13.2 C43.7459238,13.2260948 54.0611643,13.2316865 64.3745551,13.2838761 C70.2451977,13.3155626 72.1243951,15.173884 72.1373424,21.0489383 C72.166936,36.4075827 72.1687856,51.7662272 72.1354927,67.1285994 C72.1225455,72.7781202 70.2211528,74.757596 64.7259799,74.7706434 C45.6343693,74.8097855 26.5427588,74.8097855 7.4529978,74.7706434 C1.94672725,74.7594599 0.0379361152,72.7837119 0.0249888886,67.1435107 C-0.0101535839,51.7848663 -0.00645437627,36.424358 0.0249888886,21.0657135 C0.0360865114,15.1794758 1.90973517,13.3342017 7.76928005,13.2820122 C13.1553264,13.2335504 18.5432223,13.2260948 23.9311182,13.2 C25.8953974,15.0266349 25.4662893,17.472089 25.4792366,19.7330156 C25.5476719,32.2678316 25.4237484,44.8045115 25.5791152,57.3393275 C25.6105584,59.8090124 24.4989465,63.7288218 28.9065524,63.5331109 C32.8369605,63.3560392 31.7604911,59.6953137 31.7882352,57.3393275 C31.9325043,44.8045115 31.8159792,32.2678316 31.8844146,19.7348795 C31.8973618,17.472089 31.4682537,15.0266349 33.432533,13.2" id="Fill-4" fill="#BDB1F1"></path>
                            <path d="M63.318727,45.4969237 C63.318727,50.9445852 63.2169073,56.3959972 63.3571495,61.8380329 C63.441679,65.2660278 61.6415848,66.0273877 58.5773904,65.9992586 C55.6399903,65.9692543 53.6458625,65.5154388 53.6804428,61.9674266 C53.7880258,50.9183314 53.7841835,39.867361 53.6804428,28.8163906 C53.6516259,25.4033978 55.3998496,24.6270358 58.464044,24.6401627 C61.4283399,24.6551648 63.4339945,25.1727395 63.3533072,28.6888722 C63.2226707,34.2884306 63.318727,39.89549 63.318727,45.4969237" id="Fill-8" fill="#FEFEFE"></path>
                            <path d="M19.3166225,47.9279327 C19.3166225,52.3723554 19.2281639,56.8204741 19.3435446,61.2630488 C19.4358492,64.814891 17.2013086,65.1290497 14.3360199,65.1198098 C11.5918809,65.1124178 9.65733022,64.6374836 9.68425239,61.3979523 C9.75924989,52.20234 9.77078796,43.0048798 9.68040637,33.8074196 C9.64579214,30.2703614 11.8264884,29.9839225 14.6898542,29.9229387 C17.8589789,29.858259 19.4608484,30.8487831 19.3550827,34.1326664 C19.2070108,38.7267765 19.3166225,43.3301266 19.3166225,47.9279327" id="Fill-10" fill="#FEFEFE"></path>
                            <path d="M48.3335082,53.8646362 C48.3354187,56.2046567 48.2016811,58.5540975 48.3678979,60.8846977 C48.6143572,64.3608151 47.4814084,66.0093802 43.5877325,65.9999599 C39.7704782,65.9924236 38.5897659,64.511541 38.7311457,60.9525243 C38.9336627,55.8108851 38.8839887,50.6541733 38.7521616,45.5087659 C38.6642769,42.0533733 40.5270511,41.3543816 43.5323269,41.3600339 C46.4917498,41.363802 48.5169198,41.9327925 48.3583452,45.4390551 C48.2284286,48.244442 48.3315977,51.0554811 48.3335082,53.8646362" id="Fill-12" fill="#FEFEFE"></path>
                            <rect id="Rectangle" fill="#7259B3" x="23.76" y="0" width="9.68" height="65.12" rx="4.84"></rect>
                        </g>
                    </g>
                </g>
            </g>
            <g id="contractor" transform="translate(1213.000000, 68.000000)">
                <ellipse id="Oval-14" fill="#AFF1B6" cx="97.5466047" cy="97.8043731" rx="97.5466047" ry="97.8043731"></ellipse>
                <ellipse id="Oval-15" fill="#3ECF8E" cx="97.5466047" cy="96.8214146" rx="52.4496819" ry="52.588281"></ellipse>
                <path d="M63.4547045,137.23985 C69.0004413,124.345006 82.3554266,115.256748 97.9491651,115.256748 C113.542904,115.256748 126.897889,124.345006 132.443626,137.23985 C123.207342,145.286258 111.145579,150.157111 97.9491651,150.157111 C84.7527515,150.157111 72.6909881,145.286258 63.4547045,137.23985 Z" id="Combined-Shape" fill="#AFF1B6"></path>
                <ellipse id="Oval" fill="#AFF1B6" cx="98.5269726" cy="91.906622" rx="17.156438" ry="17.2017742"></ellipse>
            </g>
            <g id="contractor" transform="translate(1350.000000, 402.000000)">
                <ellipse id="Oval-14" fill="#AFF1B6" cx="97.5466047" cy="97.8043731" rx="97.5466047" ry="97.8043731"></ellipse>
                <ellipse id="Oval-15" fill="#3ECF8E" cx="97.5466047" cy="96.8214146" rx="52.4496819" ry="52.588281"></ellipse>
                <path d="M63.4547045,137.23985 C69.0004413,124.345006 82.3554266,115.256748 97.9491651,115.256748 C113.542904,115.256748 126.897889,124.345006 132.443626,137.23985 C123.207342,145.286258 111.145579,150.157111 97.9491651,150.157111 C84.7527515,150.157111 72.6909881,145.286258 63.4547045,137.23985 Z" id="Combined-Shape" fill="#AFF1B6"></path>
                <ellipse id="Oval" fill="#AFF1B6" cx="98.5269726" cy="91.906622" rx="17.156438" ry="17.2017742"></ellipse>
            </g>
            <g id="contractor-copy" transform="translate(1213.000000, 735.000000)">
                <ellipse id="Oval-14" fill="#AFF1B6" cx="97.5466047" cy="97.8043731" rx="97.5466047" ry="97.8043731"></ellipse>
                <ellipse id="Oval-15" fill="#3ECF8E" cx="97.5466047" cy="96.8214146" rx="52.4496819" ry="52.588281"></ellipse>
                <path d="M63.4547045,137.23985 C69.0004413,124.345006 82.3554266,115.256748 97.9491651,115.256748 C113.542904,115.256748 126.897889,124.345006 132.443626,137.23985 C123.207342,145.286258 111.145579,150.157111 97.9491651,150.157111 C84.7527515,150.157111 72.6909881,145.286258 63.4547045,137.23985 Z" id="Combined-Shape" fill="#AFF1B6"></path>
                <ellipse id="Oval" fill="#AFF1B6" cx="98.5269726" cy="91.906622" rx="17.156438" ry="17.2017742"></ellipse>
            </g>
            <g id="Group-3" transform="translate(85.000000, 54.000000)" fill="#82E0FF">
                <text id="ESTATE" font-family="HelveticaNeue, Helvetica Neue" font-size="28" font-weight="normal">
                    <tspan x="44.352" y="27">ESTATE</tspan>
                </text>
                <circle id="Oval-2" cx="15" cy="17" r="15"></circle>
            </g>
            <g id="Group" transform="translate(85.000000, 103.000000)" fill="#3D59F9">
                <text id="PLATFORM" font-family="HelveticaNeue, Helvetica Neue" font-size="28" font-weight="normal">
                    <tspan x="44.152" y="27">PLATFORM</tspan>
                </text>
                <circle id="Oval-2-Copy" cx="15" cy="17" r="15"></circle>
            </g>
            <g id="Group-2" transform="translate(85.000000, 152.000000)">
                <text id="INTERESTED-CONTRACTO" font-family="HelveticaNeue, Helvetica Neue" font-size="28" font-weight="normal" fill="#3ECF8E">
                    <tspan x="44.244" y="27">INTERESTED CONTRACTORS</tspan>
                </text>
                <circle id="Oval-2-Copy-2" fill="#AFF1B6" cx="15" cy="17" r="15"></circle>
            </g>
            <g id="Group-2-Copy" transform="translate(85.000000, 201.000000)" fill="#BDB1F1">
                <text id="PROFILE" font-family="HelveticaNeue, Helvetica Neue" font-size="28" font-weight="normal">
                    <tspan x="44.396" y="27">PROFILE</tspan>
                </text>
                <circle id="Oval-2-Copy-2" cx="15" cy="17" r="15"></circle>
            </g>
            <g id="Group-5" transform="translate(85.000000, 860.000000)">
                <text id="Interested-contracto" font-family="HelveticaNeue-Light, Helvetica Neue" font-size="34" font-weight="300" letter-spacing="1" fill="#A4B3C9">
                    <tspan x="70" y="33">Interested contractors will contact you via our </tspan>
                    <tspan x="70" y="73">platform.</tspan>
                </text>
                <path d="M34.00532,23.6224074 C24.2912536,23.5979716 14.577593,23.5850177 4.8639324,23.5402679 C2.73329868,23.5305524 -0.000405834994,23.8935561 0,21.4926681 C0.000811669988,19.0956074 2.73167534,19.4500732 4.8639324,19.4403578 C14.5779988,19.3959024 24.2916594,19.3829485 34.0057258,19.3585127 C35.8802776,19.3582183 37.7552353,19.3582183 39.7231292,19.3582183 C39.8497497,17.9721507 38.0283623,17.5546818 37.3319494,16.6258281 C36.7073694,15.7929511 36.7447062,15.1228811 37.6371373,14.4743027 C38.6212872,13.7591885 39.7284051,13.9161073 40.5652368,14.5237631 C43.2218327,16.4518337 45.8134949,18.4284814 48.3686321,20.427504 C49.2208856,21.09463 49.2030288,21.9457603 48.3592979,22.6043484 C45.8001024,24.6030766 43.1970767,26.5735418 40.5392634,28.50279 C39.6723998,29.1322319 38.5766453,29.1975902 37.6091347,28.5051453 C36.6919476,27.8489124 36.5823722,27.1143672 37.3782146,26.3712843 C38.2219456,25.5828627 39.1216817,24.8262371 40.4901573,23.6224074 L34.00532,23.6224074 Z" id="Fill-5" fill="#68D5F8"></path>
            </g>
            <g id="arrows1" transform="translate(818.000000, 500.000000) scale(-1, 1) rotate(-360.000000) translate(-818.000000, -500.000000) translate(316.000000, 490.000000)">
                <polygon id="Triangle" fill="#AFF1B6" transform="translate(10.000000, 10.000000) rotate(90.000000) translate(-10.000000, -10.000000) " points="10 0 20 20 0 20"></polygon>
                <polygon id="Triangle-Copy" fill="#AFF1C3" transform="translate(50.000000, 10.000000) rotate(90.000000) translate(-50.000000, -10.000000) " points="50 0 60 20 40 20"></polygon>
                <polygon id="Triangle-Copy-2" fill="#AFF1C5" transform="translate(90.000000, 10.000000) rotate(90.000000) translate(-90.000000, -10.000000) " points="90 0 100 20 80 20"></polygon>
                <polygon id="Triangle-Copy-3" fill="#AFF1C6" transform="translate(130.000000, 10.000000) rotate(90.000000) translate(-130.000000, -10.000000) " points="130 0 140 20 120 20"></polygon>
                <polygon id="Triangle-Copy-4" fill="#AFF1CA" transform="translate(170.000000, 10.000000) rotate(90.000000) translate(-170.000000, -10.000000) " points="170 0 180 20 160 20"></polygon>
                <polygon id="Triangle-Copy-5" fill="#AFF1CC" transform="translate(210.000000, 10.000000) rotate(90.000000) translate(-210.000000, -10.000000) " points="210 0 220 20 200 20"></polygon>
                <polygon id="Triangle-Copy-6" fill="#AFF1CF" transform="translate(250.000000, 10.000000) rotate(90.000000) translate(-250.000000, -10.000000) " points="250 0 260 20 240 20"></polygon>
                <polygon id="Triangle-Copy-7" fill="#AFF1D3" transform="translate(290.000000, 10.000000) rotate(90.000000) translate(-290.000000, -10.000000) " points="290 0 300 20 280 20"></polygon>
                <polygon id="Triangle-Copy-8" fill="#AFF1D5" transform="translate(330.000000, 10.000000) rotate(90.000000) translate(-330.000000, -10.000000) " points="330 0 340 20 320 20"></polygon>
                <polygon id="Triangle-Copy-9" fill="#AFF1D8" transform="translate(370.000000, 10.000000) rotate(90.000000) translate(-370.000000, -10.000000) " points="370 0 380 20 360 20"></polygon>
                <polygon id="Triangle-Copy-10" fill="#AFF1D8" transform="translate(410.000000, 10.000000) rotate(90.000000) translate(-410.000000, -10.000000) " points="410 0 420 20 400 20"></polygon>
                <polygon id="Triangle-Copy-11" fill="#AFF1DA" transform="translate(450.000000, 10.000000) rotate(90.000000) translate(-450.000000, -10.000000) " points="450 0 460 20 440 20"></polygon>
                <polygon id="Triangle-Copy-12" fill="#AFF1DA" transform="translate(490.000000, 10.000000) rotate(90.000000) translate(-490.000000, -10.000000) " points="490 0 500 20 480 20"></polygon>
                <polygon id="Triangle-Copy-13" fill="#AFF1DA" transform="translate(530.000000, 10.000000) rotate(90.000000) translate(-530.000000, -10.000000) " points="530 0 540 20 520 20"></polygon>
                <polygon id="Triangle-Copy-14" fill="#AFF1DE" transform="translate(570.000000, 10.000000) rotate(90.000000) translate(-570.000000, -10.000000) " points="570 0 580 20 560 20"></polygon>
                <polygon id="Triangle-Copy-16" fill="#AFF1E0" transform="translate(634.000000, 10.000000) rotate(90.000000) translate(-634.000000, -10.000000) " points="634 0 644 20 624 20"></polygon>
                <polygon id="Triangle-Copy-17" fill="#AFF1E4" transform="translate(674.000000, 10.000000) rotate(90.000000) translate(-674.000000, -10.000000) " points="674 8.8817842e-16 684 20 664 20"></polygon>
                <polygon id="Triangle-Copy-18" fill="#AFF1E4" transform="translate(714.000000, 10.000000) rotate(90.000000) translate(-714.000000, -10.000000) " points="714 0 724 20 704 20"></polygon>
                <polygon id="Triangle-Copy-19" fill="#AFF1E7" transform="translate(754.000000, 10.000000) rotate(90.000000) translate(-754.000000, -10.000000) " points="754 0 764 20 744 20"></polygon>
                <polygon id="Triangle-Copy-20" fill="#AFF1E7" transform="translate(794.000000, 10.000000) rotate(90.000000) translate(-794.000000, -10.000000) " points="794 0 804 20 784 20"></polygon>
                <polygon id="Triangle-Copy-21" fill="#AFEFF1" transform="translate(834.000000, 10.000000) rotate(90.000000) translate(-834.000000, -10.000000) " points="834 0 844 20 824 20"></polygon>
                <polygon id="Triangle-Copy-22" fill="#AFEFF1" transform="translate(874.000000, 10.000000) rotate(90.000000) translate(-874.000000, -10.000000) " points="874 0 884 20 864 20"></polygon>
                <polygon id="Triangle-Copy-23" fill="#AFEFF1" transform="translate(914.000000, 10.000000) rotate(90.000000) translate(-914.000000, -10.000000) " points="914 0 924 20 904 20"></polygon>
                <polygon id="Triangle-Copy-24" fill="#C5EFFD" transform="translate(954.000000, 10.000000) rotate(90.000000) translate(-954.000000, -10.000000) " points="954 8.8817842e-16 964 20 944 20"></polygon>
                <polygon id="Triangle-Copy-25" fill="#C5EFFD" transform="translate(994.000000, 10.000000) rotate(90.000000) translate(-994.000000, -10.000000) " points="994 8.8817842e-16 1004 20 984 20"></polygon>
            </g>
            <g id="platform" transform="translate(728.000000, 402.000000)">
                <circle id="Oval-8" fill="#3D59F9" cx="98.5" cy="98.5" r="98.5"></circle>
                <path d="M57.0759223,117.309169 L94.982757,97.8293457 C97.3181036,96.6292418 100.088921,96.6292418 102.424268,97.8293457 L140.331103,117.309169 C144.329875,119.364085 145.905682,124.27157 143.850765,128.270342 C143.073805,129.782271 141.843031,131.013045 140.331103,131.790005 L102.424268,151.269828 C100.088921,152.469932 97.3181036,152.469932 94.982757,151.269828 L57.0759223,131.790005 C53.0771499,129.735088 51.5013433,124.827604 53.5562598,120.828831 C54.3332199,119.316903 55.5639937,118.086129 57.0759223,117.309169 Z" id="Rectangle-33-Copy-2" fill="#CBD3FF"></path>
                <path d="M57.0759223,88.4104085 L94.982757,68.9305853 C97.3181036,67.7304814 100.088921,67.7304814 102.424268,68.9305853 L140.331103,88.4104085 C144.329875,90.465325 145.905682,95.3728095 143.850765,99.3715819 C143.073805,100.88351 141.843031,102.114284 140.331103,102.891244 L102.424268,122.371068 C100.088921,123.571171 97.3181036,123.571171 94.982757,122.371068 L57.0759223,102.891244 C53.0771499,100.836328 51.5013433,95.9288434 53.5562598,91.930071 C54.3332199,90.4181425 55.5639937,89.1873687 57.0759223,88.4104085 Z" id="Rectangle-33-Copy" fill="#E8EBFF"></path>
                <path d="M57.0759223,61.5467721 L94.982757,42.066949 C97.3181036,40.8668451 100.088921,40.8668451 102.424268,42.066949 L140.331103,61.5467721 C144.329875,63.6016886 145.905682,68.5091731 143.850765,72.5079455 C143.073805,74.0198741 141.843031,75.2506479 140.331103,76.027608 L102.424268,95.5074312 C100.088921,96.7075351 97.3181036,96.7075351 94.982757,95.5074312 L57.0759223,76.027608 C53.0771499,73.9726915 51.5013433,69.0652071 53.5562598,65.0664346 C54.3332199,63.5545061 55.5639937,62.3237323 57.0759223,61.5467721 Z" id="Rectangle-33" fill="#FFFFFF"></path>
            </g>
        </g>
    </g>
</svg>