<?xml version="1.0" encoding="UTF-8"?>
<svg version="1.1" viewBox="0 0 324 540" xmlns="http://www.w3.org/2000/svg" xmlns:xlink="http://www.w3.org/1999/xlink">
<title>vote(w)-2</title>
<desc>Created with Sketch.</desc>
<defs>
<linearGradient id="j" x1="50%" x2="50%" y1="50%" y2="100%">
<stop stop-color="#fff" offset="0"/>
<stop stop-color="#FAFBFC" offset="1"/>
</linearGradient>
<rect id="b" x="46.71" y="36.18" width="230.58" height="467.64" rx="31.32"/>
<filter id="l" x="-8.5%" y="-2.7%" width="119.5%" height="109.6%">
<feOffset dx="0" dy="0" in="SourceAlpha" result="shadowOffsetOuter1"/>
<feGaussianBlur in="shadowOffsetOuter1" result="shadowBlurOuter1" stdDeviation="0.5"/>
<feColorMatrix in="shadowBlurOuter1" result="shadowMatrixOuter1" values="0 0 0 0 0   0 0 0 0 0.0823529412   0 0 0 0 0.250980392  0 0 0 0.14 0"/>
<feOffset dx="0" dy="2" in="SourceAlpha" result="shadowOffsetOuter2"/>
<feGaussianBlur in="shadowOffsetOuter2" result="shadowBlurOuter2" stdDeviation="2"/>
<feColorMatrix in="shadowBlurOuter2" result="shadowMatrixOuter2" values="0 0 0 0 0   0 0 0 0 0.0823529412   0 0 0 0 0.250980392  0 0 0 0.05 0"/>
<feOffset dx="3" dy="8" in="SourceAlpha" result="shadowOffsetOuter3"/>
<feGaussianBlur in="shadowOffsetOuter3" result="shadowBlurOuter3" stdDeviation="4.5"/>
<feColorMatrix in="shadowBlurOuter3" result="shadowMatrixOuter3" values="0 0 0 0 0.678431373   0 0 0 0 0.729411765   0 0 0 0 0.8  0 0 0 0.25 0"/>
<feMerge>
<feMergeNode in="shadowMatrixOuter1"/>
<feMergeNode in="shadowMatrixOuter2"/>
<feMergeNode in="shadowMatrixOuter3"/>
</feMerge>
</filter>
<filter id="k" x="-7.6%" y="-2.2%" width="117.8%" height="108.8%">
<feGaussianBlur in="SourceAlpha" result="shadowBlurInner1" stdDeviation="0.5"/>
<feOffset dx="0" dy="1" in="shadowBlurInner1" result="shadowOffsetInner1"/>
<feComposite in="shadowOffsetInner1" in2="SourceAlpha" k2="-1" k3="1" operator="arithmetic" result="shadowInnerInner1"/>
<feColorMatrix in="shadowInnerInner1" result="shadowMatrixInner1" values="0 0 0 0 1   0 0 0 0 1   0 0 0 0 1  0 0 0 1 0"/>
<feGaussianBlur in="SourceAlpha" result="shadowBlurInner2" stdDeviation="4.5"/>
<feOffset dx="0" dy="-4" in="shadowBlurInner2" result="shadowOffsetInner2"/>
<feComposite in="shadowOffsetInner2" in2="SourceAlpha" k2="-1" k3="1" operator="arithmetic" result="shadowInnerInner2"/>
<feColorMatrix in="shadowInnerInner2" result="shadowMatrixInner2" values="0 0 0 0 0   0 0 0 0 0   0 0 0 0 0  0 0 0 0.08 0"/>
<feMerge>
<feMergeNode in="shadowMatrixInner1"/>
<feMergeNode in="shadowMatrixInner2"/>
</feMerge>
</filter>
<linearGradient id="h" x1="50%" x2="50%" y2="100%">
<stop stop-color="#F3F4F6" offset="0"/>
<stop stop-color="#fff" offset="1"/>
</linearGradient>
<linearGradient id="g" y2="100%">
<stop stop-color="#fff" offset="0"/>
<stop stop-color="#FEFEFE" offset="1"/>
</linearGradient>
<rect id="c" x="60.75" y="89.91" width="202.5" height="360.18" rx="5.4"/>
<rect id="f" width="202.5" height="40.77"/>
<rect id="e" width="202.5" height="40.77"/>
<rect id="d" x=".75" y=".43" width="202.5" height="129.6"/>
<linearGradient id="i" y1="50%" y2="50%">
<stop stop-color="#8A55EA" offset="0"/>
<stop stop-color="#4458F6" offset="1"/>
</linearGradient>
</defs>
<g fill="none" fill-rule="evenodd">
<mask fill="white">
<use xlink:href="#b"/>
</mask>
<use fill="black" filter="url(#l)" xlink:href="#b"/>
<use fill="url(#j)" fill-rule="evenodd" xlink:href="#b"/>
<use fill="black" filter="url(#k)" xlink:href="#b"/>
<path d="m162 493.02c-8.947 0-16.2-7.253-16.2-16.2s7.253-16.2 16.2-16.2 16.2 7.253 16.2 16.2-7.253 16.2-16.2 16.2zm0-1.89c7.9032 0 14.31-6.4068 14.31-14.31s-6.4068-14.31-14.31-14.31-14.31 6.4068-14.31 14.31 6.4068 14.31 14.31 14.31z" fill="url(#h)" style="mix-blend-mode:multiply"/>
<mask id="a" fill="white">
<use xlink:href="#c"/>
</mask>
<use fill="url(#g)" fill-rule="evenodd" xlink:href="#c"/>
<rect x="60.372" y="89.532" width="203.26" height="360.94" rx="5.4" stroke="#000" stroke-opacity=".04" stroke-width=".756"/>
<g mask="url(#a)">
<g transform="translate(45.75 98.91)">
<g transform="translate(.25 6.09)">
<rect x=".71" y=".57" width="230.58" height="355.32" fill="#FAFBFD"/>
<path d="m25.145 32.835h70.742" stroke="#C1CBD8" stroke-linecap="square" stroke-width="4.05"/>
<path d="m25.145 45.795h42.999" stroke="#C1CBD8" stroke-linecap="square" stroke-width="4.05"/>
</g>
<g transform="translate(23.37 .18)" fill="#F2F2F2">
<circle cx="1.35" cy="1.35" r="1.35"/>
<circle cx="1.35" cy="6.21" r="1.35"/>
<circle cx="1.35" cy="11.07" r="1.35"/>
</g>
</g>
</g>
<g mask="url(#a)"></g>
<g mask="url(#a)">
<g transform="translate(60.75 163.35)">
<g>
<use fill="#FFFFFF" fill-rule="evenodd" xlink:href="#f"/>
<rect x=".675" y=".675" width="201.15" height="39.42" stroke="#F5F6F8" stroke-width="1.35"/>
</g>
<path d="m70.875 20.925h60.765" stroke="#E3E7ED" stroke-linecap="square" stroke-width="4.05"/>
</g>
</g>
<g mask="url(#a)">
<g transform="translate(60.75 204.12)">
<g>
<use fill="#FFFFFF" fill-rule="evenodd" xlink:href="#e"/>
<rect x=".675" y=".675" width="201.15" height="39.42" stroke="#F5F6F8" stroke-width="1.35"/>
</g>
<path d="m70.875 20.925h60.765" stroke="#E3E7ED" stroke-linecap="square" stroke-width="4.05"/>
</g>
</g>
<g mask="url(#a)">
<g transform="translate(60 262)">
<g>
<use fill="#FFFFFF" fill-rule="evenodd" xlink:href="#d"/>
<rect x="1.425" y="1.105" width="201.15" height="128.25" stroke="#F5F6F8" stroke-width="1.35"/>
</g>
<path d="m0.5 65.5h202" stroke="#F5F6F8" stroke-linecap="square" stroke-width="1.35"/>
<g transform="translate(14 21)" fill-rule="evenodd">
<g transform="translate(19.44)" stroke="#F5F6F8" stroke-linecap="square" stroke-width="5.4">
<path d="m0.1485 19.17h97.567"/>
<path d="m0.1485 29.16h87.872"/>
<path d="m0.53815 0.27h61.022"/>
<path d="m0.54 9.72h70.2"/>
</g>
<circle cx="3.645" cy="14.715" r="3.645" fill="#4AE3ED"/>
</g>
<g transform="translate(14 83)" fill-rule="evenodd">
<g transform="translate(19.44)" stroke="#F5F6F8" stroke-linecap="square" stroke-width="5.4">
<path d="m0.1485 19.17h97.567"/>
<path d="m0.1485 29.16h87.872"/>
<path d="m0.53815 0.27h61.022"/>
<path d="m0.54 9.72h70.2"/>
</g>
<circle cx="3.645" cy="14.715" r="3.645" fill="#4AE3ED"/>
</g>
</g>
</g>
<g mask="url(#a)">
<g transform="translate(52 88)">
<rect x=".48214" y=".91" width="218" height="33.09" fill="#1D1D26" fill-rule="evenodd"/>
<text fill="#F2F2F2" font-family="PingFangTC-Regular, PingFang TC" font-size="10" letter-spacing=".3375">
<tspan x="39.3545898" y="21">近期會議</tspan>
<tspan x="80.7045898" y="21" font-family="ArialMT, Arial">| Upcoming Meeting</tspan>
</text>
<g transform="translate(17 11)" fill="#F2F2F2" fill-rule="evenodd">
<ellipse cx="1.8171" cy="1.44" rx="1.3982" ry="1.35"/>
<ellipse cx="1.8171" cy="6.3" rx="1.3982" ry="1.35"/>
<ellipse cx="1.8171" cy="11.16" rx="1.3982" ry="1.35"/>
</g>
</g>
</g>
<text fill="#BCBCBC" font-family="PingFangTC-Regular, PingFang TC" font-size="8.5" letter-spacing=".24286" mask="url(#a)">
<tspan x="66.8129745" y="257">投票選項</tspan>
<tspan x="101.784403" y="257" font-family="ArialMT, Arial">| Poll Options</tspan>
</text>
<g mask="url(#a)">
<g transform="translate(53 415)">
<g fill="none" fill-rule="evenodd">
<g fill="#1D1D26">
<g transform="translate(.1 .7)">
<rect width="216.27" height="40"/>
</g>
</g>
<g transform="translate(25 3)">
<rect width="30" height="30"/>
<path d="m21.042 12.083-5.2083-5.2083v5.2083h5.2083zm-13.125-6.6667h7.5l6.6667 6.6667v12.083h-14.167v-18.75z" fill="#EDEEEF" opacity=".25"/>
</g>
<g transform="translate(162 3)">
<rect width="30" height="30"/>
<path d="m8.413 19.246c0.62221 0.57555 2.6467 1.8757-0.27398 3.8387 1.2216 0.44296 3.0458 0.046608 4.5098-1.1542 0.52235-0.42844 1.6961-0.264 2.3512-0.264 4.8325 0 8.75-3.1713 8.75-7.0833 0-3.912-3.9175-7.0833-8.75-7.0833s-8.75 3.1713-8.75 7.0833c0 1.7856 0.81619 3.4169 2.163 4.6628z" fill="#EDEEEF" opacity=".25"/>
</g>
<g transform="translate(118 4)">
<rect width="28" height="28"/>
<path d="m5.0556 5.0556h17.889v17.889h-17.889v-17.889zm5.2146 5.8333-0.33961-1.1839 0.95831-0.76586h-1.1805l-0.35992-1.1613-0.38996 1.1613h-1.1808l0.93947 0.74882-0.36983 1.1739 0.97058-0.70399 0.95219 0.73099zm0 4.6667-0.33961-1.1839 0.95831-0.76586h-1.1805l-0.35992-1.1613-0.38996 1.1613h-1.1808l0.93947 0.74882-0.36983 1.1739 0.97058-0.70399 0.95219 0.73099zm0 4.6667-0.33961-1.1839 0.95831-0.76586h-1.1805l-0.35992-1.1613-0.38996 1.1613h-1.1808l0.93947 0.74882-0.36983 1.1739 0.97058-0.70399 0.95219 0.73099zm1.7854-11.278v0.77778h8.5556v-0.77778h-8.5556zm0 4.6667v0.77778h8.5556v-0.77778h-8.5556zm0 4.6667v0.77778h8.5556v-0.77778h-8.5556z" fill="url(#i)"/>
</g>
</g>
<path d="m94.998 14.53h-17.998v11.766h17.998v-11.766zm-0.030761-1.5269c-0.0034451-0.72375-0.45779-0.81938-1.3675-0.86365h-7.2888c-0.59278 0-1.4215-0.33971-1.8412-0.75472l-0.63728-0.62958c-0.41993-0.41522-1.0356-0.75493-1.8412-0.75493h-3.4825c-0.7526 0-1.5092 0.5633-1.5092 1.1626v2.688h18l-0.032326-0.84774z" fill="#EDEEEF" fill-rule="nonzero" opacity=".25"/>
</g>
</g>
</g>
</svg>
