<?xml version="1.0" encoding="UTF-8"?>
<svg width="400px" height="400px" viewBox="0 0 400 400" version="1.1" xmlns="http://www.w3.org/2000/svg" xmlns:xlink="http://www.w3.org/1999/xlink">
    <!-- Generator: Sketch 48.2 (47327) - http://www.bohemiancoding.com/sketch -->
    <title>connect</title>
    <desc>Created with Sketch.</desc>
    <defs></defs>
    <g id="Page-1" stroke="none" stroke-width="1" fill="none" fill-rule="evenodd">
        <g id="connect">
            <circle id="Oval-29" fill="#FCF7DE" cx="200" cy="200" r="200"></circle>
            <g id="Group-50" transform="translate(84.000000, 93.000000)">
                <g id="Group-49-Copy" transform="translate(87.842767, 120.477987) scale(-1, 1) translate(-87.842767, -120.477987) translate(0.842767, 36.477987)" fill="#E6A03E">
                    <path d="M156.659795,124.497623 L173.985243,158.334856 C174.488656,159.318039 174.099725,160.523163 173.116542,161.026576 C172.674186,161.253072 172.163349,161.306764 171.683569,161.177188 L133.459297,150.853825 C119.544248,161.1843 102.309708,167.295597 83.6477987,167.295597 C37.4503951,167.295597 0,129.845202 0,83.6477987 C0,37.4503951 37.4503951,0 83.6477987,0 C129.845202,0 167.295597,37.4503951 167.295597,83.6477987 C167.295597,98.4833149 163.43347,112.416783 156.659795,124.497623 Z" id="Combined-Shape"></path>
                </g>
                <g id="Group-49" transform="translate(56.666667, 0.000000)">
                    <path d="M156.659795,124.497623 L173.985243,158.334856 C174.488656,159.318039 174.099725,160.523163 173.116542,161.026576 C172.674186,161.253072 172.163349,161.306764 171.683569,161.177188 L133.459297,150.853825 C119.544248,161.1843 102.309708,167.295597 83.6477987,167.295597 C37.4503951,167.295597 0,129.845202 0,83.6477987 C0,37.4503951 37.4503951,0 83.6477987,0 C129.845202,0 167.295597,37.4503951 167.295597,83.6477987 C167.295597,98.4833149 163.43347,112.416783 156.659795,124.497623 Z" id="Combined-Shape" fill="#FDD760"></path>
                    <g id="Group-52" transform="translate(45.759369, 74.161736)" fill="#E6A03E">
                        <circle id="Oval-28" cx="40.4153176" cy="10.4350415" r="10.0628931"></circle>
                        <circle id="Oval-28-Copy-2" cx="10.2266384" cy="10.4350415" r="10.0628931"></circle>
                        <circle id="Oval-28-Copy" cx="70.6039969" cy="10.4350415" r="10.0628931"></circle>
                    </g>
                </g>
            </g>
        </g>
    </g>
</svg>