<?xml version="1.0" encoding="UTF-8"?>
<svg width="400px" height="400px" viewBox="0 0 400 400" version="1.1" xmlns="http://www.w3.org/2000/svg" xmlns:xlink="http://www.w3.org/1999/xlink">
    <!-- Generator: Sketch 49.1 (51147) - http://www.bohemiancoding.com/sketch -->
    <title>engineers</title>
    <desc>Created with Sketch.</desc>
    <defs></defs>
    <g id="Page-1" stroke="none" stroke-width="1" fill="none" fill-rule="evenodd">
        <g id="engineers">
            <circle id="Oval-8" fill="#FCF7DE" cx="200" cy="200" r="200"></circle>
            <g id="Group-56" transform="translate(88.888889, 88.888889)">
                <g id="Group-54" transform="translate(0.000000, 55.192447)">
                    <path d="M164.34234,74.3826505 C149.878302,81.4949311 149.783547,81.6173647 162.057078,91.8127466 C164.671195,93.9775957 165.16169,95.8975776 164.431521,98.8693756 C163.361349,103.165683 160.050506,102.998728 156.795401,103.048814 C144.66679,103.254725 141.796277,106.988951 151.817988,115.826433 C154.649484,118.325192 157.419668,121.002036 154.967191,125.298343 C152.475698,129.683693 148.657638,128.169968 145.123842,127.335193 C141.617915,126.505984 137.755265,123.539751 134.6618,126.450332 C130.470295,130.401599 135.575905,133.95774 136.646076,137.586227 C137.688379,141.108976 140.157577,144.125296 136.267057,147.525611 C132.181454,151.081752 129.450287,148.004215 126.596496,145.928409 C117.098724,139.066561 112.355411,139.584121 114.690838,152.951647 C115.270514,156.307441 116.08429,160.425663 110.811466,161.922693 C105.806184,163.34181 104.022565,159.696627 102.183207,156.75822 C95.5392255,146.14545 91.6710011,148.560732 89.0791793,159.179066 C88.2375339,162.618338 88.293272,166.669778 82.9870046,167.009253 C77.6305729,167.343163 77.1122086,163.542156 76.2705632,159.99158 C73.6675938,148.961424 69.7659266,145.577804 62.6593184,157.331432 C60.7419277,160.514706 58.5792893,163.458678 53.7746648,161.750172 C48.7024974,159.947059 49.7392261,156.151617 50.2910334,152.623302 C52.6097384,137.85892 46.39494,140.201854 37.9840602,146.312405 C35.5260098,148.093258 33.1459928,150.881406 29.4895733,147.993085 C25.677087,144.971201 26.4629943,141.582015 28.3636636,138.137178 C34.9184645,126.294508 32.0033617,122.922018 19.2170409,127.502148 C15.7501309,128.74318 12.043547,129.104916 9.82517051,124.485829 C7.86876309,120.412128 10.5107492,118.45319 12.7848638,116.299472 C20.2983601,109.203887 23.8433034,103.41055 8.84417989,103.07664 C5.01497221,102.998728 1.40314313,102.820643 0.238216777,98.0179054 C-1.07162865,92.6196955 3.30381245,91.7737905 6.44186765,90.4604116 C16.9262048,86.0750617 19.5849124,81.962405 6.83760818,76.8535837 C3.7107006,75.6014216 -0.59785477,74.5106493 0.243790587,69.3239157 C1.19691215,63.3914501 5.90120805,64.4488314 9.90320385,63.8533588 C12.9353567,63.4025804 16.8481715,64.638047 18.6094956,60.9872989 C20.4934434,57.0972487 16.7924334,55.283005 14.836026,52.9400706 C12.043547,49.5954066 6.74285341,47.1300386 10.5832087,41.4813963 C13.7658544,36.7955276 18.0298193,39.4835022 21.886896,40.3349724 C24.9915084,41.0194876 28.3246469,43.1231199 31.0112235,40.2793207 C34.0043596,37.112742 30.3479401,34.3023338 29.467278,31.4807952 C28.1351374,27.25127 24.1777321,23.1775694 29.556459,19.1762159 C34.3666573,15.5922498 36.9752005,20.5730722 40.369651,22.2760127 C43.1286871,23.6673039 45.5142779,27.1566622 48.9756141,24.8359885 C52.2530146,22.6488787 50.4693953,18.942479 50.4303786,15.8538125 C50.3802143,11.9748926 47.9110164,7.51719566 53.79696,5.38017238 C59.4320823,3.32662657 61.2547182,7.61180346 63.4340781,10.9453372 C69.7046147,20.5341161 73.8069391,19.0259564 75.6184274,8.50222982 C76.9672895,0.633086819 81.565683,-0.952985144 88.4103221,0.466131876 C88.9565555,0.59969583 89.4972151,0.73882495 90.0490223,0.861258575 C91.9496916,1.95759604 93.2539632,3.90540371 95.4500445,4.53426733 C106.135039,1.15621231 115.933797,-1.80445536 123.424998,11.3571594 C126.273216,16.3546773 136.941488,10.9620327 141.355946,18.0186616 C142.074968,19.1428249 142.554315,20.3560308 142.805137,21.6582794 C142.275625,27.624136 141.05496,33.9183374 150.418962,33.940598 C152.146843,33.9461632 150.017647,33.50095 151.739955,34.1910305 C155.741951,35.7937979 161.198711,39.9732367 159.693782,42.3273014 C151.689791,54.8489221 174.581429,62.239461 164.34234,74.3826505" id="Fill-6" fill="#FCD669"></path>
                    <circle id="Oval-13" fill="#FCF7DE" cx="81.3362382" cy="82.788671" r="15.9767611"></circle>
                </g>
                <g id="Group-55" transform="translate(84.241104, 0.000000)">
                    <path d="M80.8408568,129.462221 C82.0741998,122.639931 79.7358708,119.175791 72.2855862,118.930345 C58.3783883,118.472923 61.8607685,112.660309 68.6692683,106.061151 C71.0020166,103.796352 73.3124419,101.419985 71.5433481,97.6713515 C69.802158,93.9952359 66.7271716,94.1848989 63.3452447,94.4247668 C48.7571968,95.4567568 48.7571968,95.4009736 54.3267729,81.3435965 C54.83462,80.0661603 55.1471413,78.7106275 55.5545351,77.394143 C58.1216744,74.6217159 62.3518734,75.2966931 66.1746786,71.9720119 C61.0459808,70.9902268 58.3449039,75.3692113 54.6448749,74.9898853 C52.9371692,74.3372213 50.6658091,72.6246758 49.6166304,73.1880865 C38.6393197,79.0843752 28.9511594,86.1019071 30.0394032,63.6770438 C30.3519245,57.2787059 21.4841326,61.3955092 18.0463983,66.0310966 C12.013621,74.1531366 8.123847,73.0542068 5.80784093,63.5487423 C7.43183555,60.3914108 7.35928596,57.4962605 4.46846393,55.0417979 L4.81446965,55.370919 C-0.660233849,47.3437105 -4.56675011,40.1142023 11.0648957,41.4362651 C20.3233392,42.2172305 19.5141323,37.45892 16.8297975,31.1052087 C15.5294857,28.0259737 11.6899383,24.6455092 15.2169644,21.0363335 C18.8221208,17.3434828 22.3379854,21.1200083 25.2120653,22.6149992 C34.7160613,27.5685511 36.5242202,23.2732415 35.9940501,14.7551404 C35.8098858,11.720532 34.2249563,7.65951201 37.6682714,5.83539999 C41.9598585,3.54828706 44.6051281,7.52563223 46.7592928,10.2590111 C53.7184725,19.1229683 57.5691814,16.4119027 60.3595501,7.20208942 C61.2580489,4.22884262 61.7324116,0.0450994569 65.7226389,0.000472863165 C70.5611383,-0.055310379 70.6894953,4.83687996 71.8670309,8.072308 C74.4509123,15.1512014 77.3417344,19.1062333 84.0386194,11.4248809 C86.577855,8.51299561 88.9050225,3.43114225 93.9500092,5.98043642 C97.9458173,7.99978979 96.3274034,12.5684373 95.9925592,16.0995165 C95.0326723,26.017777 99.5307467,25.9508371 106.752221,22.6038426 C109.749077,21.2148398 112.963582,17.2876996 116.697095,21.0028635 C119.788824,24.0765202 117.093328,27.3565748 115.642336,29.8668207 C109.682108,40.1811422 113.410041,42.9256777 123.91857,41.6091932 C126.909845,41.2410238 131.050752,40.6106731 132.278514,44.6270666 C133.411404,48.3254955 130.012735,50.5735602 127.607437,52.4478771 C118.856841,59.275746 121.167266,63.2977177 130.554067,66.0980365 C133.567665,66.9961467 137.557892,67.4981958 137.948544,71.3305046 C138.395003,75.5979226 134.153642,76.2282732 131.268401,77.0482869 C120.335736,80.1554135 117.86905,84.5790246 128.249222,91.9424126 C130.464775,93.5155 133.255144,95.5906366 132.311999,98.6419799 C131.089817,102.60259 127.116332,102.184216 124.024604,101.726793 C111.462364,99.8692113 109.966726,104.59963 115.8265,114.545782 C117.093328,116.704594 119.253073,119.437973 116.853356,122.14346 C113.728143,125.685696 110.993582,121.981688 108.113921,121.317868 C103.381456,120.224516 96.9468653,112.12479 95.5628424,124.486356 C95.0717375,128.876497 98.8610582,135.007075 93.9723322,137.327658 C87.364739,140.462677 85.7574866,131.403478 80.8408568,129.462221" id="Fill-8" fill="#E6A03E"></path>
                    <circle id="Oval-32" fill="#FCF7DE" cx="63.1808279" cy="73.3478577" r="7.98838054"></circle>
                </g>
            </g>
        </g>
    </g>
</svg>