<?xml version="1.0" encoding="UTF-8"?>
<svg width="400px" height="400px" viewBox="0 0 400 400" version="1.1" xmlns="http://www.w3.org/2000/svg" xmlns:xlink="http://www.w3.org/1999/xlink">
    <!-- Generator: Sketch 49.1 (51147) - http://www.bohemiancoding.com/sketch -->
    <title>general-contractor</title>
    <desc>Created with Sketch.</desc>
    <defs></defs>
    <g id="Page-1" stroke="none" stroke-width="1" fill="none" fill-rule="evenodd">
        <g id="general-contractor">
            <circle id="Oval-8" fill="#FCF7DE" cx="200" cy="200" r="200"></circle>
            <g id="Group-75" transform="translate(99.000000, 77.000000)">
                <g id="Group-74" transform="translate(0.000000, 88.000000)" fill="#FDD760">
                    <g id="Page-1" transform="translate(100.688791, 0.000000)">
                        <path d="M0,3.56240217 C0,3.56240217 37.9981535,2.96701232 43.2090114,0.542525105 C48.4198693,-1.88382853 60.7174199,3.02113867 43.2090114,31.8891477 C25.700603,60.7571567 32.3817598,71.6682823 32.3817598,71.6682823 C32.3817598,71.6682823 36.6611814,81.0974658 49.0902071,84.1957328 C60.6581635,87.0793608 99.4210946,100.504562 101.439515,132.528697 C101.695058,136.562044 98.5526183,140 94.5417021,140 L0,140" id="Fill-1"></path>
                    </g>
                    <g id="Page-1" transform="translate(51.311209, 70.000000) scale(-1, 1) translate(-51.311209, -70.000000) translate(0.311209, 0.000000)">
                        <path d="M0,3.56240217 C0,3.56240217 37.9981535,2.96701232 43.2090114,0.542525105 C48.4198693,-1.88382853 60.7174199,3.02113867 43.2090114,31.8891477 C25.700603,60.7571567 32.3817598,71.6682823 32.3817598,71.6682823 C32.3817598,71.6682823 36.6611814,81.0974658 49.0902071,84.1957328 C60.6581635,87.0793608 99.4210946,100.504562 101.439515,132.528697 C101.695058,136.562044 98.5526183,140 94.5417021,140 L0,140" id="Fill-1"></path>
                    </g>
                </g>
                <g id="Group-73" transform="translate(41.000000, 0.000000)" fill="#E6A03E">
                    <g id="Page-1" transform="translate(61.000000, 0.000000)">
                        <path d="M0,0 C5.16907504,0 9.36108101,4.13981558 9.36108101,9.24697004 L9.36108101,45.7334133 C9.36108101,48.3866857 11.3611754,50.7971362 14.0426206,50.9195342 C14.2863883,50.9313792 14.5381484,50.9254567 14.799899,50.9017667 C18.1567008,50.597746 20.5723992,47.5358223 20.5723992,44.2073869 L20.5723992,11.098733 C20.5723992,11.098733 45.5306196,16.4585801 48.7855184,52.5521653 C48.7855184,52.5521653 62.2347044,60.421171 60.482374,79 L0,79" id="Fill-1"></path>
                    </g>
                    <g id="Page-1" transform="translate(31.000000, 39.500000) scale(-1, 1) translate(-31.000000, -39.500000) translate(0.500000, 0.000000)">
                        <path d="M0,0 C5.16907504,0 9.36108101,4.13981558 9.36108101,9.24697004 L9.36108101,45.7334133 C9.36108101,48.3866857 11.3611754,50.7971362 14.0426206,50.9195342 C14.2863883,50.9313792 14.5381484,50.9254567 14.799899,50.9017667 C18.1567008,50.597746 20.5723992,47.5358223 20.5723992,44.2073869 L20.5723992,11.098733 C20.5723992,11.098733 45.5306196,16.4585801 48.7855184,52.5521653 C48.7855184,52.5521653 62.2347044,60.421171 60.482374,79 L0,79" id="Fill-1"></path>
                    </g>
                </g>
            </g>
        </g>
    </g>
</svg>