<?xml version="1.0" encoding="UTF-8"?>
<svg width="458px" height="456px" viewBox="0 0 458 456" version="1.1" xmlns="http://www.w3.org/2000/svg" xmlns:xlink="http://www.w3.org/1999/xlink">
    <!-- Generator: Sketch 48.2 (47327) - http://www.bohemiancoding.com/sketch -->
    <title>hire</title>
    <desc>Created with Sketch.</desc>
    <defs></defs>
    <g id="Page-1" stroke="none" stroke-width="1" fill="none" fill-rule="evenodd">
        <g id="hire">
            <path d="M1.89461046,432.145364 C-0.907805209,429.669103 0.2273934,426.350508 0.2273934,423.407411 C0.166397654,322.817769 0.159620349,222.228127 0.190118222,121.638485 C0.196895527,103.472473 9.6071837,94.0342654 27.8855756,94.0308825 C161.954226,93.990288 296.019487,93.990288 430.084749,94.0274996 C448.336031,94.0342654 457.810704,103.502919 457.814092,121.618188 C457.847979,222.204447 457.841202,322.794089 457.780206,423.383731 C457.776817,426.33021 458.898461,429.648806 456.106212,432.125067 C453.432565,433.491746 450.555599,432.849001 447.780292,432.849001 C387.940077,432.892978 328.099861,432.88283 268.259645,432.88283 C266.565319,432.88283 264.870993,432.838852 263.176666,432.879447 C260.658898,432.936956 258.683313,432.253616 258.344448,429.401856 C257.992028,426.472291 259.327157,424.510226 262.122796,423.644212 C265.697824,422.538013 269.398233,422.879683 273.057977,422.8763 C326.405535,422.849237 379.749703,422.869534 433.097261,422.842471 C436.9976,422.842471 441.087703,423.519045 444.293369,420.369593 C446.919574,417.223524 446.340115,413.414412 446.343504,409.821804 C446.404499,325.003103 446.411277,240.187784 446.353669,155.3657 C446.346892,144.658916 445.713214,144.039851 434.649264,144.036468 C297.466442,143.989108 160.28362,143.985725 23.0974096,144.039851 C12.2876079,144.046617 11.6640958,144.706276 11.6573185,155.632947 C11.6064887,240.451648 11.6098774,325.27035 11.6742618,410.089051 C11.6742618,413.674893 11.0880249,417.494154 13.8734973,420.521822 C17.1909881,423.532577 21.2810918,422.839088 25.1746536,422.842471 C78.4849357,422.869534 131.795218,422.849237 185.1055,422.879683 C188.755079,422.879683 192.462265,422.527864 196.02035,423.694955 C198.819377,424.611712 200.049458,426.641434 199.64282,429.540554 C199.23957,432.422759 197.155549,432.943721 194.691998,432.879447 C193.566965,432.845618 192.435156,432.88283 191.306734,432.88283 C130.38215,432.88283 69.4541766,432.886213 8.52959218,432.862533 C6.31002475,432.85915 4.00235236,433.329369 1.89461046,432.145364" id="Fill-4" fill="#7D7D7D"></path>
            <path d="M447.600057,424.436185 C444.585561,426.745062 441.073165,425.730505 437.791091,425.733875 C382.016145,425.794546 326.237811,425.777693 270.459478,425.777693 C268.488201,425.777693 266.516924,425.770952 264.545647,425.797917 C262.228889,425.838365 259.874872,425.888924 259.685196,429.057311 C259.481972,432.34704 261.805504,432.529053 264.166295,432.576242 C266.418699,432.626801 268.67449,432.606578 270.926894,432.606578 L456,432.72455 C453.144697,435.474979 449.56456,434.214365 446.336678,434.217736 C386.568372,434.302002 326.800066,434.339078 267.031759,434.18403 C261.487119,434.167177 258.276173,435.468238 255.017808,440.621922 C241.848865,461.435526 214.97582,461.031051 202.480905,439.957909 C199.689956,435.252518 196.766911,434.18403 191.82517,434.194142 C131.775737,434.328967 71.7263035,434.302002 11.6768702,434.217736 C8.44560165,434.214365 4.87223868,435.464867 2,432.744773 C63.4110371,432.697585 124.822074,432.653766 186.233111,432.606578 C187.923261,432.606578 189.647282,432.808815 191.296787,432.559389 C193.972575,432.154914 198.436739,434.18403 198.206418,429.067422 C197.986258,424.24743 193.657577,425.851847 190.941144,425.848476 C134.034915,425.75747 77.1320735,425.794546 20.2258447,425.733875 C16.9437701,425.730505 13.4279874,426.745062 10.4168787,424.436185 C14.2781429,420.435254 19.3418184,421.540819 23.9922709,421.530707 C75.8957915,421.432959 127.795925,421.476777 179.699446,421.463294 C183.079745,421.463294 186.463432,421.537448 189.843732,421.200386 C193.054678,420.876806 195.50692,419.461144 195.381598,416.080408 C195.002246,405.860676 200.66882,398.704841 207.131357,391.875956 C208.42522,385.09089 207.141519,378.133922 208.530219,371.365709 C209.143279,368.382706 210.196659,365.561494 212.066324,363.097568 C219.84982,356.52148 223.511247,356.373173 231.646998,362.275135 C235.108588,373.886935 240.097748,383.860612 253.707011,386.799796 C256.982311,387.507627 258.868911,391.771467 260.582771,395.067937 C262.743724,400.171062 262.18147,405.557319 262.337275,410.872794 C262.618402,420.499296 263.29243,421.304875 273.213169,421.365546 C294.37222,421.497001 315.534658,421.405994 336.693709,421.409364 C369.13849,421.416106 401.583271,421.355434 434.028052,421.470036 C438.688665,421.486889 443.748954,420.435254 447.600057,424.436185" id="Fill-6" fill="#B2B2B2"></path>
            <path d="M249.20841,61.0052538 C250.504331,56.5611521 242.9101,52.8166162 247.58683,48.8219939 C251.51488,45.4627261 254.952764,53.6108092 258.545084,51.6946072 C271.638585,44.7124671 268.22756,50.9747641 268.40214,60.5219789 C268.57672,70.1773391 272.276474,76.9093928 258.890886,69.3628687 C258.679376,69.2445846 258.343645,69.383146 258.071703,69.3628687 C254.063077,69.0688483 250.823275,75.7603475 246.982514,71.6744775 C243.658779,68.1428529 249.889943,64.918767 249.20841,61.0052538" id="Fill-8" fill="#FDD760"></path>
            <path d="M219,15.5300265 C218.528225,18.8985712 216.107813,19.6123024 213.403653,19.3855093 C208.261988,18.9586047 205.151007,20.2393187 205.844995,26.1092578 C206.08772,28.1770773 206.227885,30.9219409 202.863923,30.9986503 C199.927293,31.062019 198.843578,28.8841382 199.04186,26.5328273 C199.489705,21.2932395 197.698327,18.6951244 191.927628,19.3855093 C189.623451,19.6589951 187.120992,19.2921239 187.004757,16.2237466 C186.864592,12.491666 189.849083,12.4549789 192.354961,12.6917775 C197.753025,13.202062 199.414494,10.7740417 198.976906,5.89465479 C198.717088,3.02305387 199.212793,-0.138708825 203.103229,0.00470446205 C206.169767,0.118101014 206.074045,3.02972425 205.865507,5.16424759 C205.284334,11.0942202 208.101311,13.1920564 213.865172,12.6784368 C216.111232,12.47499 218.500876,12.6417497 219,15.5300265" id="Fill-10" fill="#FDD760"></path>
            <path d="M254.744431,1 C258.562307,1.74239906 261.270746,3.73931505 260.978418,7.77782846 C260.731876,11.1804908 258.34042,13.9404281 254.913488,13.9988576 C250.817371,14.0675983 248.996483,11.0258243 249.000005,7.11104411 C249.003527,3.40592288 250.849069,1.32995514 254.744431,1" id="Fill-12" fill="#FDD760"></path>
            <path d="M186,59.9926154 C185.629288,63.0124667 184.056361,64.7370904 181.631144,64.9799456 C179.271754,65.2122418 177.979459,63.3961075 178.000247,61.1083414 C178.01757,58.8381735 179.34451,57.2789729 181.645002,57.0290784 C184.007857,56.7651054 185.175426,58.3419042 186,59.9926154" id="Fill-14" fill="#FDD760"></path>
            <path d="M447.37891,424 C397.72004,423.888296 348.064562,423.773207 298.409083,423.664889 C288.532931,423.644579 278.629645,423.214688 268.7908,423.807057 C261.298897,424.260642 258.205816,422.348137 258.812901,414.230993 C259.328414,407.35613 260.366224,400.139386 257.24262,393.410077 C258.246514,388.241237 262.624987,389.175487 265.972433,388.969004 C273.867929,388.495109 281.790557,388.89792 289.70301,388.759136 C299.467243,388.589888 300.14555,387.977209 300.216772,377.97464 C300.342259,360.206962 300.25747,342.439284 300.25747,324.674991 C300.25747,280.961561 300.287994,237.251517 300.240513,193.541472 C300.226947,181.562083 299.911534,181.257436 287.844449,181.247282 C248.004076,181.206662 208.163702,181.199892 168.323329,181.250667 C157.260139,181.267591 156.775149,181.717792 156.764974,192.617377 C156.714101,254.095099 156.71071,315.576207 156.768366,377.053929 C156.778541,388.261546 157.321186,388.691437 168.947372,388.772676 C178.837091,388.840375 188.72681,388.725287 198.616528,388.82345 C202.560885,388.86407 206.600204,388.691437 209.832338,391.636356 C209.944259,394.08707 207.953427,394.882537 206.386537,396.013115 C200.149503,400.504962 196.930935,406.536969 198.043359,414.214068 C199.210047,422.249973 195.750681,423.864601 188.245211,423.823982 C132.084767,423.52272 75.9209311,423.654734 19.7604867,423.675043 C16.3791253,423.678428 12.9977639,423.888296 9.61979408,424 C7.06596749,421.383423 8.29709505,418.106777 8.29370351,415.161858 C8.21908972,326.936147 8.35475116,238.710436 8.02577217,150.488111 C7.99524835,142.367581 10.5829903,140.989901 17.9561895,141.000055 C158.318298,141.203153 298.680406,141.203153 439.039123,141.000055 C446.415714,140.989901 449.003456,142.367581 448.972932,150.488111 C448.643953,238.710436 448.779614,326.936147 448.705001,415.161858 C448.705001,418.106777 449.932737,421.383423 447.37891,424" id="Fill-16" fill="#FEFEFE"></path>
            <path d="M227.656013,132.85741 C157.685584,132.85741 87.715155,132.762636 17.7447261,132.999571 C10.6958582,133.026649 7.64055848,131.791204 8.03347951,123.85728 C8.73802757,109.549815 13.7003492,104.012315 27.9877709,104.00893 C161.438657,103.995391 294.892931,103.998776 428.34043,104.00893 C444.023399,104.00893 451.095977,112.785665 448.460697,128.609511 C448.020354,131.239485 447.180316,132.820178 444.338413,132.806638 C442.079117,132.796484 439.823209,132.85741 437.5673,132.85741 C367.593484,132.85741 297.623055,132.85741 227.656013,132.85741" id="Fill-18" fill="#B1B1B1"></path>
            <path d="M209.875851,392.230662 C193.531112,392.227279 177.186373,392.078425 160.845017,392.311856 C155.718051,392.386283 153.989899,390.640627 154.000044,385.488235 C154.125175,318.963849 154.121793,252.439462 154.003426,185.915076 C153.996662,180.867559 155.528665,178.983197 160.760469,179.000113 C205.844622,179.15235 250.932157,179.142201 296.016309,179.010262 C300.994471,178.99673 302.993176,180.417613 302.98303,185.712093 C302.847754,252.233096 302.834226,318.757482 302.99994,385.281868 C303.013467,391.080424 300.754356,392.467476 295.488732,392.311856 C285.353168,392.014147 275.200695,392.173151 265.058367,392.264493 C262.349462,392.288174 259.339568,391.398431 257.154859,394 C253.10672,387.484237 246.968566,384.327847 239.575725,384.141779 C234.807242,384.023372 232.882939,382.355526 233.305677,377.642931 C233.745324,372.747651 232.382417,368.170378 230.414149,363.748726 C233.09938,360.440098 236.944605,360.917109 240.519276,360.825766 C248.652754,360.612634 256.796377,360.714126 264.933236,360.744573 C270.469412,360.768254 273.408286,358.565886 273.090387,352.763947 C273.015985,351.366746 273.124206,349.956012 273.117442,348.555427 C273.05995,338.206663 272.474881,337.496222 262.22095,337.462391 C239.203716,337.371049 216.189864,337.401496 193.17263,337.445476 C180.977487,337.465774 180.456674,338.010446 180.480347,349.37751 C180.497257,360.250647 180.960577,360.37582 192.797239,360.866363 C199.574573,361.147157 206.896394,358.545588 213.004111,363.755492 C208.303266,372.845759 210.934386,382.741194 209.875851,392.230662" id="Fill-20" fill="#F1F1F1"></path>
            <path d="M213.359732,364 C203.775349,363.929053 194.187582,363.648641 184.613348,363.881754 C179.822847,364 178.429001,362.310774 178.256462,357.580942 C177.427597,335.104103 177.288889,335.11086 199.53968,335.11086 C222.375751,335.11086 245.211822,335.259512 268.04451,335.002749 C273.562382,334.938559 275.957632,335.958851 275.984697,342.252907 C276.082807,363.793914 276.336541,363.780401 254.451128,363.80405 C246.558305,363.814185 238.665482,363.925674 230.772659,363.989865 C224.970606,358.878267 219.161786,358.868132 213.359732,364" id="Fill-22" fill="#A0E3F2"></path>
            <path d="M209.414675,406.327577 C212.355461,410.773576 209.367622,419.038705 215.854156,418.384581 C223.476674,417.614623 220.176271,409.833273 220.411534,405.009109 C220.868617,395.663994 220.492196,386.281403 220.579579,376.912439 C220.606466,374.319792 219.836821,371.427337 222.86499,368 C225.116792,374.520798 224.216071,380.114921 224.068192,385.467155 C223.896786,391.708588 226.135144,394.495428 232.379693,393.902628 C234.880202,393.660739 237.421041,393.946918 239.938354,393.854932 C247.009684,393.592601 250.320169,397.663841 250.669702,404.171012 C251.059566,411.529907 251.160393,418.95694 250.66298,426.302207 C249.900056,437.585846 241.689382,446.239361 231.868837,446.917333 C219.164641,447.792905 210.3322,441.697969 208.070316,429.358193 C206.725956,422.012925 206.144521,414.326968 209.414675,406.327577" id="Fill-24" fill="#FEFEFE"></path>
            <path d="M45.916737,303.380094 C26.8198464,288.436798 20.1450736,268.691636 26.1191983,245.577342 C31.6634569,224.137405 46.5463048,209.534425 67.7789872,205.484659 C93.5574202,200.567086 113.388807,207.461898 127.946716,232.236937 C141.583968,255.44652 137.464698,280.313444 118.895833,298.904932 C116.719423,301.079554 114.265463,302.975117 111.940124,305 C108.836287,304.203659 107.800546,301.355211 106.199548,299.102316 C102.334137,293.667462 97.4769876,289.678953 91.1576159,287.276319 C82.0119587,283.798284 81.8122571,281.419472 89.6581614,274.990894 C99.0305985,267.306548 102.039662,255.596259 97.4972962,244.47812 C94.4476155,237.021786 87.6679147,232.468352 79.6798499,232.512593 C71.7324024,232.556834 64.7563848,237.117075 62.0587205,244.709535 C58.230542,255.460132 59.7266117,265.217005 68.0260757,273.639838 C75.3710336,281.089365 74.7888526,283.913992 65.2573312,288.259833 C60.0007784,290.659064 55.6378057,293.970343 52.2157999,298.690533 C50.6689586,300.824317 49.5553682,303.934809 45.916737,303.380094" id="Fill-26" fill="#DFDFDF"></path>
            <path d="M344.4817,302.351174 C328.549387,289.979878 321.195752,273.365828 323.375108,253.586713 C326.156833,228.306977 340.681363,210.900811 365.050221,204.951438 C387.354782,199.508612 408.853929,204.941239 424.782858,227.722239 C437.307388,245.63835 436.982515,273.240042 424.329389,290.754996 C420.532436,296.010842 416.54259,301.106905 410.485062,304 C403.652577,296.59558 397.402156,288.776404 387.520603,284.676436 C381.903007,282.344282 383.936847,277.764965 387.781178,274.650893 C393.80148,269.772407 397.398772,263.717645 397.936843,255.89167 C398.684727,245.060411 394.075592,236.503513 385.544292,232.995083 C378.058677,229.915008 369.209272,231.951393 363.923318,237.965359 C357.889479,244.832635 356.850562,258.570588 361.713505,266.71273 C363.625517,269.911792 366.488461,272.247346 368.931776,274.96366 C372.007917,278.397298 373.029914,282.684246 368.441083,284.955207 C359.930087,289.160564 352.667822,294.589792 346.840413,302.058805 C346.339567,302.704737 345.320955,302.626545 344.4817,302.351174" id="Fill-28" fill="#DFDFDF"></path>
            <path d="M344,302.210736 C349.363515,293.608371 356.520509,287.272111 366.076702,283.538305 C371.832752,281.295982 369.524918,278.316411 366.06655,275.669791 C356.405455,268.259935 354.033326,258.237433 356.510357,246.920499 C359.220878,234.567341 368.452215,227.983066 380.492207,229.12801 C390.98913,230.126863 398.931194,238.817561 399.797477,250.440266 C400.579163,260.972387 397.848339,270.145524 388.640689,276.267744 C383.060603,279.977768 384.515689,281.720664 389.835213,283.806704 C399.33388,287.537113 406.913864,293.496255 410,303.858503 C396.284967,315.909287 380.380537,316.92173 363.633511,312.827793 C356.253179,311.02714 349.055578,308.513021 344,302.210736" id="Fill-30" fill="#F1F1F1"></path>
            <path d="M46,302.500204 C51.6810212,294.443111 57.5515226,286.857588 67.8917256,283.964175 C73.6201169,282.360841 71.8437404,279.063227 68.2131652,276.28097 C58.6207321,268.924494 56.2217779,258.907022 58.5158413,247.747679 C60.9215626,236.049401 69.3229775,229.713535 80.7154722,230.00995 C91.6241157,230.289523 100.164257,237.811048 101.595509,249.394802 C103.023377,260.961715 100.313134,271.144237 89.2792987,277.544101 C87.7296217,278.440082 85.0092279,278.813969 85.899108,281.471597 C86.2340818,282.482102 87.9089511,283.452186 89.1304214,283.704813 C100.749616,286.116551 107.493079,293.843545 112,304.103538 C97.1697939,319.44974 58.6681021,318.287659 46,302.500204" id="Fill-32" fill="#F1F1F1"></path>
            <path d="M61.9488182,114 C65.1668347,114.684313 67.9860669,116.028373 67.9999377,119.958784 C68.0138084,123.980437 65.7112621,126.521167 61.8621259,126.949301 C58.0199251,127.377435 56.1959201,125.0613 56.0121325,121.239677 C55.8110064,116.993429 58.1239558,114.940491 61.9488182,114" id="Fill-34" fill="#A0E3F2"></path>
            <path d="M42.9996083,120.305193 C42.3228747,123.587114 40.2719575,126 36.2771575,126 C32.3306955,126 30.9496065,123.471901 31.0013974,120.038558 C31.0600936,116.042317 33.570223,113.849981 37.3923869,114.007988 C40.7829604,114.149535 43.0341356,116.35833 42.9996083,120.305193" id="Fill-36" fill="#6E82F2"></path>
            <path d="M93.9976103,120.331221 C93.323383,123.600653 91.2273398,126.139504 87.1330687,125.994049 C83.059758,125.848594 82.0606441,122.688254 82.0012562,119.541136 C81.9313881,115.805587 84.7855003,113.901449 88.1741035,114.003928 C91.5801737,114.106408 94.0884388,116.165919 93.9976103,120.331221" id="Fill-38" fill="#E8EBFF"></path>
            <path d="M194.787177,302.74067 C178.424405,289.779782 170.819748,272.809459 173.541773,252.166657 C176.529195,229.508927 189.278479,213.760495 210.898162,206.099003 C236.699555,196.956948 265.859247,208.706157 278.234252,232.599391 C291.578979,258.37141 284.801137,286.913955 261.272635,304 C253.807482,296.83203 247.628485,288.231146 237.022796,284.762883 C233.303829,283.544396 234.025166,279.78002 236.219798,276.921001 C237.784963,274.889055 240.003413,273.510599 241.779534,271.682869 C249.356971,263.868215 251.095664,250.178958 245.47128,240.910969 C241.62642,234.580283 235.733236,231.465994 228.380367,231.700842 C221.047912,231.93569 215.321452,235.288231 211.871286,241.894608 C206.692633,251.802472 208.856643,264.545531 216.903629,272.462292 C225.620914,281.02914 225.450787,282.074043 214.416379,287.618499 C209.043782,290.317549 204.13393,293.530543 200.629323,298.629128 C199.258103,300.620231 198.009374,303.200155 194.787177,302.74067" id="Fill-40" fill="#CBD3FF"></path>
            <path d="M195,303.526004 C200.549539,294.732315 207.629171,287.851925 217.711566,284.484926 C223.605629,282.520559 222.105937,280.314477 218.096622,277.199407 C207.152917,268.688287 203.971136,256.050976 209.0174,243.161735 C212.165404,235.117024 219.819243,230.030779 228.810645,230.000139 C237.815558,229.969499 245.523439,235.008082 248.708598,243.005131 C253.937257,256.125873 250.589969,268.395504 239.136233,277.577301 C237.565609,278.833542 235.586285,279.749339 235.947697,282.077981 C236.353019,284.706215 238.933572,284.02873 240.629171,284.7709 C249.911054,288.835811 257.520983,294.691461 261,304.78565 C247.212282,316.231404 231.472262,318.199175 214.745957,313.909571 C207.480553,312.047338 199.9348,310.147656 195,303.526004" id="Fill-42" fill="#6E82F2"></path>
        </g>
    </g>
</svg>