<?xml version="1.0" encoding="UTF-8"?>
<svg width="400px" height="400px" viewBox="0 0 400 400" version="1.1" xmlns="http://www.w3.org/2000/svg" xmlns:xlink="http://www.w3.org/1999/xlink">
    <!-- Generator: Sketch 49.1 (51147) - http://www.bohemiancoding.com/sketch -->
    <title>minor-works</title>
    <desc>Created with Sketch.</desc>
    <defs></defs>
    <g id="Page-1" stroke="none" stroke-width="1" fill="none" fill-rule="evenodd">
        <g id="minor-works">
            <circle id="Oval-4" fill="#FCF7DE" cx="200" cy="200" r="200"></circle>
            <g id="Group-7" transform="translate(98.666667, 101.333333)">
                <path d="M106.620213,101.116777 C110.855529,106.603692 113.357364,114.504666 123.467775,110.837508 C127.089345,109.524519 129.759843,113.210104 132.219512,115.610341 C150.763075,133.738813 169.119234,152.056172 187.864255,169.972722 C193.795572,175.648524 192.914776,180.085047 187.962642,185.622638 C174.268142,200.95928 172.558086,201.185022 157.903143,186.576284 C141.739603,170.465669 125.716616,154.216846 109.646778,138.023306 C106.376589,134.729314 103.706091,131.928269 105.210003,126.100438 C107.088722,118.853656 99.353648,116.504096 94.9918348,112.625017 C90.0490711,111.146176 86.8163632,107.98118 85.3358766,103.1116 C68.7694195,86.4665763 53.8661672,67.6055942 35.0321294,54.0011779 C23.3475299,45.5611879 12.426599,38.074843 5.20688454,25.6406 C2.70036459,21.3192514 0.957513331,18.4767438 5.40365807,13.8697624 C10.25272,8.85275953 13.6306656,10.5158798 18.1892524,13.5150248 C29.0258517,20.6328111 40.9962414,25.9216259 44.4538334,40.7376783 C45.7422315,46.2522351 52.4325315,50.8453956 57.2722233,55.2036001 C70.6481382,67.2462497 81.3160745,82.1498347 97.0157911,91.7369631 C101.222997,93.8699956 105.289649,96.1366304 106.620213,101.116777" id="Fill-4" fill="#FDD760"></path>
                <path d="M105.585049,98.6666667 C102.01754,95.9010273 97.0099369,94.5666872 96,89.2616461 C108.563427,76.6985332 121.599094,64.5509587 133.507933,51.4107091 C140.960893,43.1830475 140.38579,31.4556286 142.891929,21.2426165 C144.03746,16.551649 138.099405,14.5986182 133.998874,13.75369 C126.793723,12.280837 119.452978,11.4082062 112.130936,10.5771293 C107.4366,10.0461635 102.760966,9.85224553 100.063126,5.11972413 C125.161927,-8.03437682 169.285881,5.46138909 182.045685,30.7492132 C186.337917,39.2631346 190.86393,46.7751466 199.789714,51.110598 C207.312809,54.7627193 206.761084,59.1997467 200.650031,63.9969074 C198.531969,65.6590613 196.675742,67.6813485 194.856921,69.671316 C189.250836,75.8120511 185.861002,73.3049691 182.957434,67.0303382 C176.088928,52.190998 174.648833,54.0008988 159.284701,56.0878253 C136.80893,59.1397245 130.319151,79.6673247 114.959694,90.092723 C111.485698,92.447441 108.68967,95.7809829 105.585049,98.6666667" id="Fill-6" fill="#E6A03E"></path>
                <path d="M83.8467994,101.333333 C87.8789215,103.678046 91.0134822,106.932506 93.3333333,111.016995 C89.3656515,116.142536 82.9354293,119.819045 86.2495023,128.560133 C87.6809977,132.311672 83.2852481,135.34573 80.6109753,138.074975 C63.3409727,155.716591 46.112396,173.386343 28.7227185,190.901343 C19.3834767,200.30364 18.3248144,199.5674 5.74054281,187.571852 C-1.98769131,180.200076 -1.84960494,175.004194 5.77276296,167.613661 C23.4800391,150.450367 40.4784719,132.522696 57.7806947,114.918596 C61.7851995,110.852865 65.0256265,106.4917 72.4086446,109.230324 C77.7203672,111.199883 79.6213563,103.527984 83.8467994,101.333333" id="Fill-8" fill="#E6A03E"></path>
            </g>
        </g>
    </g>
</svg>