<?xml version="1.0" encoding="UTF-8"?>
<svg width="400px" height="400px" viewBox="0 0 400 400" version="1.1" xmlns="http://www.w3.org/2000/svg" xmlns:xlink="http://www.w3.org/1999/xlink">
    <!-- Generator: Sketch 48.2 (47327) - http://www.bohemiancoding.com/sketch -->
    <title>Group 48</title>
    <desc>Created with Sketch.</desc>
    <defs></defs>
    <g id="Page-1" stroke="none" stroke-width="1" fill="none" fill-rule="evenodd">
        <g id="Group-48">
            <circle id="Oval-31" fill="#FCF7DE" cx="200" cy="200" r="200"></circle>
            <g id="Group-45" transform="translate(77.000000, 124.000000)">
                <path d="M233.825463,2.54092949 C237.33376,1.80856584 240.842057,1.07620218 246,0 C218.642749,43.5495703 192.153863,85.7101322 165.669954,127.875659 C161.722498,134.161574 157.90567,140.531896 153.832562,146.734644 C149.095117,153.950288 144.052873,155.047592 136.409265,149.431977 C124.884136,140.961384 116.384603,128.53851 102.357636,123.383415 C101.56267,123.145087 100.751532,122.901793 100.077243,122.437549 C78.3096288,107.466298 78.7711813,102.465123 100.700525,88.2560268 C139.504528,63.1123689 179.528971,39.8716152 217.460876,13.4010136 C222.633747,9.37053089 229.411478,7.73574626 233.825463,2.54092949" id="Fill-6" fill="#FBD569"></path>
                <path d="M233,3 C232.37067,12.4431913 223.536506,11.5781661 218.079419,14.9549956 C182.960801,34.5336469 146.734662,51.9223924 110.519671,69.3011952 C99.0579296,74.8008163 87.6928175,80.5117224 76.1579845,85.8572298 C71.8505401,87.8544934 67.8168792,91.4948075 62.4105843,89.3397018 C43.7115434,79.9400103 24.992681,70.581333 6.34319358,61.085942 C3.90391892,59.8443326 -0.166907143,59.2912633 0.00529152488,56.0076477 C0.234476802,51.6203794 4.72403056,52.481676 7.70715569,51.8316642 C68.0175712,38.6723448 128.332942,25.5304253 188.655746,12.4233056 C203.422711,9.21426116 218.218169,6.13695904 233,3" id="Fill-8" fill="#FBD569"></path>
                <path d="M62.3268305,89.1016169 C111.901606,65.1542564 161.471426,41.196991 211.06974,17.2979165 C213.243963,16.2504826 215.684545,15.7540039 218,15 C206.634571,28.3925446 190.249226,34.7241961 176.145886,44.170911 C149.028177,62.3350991 121.14856,79.387472 93.2454048,96.3420348 C84.6005432,101.594062 83.3678637,105.476748 91.4676209,112.333355 C95.28583,115.567276 101.024294,117.560619 102.001765,123.624841 C92.8043657,131.688596 83.640416,139.794447 74.3835507,147.793822 C71.6951945,150.1165 69.1418755,154.230712 65.2059733,152.645942 C60.3148994,150.676122 62.4878841,145.508286 62.4420458,141.734553 C62.2264818,124.191891 62.3342638,106.645516 62.3268305,89.1016169" id="Fill-10" fill="#E5A03E"></path>
            </g>
        </g>
    </g>
</svg>