<?xml version="1.0" encoding="UTF-8"?>
<svg width="351px" height="477px" viewBox="0 0 351 477" version="1.1" xmlns="http://www.w3.org/2000/svg" xmlns:xlink="http://www.w3.org/1999/xlink">
    <!-- Generator: Sketch 48.2 (47327) - http://www.bohemiancoding.com/sketch -->
    <title>post</title>
    <desc>Created with Sketch.</desc>
    <defs></defs>
    <g id="Page-1" stroke="none" stroke-width="1" fill="none" fill-rule="evenodd">
        <g id="post">
            <g>
                <path d="M234.879892,17.0050288 C237.932784,5.52816872 243.242623,0.0177206535 250.784646,4.76321254e-05 C258.19578,-0.0176253892 262.974988,4.88133614 267.188192,16.8707138 C270.973353,16.4925112 270.290609,13.2088638 271.001654,10.9149056 C273.223225,3.77147039 278.412788,0.137897199 285.502006,0.261608348 C292.198559,0.374715685 297.402272,3.99415046 299.224102,10.7381754 C300.221686,14.4070947 300.755854,17.3302124 305.570438,17.521081 C309.429888,17.6766036 310.034806,21.3773343 309.652753,24.2050177 C308.641018,31.7337248 312.832996,32.2709847 318.567339,31.8963166 C326.314539,31.3873336 333.831799,32.0730468 340.401,37.0639081 C346.910063,42.0052848 350.677537,48.265069 350.893327,56.5077662 C350.967615,59.4485569 350.995915,62.3964169 350.995915,65.3407422 C350.999453,191.688707 351.00299,318.036671 350.995915,444.38817 C350.995915,468.359856 342.431545,476.998429 318.730065,476.998429 C222.636486,476.998429 126.542906,477.001964 30.4528634,476.998429 C9.48236051,476.998429 0.0371441094,467.815527 0.030069041,447.039123 C-0.00884383558,318.62695 -0.0123813698,190.214777 0.0336065752,61.806138 C0.0406816437,41.2912948 9.76890078,31.8609706 30.6368152,31.8468321 C80.7459876,31.8185553 130.85516,31.7655362 180.96787,31.9351973 C187.063041,31.9528703 191.453121,31.6064791 190.317573,23.7066385 C189.963819,21.2253463 190.696089,17.4221121 193.971846,17.6872074 C201.241479,18.2774863 203.006708,14.0960495 204.959427,8.35938674 C206.947521,2.52022048 212.4873,-0.0565060363 218.44097,0.247469931 C225.12691,0.586791942 230.03347,4.21683053 232.131227,10.8830942 C232.725533,12.7705729 232.403618,14.9973736 234.879892,17.0050288" id="Fill-4" fill="#7D7D7D"></path>
                <path d="M341.996181,255.699576 C341.996181,319.030155 342.006789,382.357198 341.992646,445.691314 C341.98911,463.218893 336.289467,468.980076 318.844033,468.983613 C223.138115,469.004833 127.428661,469.004833 31.7192071,468.98715 C14.5955274,468.983613 8.04730221,462.660104 8.04023069,445.680704 C7.98719431,319.016009 7.98719431,192.35485 8.03669493,65.6936917 C8.04376645,47.013169 14.2773091,41.0079574 33.1299749,41.0079574 C127.951953,40.9973475 222.777467,40.9973475 317.602982,41.0079574 C336.901153,41.0079574 341.992646,46.1785224 341.996181,65.7078383 C342.003253,129.038418 341.996181,192.368997 341.996181,255.699576" id="Fill-6" fill="#DFDFDF"></path>
                <path d="M249.118245,31.9201255 C234.363757,31.9201255 219.609268,31.9704961 204.858322,31.8661569 C202.510212,31.8481674 198.954401,33.0174854 199.000443,28.6352414 C199.035859,24.6091896 202.318963,25.0409378 204.861863,25.0373399 C234.958753,24.9869692 265.055643,24.9869692 295.152532,25.0409378 C297.674183,25.0481336 300.971453,24.5768085 300.999787,28.6388393 C301.031661,33.0390728 297.486476,31.8481674 295.145449,31.8661569 C279.803048,31.9704961 264.460647,31.9201255 249.118245,31.9201255" id="Fill-8" fill="#EFEFEF"></path>
                <path d="M218.353794,18 C215.795804,17.2536675 212.091011,19.1717781 212.001739,15.0759631 C211.922767,11.4668867 214.542561,9.26754941 218.075677,9.01877191 C221.413081,8.7844163 223.644884,10.7602144 223.96077,14.0592203 C224.448333,19.1357233 220.266277,17.0301283 218.353794,18" id="Fill-10" fill="#6E82F2"></path>
                <path d="M284.647584,18 C282.507518,17.2653361 278.521954,19.4329583 279.047211,14.7522036 C279.387918,11.6898916 281.279552,9.13675267 284.860526,9.00582247 C288.391814,8.87489227 290.723528,10.9625016 290.975509,14.2212089 C291.358805,19.2001935 287.153201,17.3671707 284.647584,18" id="Fill-12" fill="#CBD3FF"></path>
                <path d="M250.687298,18 C248.4099,17.4695868 244.679069,19.1344948 245.022094,14.5780985 C245.283782,11.181981 247.752142,9.21503218 250.994959,9.01612725 C254.336793,8.8135389 256.812226,10.5189645 256.989043,14.1692384 C257.236586,19.2634147 253.233458,17.46222 250.687298,18" id="Fill-14" fill="#A0E3F2"></path>
                <path d="M175.969081,299.872222 C130.657451,299.872222 85.3493526,299.882819 40.041254,299.865158 C29.1574224,299.858093 28.0273685,298.773677 28.0238371,287.646931 C27.9920543,216.428696 27.9920543,145.21046 28.0238371,73.9922236 C28.0273685,63.4589045 29.2916163,62.1272273 39.5609811,62.123695 C130.473817,62.0848397 221.386654,62.1554857 312.29949,62.0000645 C320.079205,61.9859353 323.035002,64.288995 322.999688,72.6287557 C322.699517,145.023248 322.738363,217.41774 322.960842,289.812232 C322.985562,297.526775 320.457066,300.045305 312.779763,299.999385 C267.178556,299.737995 221.573819,299.872222 175.969081,299.872222" id="Fill-16" fill="#7D7D7D"></path>
                <path d="M174.807781,439.854729 C129.404647,439.854729 83.997975,439.717364 38.594841,439.999139 C31.4410081,440.044928 28.9078012,438.280309 29.0033272,430.753384 C29.403121,399.645379 29.424349,368.526807 29.0033272,337.422324 C28.8865732,329.095861 31.8301879,326.979023 39.7906845,327.000156 C130.596953,327.222054 221.406759,327.222054 312.213027,327.000156 C320.187675,326.979023 323.110062,329.120516 322.996846,337.432891 C322.575824,368.245032 322.621818,399.067739 322.97208,429.883402 C323.056992,437.604048 320.506095,440.044928 312.782645,439.995617 C266.792203,439.713842 220.798223,439.854729 174.807781,439.854729" id="Fill-18" fill="#CCCCCC"></path>
                <path d="M174.501703,291.832978 C131.518934,291.832978 88.5361644,291.681011 45.5533949,291.984945 C38.5486384,292.037957 35.9828194,290.638446 36.0181613,282.958806 C36.3256354,215.838826 36.3468406,148.711777 36.0004903,81.5917972 C35.9580801,73.4279832 38.6617323,71.9860628 46.087057,72.0072675 C132.052596,72.2475876 218.018135,72.2546558 303.987208,72.0001993 C311.525627,71.9789946 314.038433,73.6400303 313.999557,81.6801501 C313.667343,148.80013 313.720356,215.923645 313.950078,283.047159 C313.971283,289.818531 312.349092,292.052093 305.217105,291.999082 C261.64766,291.666875 218.074682,291.832978 174.501703,291.832978" id="Fill-20" fill="#E8EBFF"></path>
                <path d="M175.627452,432.854356 C132.289918,432.854356 88.9559245,432.709811 45.6219309,432.9989 C38.53883,433.048257 35.876915,431.458268 36.0043471,423.839721 C36.4538992,396.834596 36.3335467,369.818894 36.0609836,342.810244 C36.0008073,336.665344 37.1406166,333.982459 44.2095584,334.000086 C132.056293,334.229242 219.906567,334.225717 307.753301,334.003612 C314.70543,333.985984 316.047007,336.457341 315.976211,342.718582 C315.682409,370.019846 315.647011,397.328162 315.99745,424.629427 C316.085944,431.348979 313.884201,433.023578 307.399323,432.988324 C263.474186,432.73449 219.549049,432.854356 175.627452,432.854356" id="Fill-22" fill="#FEFEFE"></path>
                <path d="M176.872075,290.852514 C144.115259,290.852514 111.358443,290.693164 78.6051713,290.987076 C72.0382147,291.047274 70.007526,289.156323 70.0358777,282.502583 C70.269779,225.593448 70.3052186,168.684314 70.0004381,111.778721 C69.9614546,104.441546 72.5201932,102.996775 79.1934686,103.018021 C144.111715,103.219864 209.033506,103.23757 273.95884,103.000316 C280.880193,102.971987 283.020744,104.841692 282.985304,111.920365 C282.71242,168.532046 282.6947,225.147269 282.99948,281.762491 C283.042008,289.372331 280.479725,291.072062 273.370543,290.997699 C241.205568,290.664835 209.03705,290.852514 176.872075,290.852514" id="Fill-24" fill="#FEFEFE"></path>
                <path d="M228.58254,414.292742 C227.191633,411.606771 227.047625,408.72565 227.005477,405.752277 C226.759609,388.462005 234.792447,382.533 251.061841,387.92623 C254.63043,389.107774 255.020305,391.754715 254.999231,394.838081 C254.964107,401.288669 254.932496,407.739257 254.897372,414.193393 C248.125482,420.562373 235.740792,420.608499 228.58254,414.292742" id="Fill-26" fill="#CCCCCC"></path>
                <path d="M273.11441,414.232735 C273.075083,410.665261 273.00358,407.101363 273.000005,403.533889 C272.992855,388.173735 280.586469,382.969084 295.859501,387.669713 C299.549054,388.806443 300.017399,391.419492 299.999523,394.561586 C299.960196,401.099571 299.93517,407.637556 299.906569,414.171966 C292.924305,420.58484 280.314758,420.613437 273.11441,414.232735" id="Fill-28" fill="#CBCBCB"></path>
                <path d="M184.314228,414.296305 C184.233178,407.897336 184.293085,401.487791 184.014693,395.099399 C183.785637,389.747534 186.234776,387.924797 191.355061,388.002361 C214.5003,388.365498 210.557011,385.488606 210.979884,406.367225 C211.036267,408.979696 210.796639,411.599219 210.690921,414.218742 C203.882668,420.561301 191.42554,420.600083 184.314228,414.296305" id="Fill-30" fill="#CBD3FF"></path>
                <path d="M140.204167,414.268097 C140.161432,411.642151 140.047473,409.016204 140.093769,406.390258 C140.471259,386.19364 136.066016,388.071823 160.218288,388.029696 C165.154155,388.019164 167.109271,390.343197 166.995311,395.043922 C166.842178,401.461342 166.913403,407.885784 166.892036,414.303204 C159.76245,420.580199 147.194864,420.562646 140.204167,414.268097" id="Fill-32" fill="#CBCBCB"></path>
                <path d="M96.1183991,414.146453 C96.0789365,410.591288 96.0035986,407.032551 96.0000111,403.473814 C95.9892486,388.245562 103.79927,382.928895 118.913473,387.68817 C122.597852,388.849404 123.014003,391.504165 122.999653,394.619847 C122.967366,401.140626 122.942253,407.66855 122.917141,414.192902 C115.792335,420.620782 103.067417,420.599344 96.1183991,414.146453" id="Fill-34" fill="#CBCBCB"></path>
                <path d="M52.3499525,414.151854 C52.2544138,407.751242 52.3039524,401.343565 52.0173364,394.950017 C51.8085668,390.241399 53.4574931,387.92418 58.4785798,388.001891 C83.36109,388.37632 78.3612341,385.017058 78.9450814,407.179002 C79.0052353,409.499753 78.7363117,411.82757 78.6195423,414.151854 C71.8327598,420.616049 59.1402734,420.616049 52.3499525,414.151854" id="Fill-36" fill="#6E82F2"></path>
                <path d="M228.85278,374.909 C228.342721,372.933791 227.626543,370.986698 227.350552,368.979858 C224.953974,351.677445 235.039865,343.302135 251.658704,348.552958 C255.127804,349.649516 254.981074,352.141373 254.991555,354.759755 C255.019504,360.899775 254.970594,367.039794 254.953126,373.176299 C248.773028,378.894565 238.142142,379.601002 228.85278,374.909" id="Fill-38" fill="#CBCBCB"></path>
                <path d="M273.756975,374.746629 C272.445567,367.789921 273.240147,360.783749 273.222568,353.795242 C273.215536,351.042944 273.472192,348.21645 277.047801,348.128122 C283.425533,347.965599 289.817328,347.933801 296.19506,348.174053 C299.647614,348.308311 300.020293,351.124206 299.999198,353.922435 C299.949976,360.338576 299.914818,366.754717 299.876144,373.174392 C293.558181,378.961638 282.739944,379.615265 273.756975,374.746629" id="Fill-40" fill="#CBD3FF"></path>
                <path d="M185.240526,374.838585 C185.16226,372.191617 184.963039,369.541091 185.01996,366.897681 C185.539357,344.683072 181.206302,348.649967 204.219876,348.009571 C209.847867,347.85303 212.348801,349.585656 211.961032,355.502198 C211.573263,361.368933 211.847192,367.271245 211.832962,373.155768 C205.411644,378.926443 194.589679,379.609531 185.240526,374.838585" id="Fill-42" fill="#CBCBCB"></path>
                <path d="M140.318248,373.25694 C140.255423,367.448461 140.499741,361.615518 140.052989,355.834998 C139.567844,349.491804 142.422868,347.807275 148.255075,348.016967 C169.657286,348.803314 166.606808,344.011843 166.997716,366.973158 C167.039599,369.555869 166.49512,372.15256 166.21939,374.738766 C157.444903,379.58965 146.680973,378.974552 140.318248,373.25694" id="Fill-44" fill="#6E82F2"></path>
                <path d="M96.6933087,373.072303 C96.6338637,370.134989 96.2422263,367.154848 96.5919026,364.267501 C97.235307,358.953213 93.6686088,351.586732 98.9207467,348.75649 C104.844263,345.562206 112.470703,347.653659 119.345339,347.892784 C122.782657,348.014131 123.013443,351.015687 122.999456,353.788824 C122.960992,360.252341 122.915534,366.719426 122.870076,373.186512 C115.656254,379.650028 103.498009,379.596492 96.6933087,373.072303" id="Fill-46" fill="#CBD3FF"></path>
                <path d="M52.1247726,373.148047 C52.0997838,371.085053 51.9998284,369.02206 52.0569457,366.966193 C52.6673875,344.868295 47.5910826,348.491894 72.1336956,348.00376 C76.9636818,347.911121 79.2126776,349.514483 78.9842082,354.591798 C78.7093309,360.762962 78.8878227,366.959067 78.8699735,373.140921 C71.7053154,379.618505 59.3072798,379.618505 52.1247726,373.148047" id="Fill-48" fill="#CBCBCB"></path>
                <path d="M96.2062916,373 C105.074174,376.085259 113.952732,375.804134 122.845524,373.113873 C123.717367,379.65448 120.902561,382.487083 114.305028,381.93195 C111.073873,381.6615 107.785782,381.675734 104.551069,381.93195 C97.8859226,382.458615 95.1956662,379.522814 96.2062916,373" id="Fill-50" fill="#E8EBFF"></path>
                <path d="M52.1302201,373.007116 C61.044697,375.803674 69.9556053,375.82858 78.8665136,373 C79.6373411,379.372309 77.1036026,382.499758 70.3838428,381.934042 C67.1506498,381.663637 63.8567898,381.660079 60.6235969,381.934042 C53.903837,382.503316 51.3700986,379.375867 52.1302201,373.007116" id="Fill-52" fill="#E5E5E5"></path>
                <path d="M140.213505,373 C148.860388,376.579759 157.842449,374.27771 166.67475,374.534699 C167.872834,379.576766 165.726267,381.867957 160.809132,381.871576 C156.704983,381.878815 152.579439,381.647163 148.493118,381.947587 C141.917922,382.428991 139.175879,379.605723 140.213505,373" id="Fill-54" fill="#CBD3FF"></path>
                <path d="M185.073939,374.686366 C194.006087,374.094534 203.131867,376.536734 211.877556,373 C212.61981,379.417461 210.016542,382.483581 203.271712,381.938096 C199.420597,381.631484 195.522867,381.816878 191.646652,381.888183 C186.644505,381.973749 184.568346,379.517288 185.073939,374.686366" id="Fill-56" fill="#E5E5E5"></path>
                <path d="M229.058961,374.751606 C237.982542,374.05878 247.124908,376.616907 255.85481,373 C256.66898,379.405975 254.090179,382.465068 247.329347,381.942784 C243.477287,381.644336 239.5786,381.814878 235.70502,381.896596 C230.708819,381.992525 228.61063,379.562305 229.058961,374.751606" id="Fill-58" fill="#E5E5E5"></path>
                <path d="M273.215027,374.596185 C282.095368,374.241079 291.136909,376.579759 299.827391,373 C300.708619,379.345285 298.254794,382.440809 291.563194,381.949399 C287.479455,381.651683 283.356312,381.87766 279.254662,381.87766 C274.314771,381.87766 272.297977,379.452893 273.215027,374.596185" id="Fill-60" fill="#E8EBFF"></path>
                <path d="M52.2378682,414 C61.0802838,416.899739 69.9226994,416.9035 78.7615424,414 C79.6404249,419.250371 78.2077749,422.296789 72.4843204,421.977103 C67.8398193,421.721354 63.1631639,421.721354 58.5222355,421.977103 C52.798781,422.296789 51.3589857,419.250371 52.2378682,414" id="Fill-62" fill="#CBD3FF"></path>
                <path d="M96.1635905,414 C105.061945,416.804593 113.963874,416.607421 122.869379,414.044194 C123.545068,418.966678 121.646704,421.36333 116.066017,420.95539 C111.690129,420.635836 107.246314,420.642635 102.866851,420.95199 C97.2647127,421.346333 95.398525,418.932683 96.1635905,414" id="Fill-64" fill="#E4E4E4"></path>
                <path d="M141.139884,414 C150.050633,416.741217 158.96495,416.631978 167.882836,414.034137 C168.518044,418.966963 166.615989,421.370221 161.059708,420.953748 C156.691764,420.629444 152.259585,420.636272 147.891641,420.953748 C142.313948,421.356567 140.440442,418.936239 141.139884,414" id="Fill-66" fill="#E4E4E4"></path>
                <path d="M185.155873,414.073675 C194.04483,416.481514 202.930226,416.689144 211.801383,414 C212.659308,418.902748 210.790384,421.310587 205.169374,420.958956 C200.776514,420.680999 196.326696,420.670953 191.930276,420.962305 C186.366224,421.330681 184.397624,418.996517 185.155873,414.073675" id="Fill-68" fill="#E8EBFF"></path>
                <path d="M229.100192,414.095142 C238.02131,416.548447 246.93529,416.850863 255.838565,414 C256.595076,418.920202 254.74662,421.339528 249.151295,420.945368 C244.787085,420.636157 240.351505,420.619167 235.990863,420.952164 C230.452634,421.373508 228.514967,419.005151 229.100192,414.095142" id="Fill-70" fill="#E4E4E4"></path>
                <path d="M273.11258,414.054534 C282.03385,416.607397 290.947982,416.774407 299.854978,414 C300.56868,418.935309 298.698782,421.351837 293.117635,420.949651 C288.75335,420.636081 284.317695,420.625856 279.95341,420.953059 C274.393674,421.372288 272.491659,418.976209 273.11258,414.054534" id="Fill-72" fill="#E4E4E4"></path>
                <path d="M175.439843,271.661871 C150.137413,271.661871 124.838517,271.739347 99.536087,271.55488 C96.4969684,271.529054 91.2986619,273.831205 91.0124193,268.208645 C90.7085075,262.231909 96.055236,264.375418 99.0519484,264.368039 C149.950118,264.231533 200.844755,264.268427 251.742925,264.268427 C252.626389,264.268427 253.509854,264.235222 254.389785,264.286873 C256.990705,264.438136 260.192381,263.984347 259.990951,268.175441 C259.789521,272.318574 256.495965,271.61022 253.993993,271.621288 C237.515609,271.684007 221.040758,271.658181 204.565908,271.661871 L175.439843,271.661871 Z" id="Fill-74" fill="#CECECE"></path>
                <path d="M175.051139,233.715001 C149.728068,233.715001 124.408533,233.793557 99.0889978,233.61026 C96.0937959,233.587815 90.8955115,235.839751 91.0015989,229.731094 C91.0900051,224.452886 95.839186,226.323265 98.6575756,226.315783 C149.890735,226.20356 201.123895,226.20356 252.353518,226.315783 C255.175444,226.323265 259.924625,224.456627 259.998886,229.746057 C260.087292,235.843492 254.892544,233.587815 251.897342,233.61026 C226.284299,233.793557 200.667719,233.715001 175.051139,233.715001" id="Fill-76" fill="#CDCDCD"></path>
                <path d="M175.076762,214.711523 C149.754228,214.711523 124.43523,214.790082 99.1126963,214.606778 C96.1175578,214.584333 90.9299922,216.847576 91.0007157,210.757394 C91.0643668,205.460283 95.813447,207.326991 98.6317768,207.319509 C149.863849,207.207282 201.092386,207.207282 252.324458,207.32325 C255.146324,207.326991 259.888332,205.445319 259.997953,210.719985 C260.118183,216.836353 254.912937,214.584333 251.917798,214.606778 C226.305298,214.790082 200.689262,214.711523 175.076762,214.711523" id="Fill-78" fill="#CDCDCD"></path>
                <path d="M176.548578,246.079156 C201.578866,246.079156 226.612695,246.071728 251.642983,246.086584 C253.990901,246.090298 256.345901,246.179433 258.690277,246.353989 C259.986412,246.450551 260.857585,247.330758 260.981533,248.697493 C261.151518,250.547042 260.135149,251.590663 258.46363,251.739221 C256.416728,251.924919 254.352119,251.962058 252.294592,251.962058 C201.646152,251.9732 150.99417,251.969486 100.342189,251.969486 C99.4603917,251.969486 98.5644293,252.051193 97.6932563,251.947202 C95.5224065,251.679798 92.1864513,252.808839 92.0093836,249.347435 C91.7862783,244.957542 95.5932335,246.149721 97.9234442,246.142293 C124.133003,246.04573 150.342561,246.079156 176.548578,246.079156" id="Fill-80" fill="#CBCBCB"></path>
                <path d="M128.633006,194.964702 C118.269949,194.964702 107.910448,195.034204 97.5509468,194.91605 C94.8446027,194.888249 90.9646797,195.934262 91.0002427,191.347096 C91.0322494,187.416729 94.4285156,188.059627 96.9499321,188.052677 C118.262836,188.004025 139.57574,187.997075 160.888644,188.056152 C163.38161,188.063102 166.802771,187.298575 166.991254,191.204616 C167.208189,195.836958 163.342491,194.895199 160.60414,194.923 C149.94591,195.023779 139.291236,194.964702 128.633006,194.964702" id="Fill-82" fill="#CDCDCD"></path>
                <path d="M135.067703,142.934 C135.680341,138.806686 132.66065,132.706657 141.607346,133.010959 C150.405413,133.308266 153.863738,137.075314 152.819715,147.991707 C152.275953,153.679005 147.175467,153.455151 142.549866,153.906357 C132.544648,154.88572 135.553463,147.974219 135.067703,142.934" id="Fill-84" fill="#B5B5B5"></path>
                <path d="M120.651633,153.986715 C112.827226,154.096703 109.010442,150.083919 109.000033,143.800416 C108.986154,137.502722 113.354636,133.04289 119.478839,133.000314 C125.575284,132.957738 130.06521,137.243718 129.999283,143.630113 C129.936827,149.757503 126.626634,154.277651 120.651633,153.986715" id="Fill-86" fill="#B5B5B5"></path>
                <path d="M194.382546,153.981425 C188.080109,154.314428 184.205717,150.137718 184.006582,144.051555 C183.807448,137.873284 188.146487,133.282091 194.316168,133.012855 C200.601137,132.736533 204.803927,136.938041 204.992581,143.396176 C205.177741,149.78346 201.904247,153.949542 194.382546,153.981425" id="Fill-88" fill="#B5B5B5"></path>
                <path d="M166.830971,155 C164.191146,149.527864 165.168338,145.353653 165.214034,141.359209 C165.249185,137.925641 163.663884,133.003595 169.885576,133 C174.328637,133 179.081025,133.1546 180.63469,138.367871 C182.096963,143.27194 178.979087,146.464618 174.669599,147.496486 C170.9401,148.38454 169.077107,150.912077 166.830971,155" id="Fill-90" fill="#B7B7B7"></path>
                <path d="M221.992555,137.089172 C219.660469,140.085038 216.681351,136.336656 214.280063,139.034355 C216.314583,143.723381 228.684326,143.336475 222.075596,152.327621 C218.380244,157.360959 213.290484,154.230208 209,151.507662 C210.854596,145.288757 216.909715,153.924943 218.857733,147.990005 C216.363024,144.099639 207.96198,145.721808 209.166083,138.036916 C209.577831,135.41021 211.53969,133.97262 213.857935,133.369187 C217.491006,132.424993 220.497805,133.16331 221.992555,137.089172" id="Fill-92" fill="#B6B6B6"></path>
                <path d="M234.62881,133 C239.737664,133.574568 248.254809,131.728768 238.609921,140.135418 C236.887876,141.636477 238.019199,146.39821 237.78291,149.655293 C237.636124,151.691418 237.854513,154.280566 234.754115,153.975326 C232.330362,153.738317 232.709857,151.436454 232.623934,149.741478 C232.369744,144.721189 233.024909,140.440657 227.601002,136.124214 C224.840717,133.926491 232.355423,134.343053 234.62881,133" id="Fill-94" fill="#BCBCBC"></path>
                <path d="M103.403124,133 C105.683585,138.572746 105.056373,143.875385 104.35076,148.794186 C103.501978,154.718783 98.9955974,154.757877 94.622158,152.963083 C93.0779896,152.326909 92.1473981,149.07851 94.1210703,149.334401 C104.275767,150.652953 99.9773203,142.841157 100.924956,138.42703 C101.272649,136.799276 100.618167,134.890753 103.403124,133" id="Fill-96" fill="#B5B5B5"></path>
                <path d="M147,148.667792 C146.572388,150.992691 144.648136,150.964121 142.89714,150.98912 C141.164576,151.01769 138.886439,151.149827 139.0044,148.728503 C139.096558,146.753589 141.02081,145.992907 142.926631,146.00005 C144.806647,146.007192 146.384387,146.717876 147,148.667792" id="Fill-98" fill="#EAEAEA"></path>
                <path d="M142.588464,141.996169 C141.459107,142.035982 140.313191,141.78516 140.048239,140.308099 C139.733609,138.540402 141.021937,138.090515 142.058561,138.034777 C143.323706,137.963113 145.032645,137.783955 144.999526,140.152828 C144.973031,141.773217 143.664831,141.87673 142.588464,141.996169" id="Fill-100" fill="#F5F5F5"></path>
                <path d="M126,143.280766 C125.687393,147.22912 123.669655,149.807493 120.060462,149.990158 C116.323384,150.179847 113.97883,147.608499 114.000144,143.937654 C114.014354,140.807775 115.719484,138.398015 119.293153,138.043225 C123.385467,137.635743 125.015998,140.164938 126,143.280766" id="Fill-102" fill="#FCFCFC"></path>
                <path d="M195.147795,150 C191.406592,149.32948 189.032641,147.401301 189.000513,144.246731 C188.957674,140.209715 191.602934,137.8959 195.833207,138.0036 C199.449466,138.097404 201.184413,140.359105 200.984501,143.711705 C200.759601,147.394353 198.160749,149.121028 195.147795,150" id="Fill-104" fill="#FCFCFC"></path>
                <path d="M175,140.640629 C174.692073,142.786524 173.159062,143.103685 171.447255,142.975471 C169.937421,142.860754 168.904377,141.983501 169.00702,140.377454 C169.149394,138.194444 170.778425,137.873909 172.48361,138.035864 C173.960334,138.170826 174.917224,139.014338 175,140.640629" id="Fill-106" fill="#F8F8F8"></path>
            </g>
            <rect id="Rectangle-75" fill="#FEFEFE" x="85" y="125" width="164" height="34"></rect>
            <text id="JOB-POST" fill="#BCBCBC" font-family="AvenirNext-DemiBold, Avenir Next" font-size="30" font-weight="500">
                <tspan x="89.65" y="150">JOB POST</tspan>
            </text>
        </g>
    </g>
</svg>