<?xml version="1.0" encoding="UTF-8"?>
<svg width="400px" height="400px" viewBox="0 0 400 400" version="1.1" xmlns="http://www.w3.org/2000/svg" xmlns:xlink="http://www.w3.org/1999/xlink">
    <!-- Generator: Sketch 49.1 (51147) - http://www.bohemiancoding.com/sketch -->
    <title>RIs</title>
    <desc>Created with Sketch.</desc>
    <defs></defs>
    <g id="Page-1" stroke="none" stroke-width="1" fill="none" fill-rule="evenodd">
        <g id="RIs">
            <circle id="Oval-26" fill="#FCF7DE" cx="200" cy="200" r="200"></circle>
            <g id="Group-46" transform="translate(130.458221, 97.035040)">
                <path d="M141.239895,133.194077 C136.271822,130.80867 130.696603,129.471167 124.806318,129.471167 C103.956022,129.471167 87.0535169,146.230107 87.0535169,166.903307 C87.0535169,174.556146 89.3697423,181.672596 93.345031,187.601078 L7,187.601078 C3.13400675,187.601078 4.73447626e-16,184.467071 0,180.601078 L8.8817842e-16,7 C4.14730794e-16,3.13400675 3.13400675,1.59834986e-15 7,8.8817842e-16 L85.6644021,0 C90.5180637,1.61180965 92.9448944,17.604765 92.9448944,47.9788661 C120.452547,42.361675 136.550879,48.1651094 141.239892,65.3891694 L141.239892,133.194065 Z" id="Combined-Shape" fill="#FCD669"></path>
                <rect id="Rectangle-66" fill="#FFFFFF" x="32.3450135" y="94.8787062" width="77.6280323" height="11.8598383" rx="5.92991914"></rect>
                <rect id="Rectangle-66-Copy" fill="#FFFFFF" x="33.4231806" y="119.67655" width="44.2048518" height="11.8598383" rx="5.92991914"></rect>
                <g id="Group-47" transform="translate(95.956873, 139.083558)" fill="#E6A03E">
                    <path d="M28.5714286,57.1428571 C12.7918643,57.1428571 0,44.3509929 0,28.5714286 C0,12.7918643 12.7918643,0 28.5714286,0 C44.3509929,0 57.1428571,12.7918643 57.1428571,28.5714286 C57.1428571,44.3509929 44.3509929,57.1428571 28.5714286,57.1428571 Z M28.5714286,49.1071429 C39.9129904,49.1071429 49.1071429,39.9129904 49.1071429,28.5714286 C49.1071429,17.2298667 39.9129904,8.03571429 28.5714286,8.03571429 C17.2298667,8.03571429 8.03571429,17.2298667 8.03571429,28.5714286 C8.03571429,39.9129904 17.2298667,49.1071429 28.5714286,49.1071429 Z" id="Combined-Shape"></path>
                    <rect id="Rectangle-67" transform="translate(56.064690, 55.525606) rotate(41.000000) translate(-56.064690, -55.525606) " x="42.0485175" y="51.7520216" width="28.032345" height="7.54716981" rx="3.77358491"></rect>
                </g>
            </g>
        </g>
    </g>
</svg>