<?xml version="1.0" encoding="UTF-8"?>
<svg width="400px" height="400px" viewBox="0 0 400 400" version="1.1" xmlns="http://www.w3.org/2000/svg" xmlns:xlink="http://www.w3.org/1999/xlink">
    <!-- Generator: Sketch 49.1 (51147) - http://www.bohemiancoding.com/sketch -->
    <title>security-firm</title>
    <desc>Created with Sketch.</desc>
    <defs></defs>
    <g id="Page-1" stroke="none" stroke-width="1" fill="none" fill-rule="evenodd">
        <g id="security-firm">
            <circle id="Oval-8" fill="#FCF7DE" cx="200" cy="200" r="200"></circle>
            <g id="Page-1" transform="translate(111.000000, 93.000000)">
                <g id="Group-64">
                    <path d="M25.7074468,86.6599329 C26.6006588,74.0355137 24.4824703,61.3347064 27.728658,48.7408425 C35.7216296,17.7221507 64.7944048,-3.00450762 96.2865086,0.356572107 C128.222666,3.76857728 152.803861,30.7998063 153.395933,63.1934853 C153.46739,67.002709 153.758322,70.8577656 153.32958,74.6211564 C152.456784,82.2803441 153.855299,86.5173416 163.154912,87.9992722 C173.286489,89.613609 178.824403,97.6496451 178.860132,108.308342 C178.962213,136.261322 179.14596,164.219394 178.793779,192.172374 C178.615137,205.861135 170.132174,213.81569 155.983696,213.943004 C134.771186,214.13652 113.543365,213.785135 92.3257513,213.662914 C86.0171224,204.796793 88.3752021,195.161697 89.778821,185.618268 C96.0006808,178.534538 100.104352,170.692019 99.588841,160.822666 C99.3897824,156.993072 101.911192,153.794954 103.835426,150.52554 C111.440489,137.590476 109.863331,130.934519 97.2256572,122.23136 C94.4694602,120.336933 91.4019149,118.844818 89.9829838,115.514293 C87.8647953,106.16438 87.2625152,96.8501155 90.5291191,87.6224239 C96.2252598,81.3687786 103.901779,83.1155215 110.782064,83.3956115 C121.510816,83.8386629 124.705963,79.1484289 124.517113,69.0346345 C124.124099,48.2621433 115.227707,34.1557935 98.7875023,30.142868 C76.0488763,24.5919939 56.8984106,39.2330609 54.8771994,63.2393182 C54.1677338,71.7285908 57.7354778,81.1497991 50.2171846,88.4576013 C41.8107835,90.9325782 33.4809434,92.4959895 25.7074468,86.6599329" id="Fill-4" fill="#E6A03E"></path>
                    <path d="M25.46352,86.845646 L51.1000381,86.845646 C64.7528325,81.1445801 78.3547405,80.2088119 91.8701419,87.2779302 C91.8599646,97.220467 91.854876,107.157918 91.8497874,117.095369 C89.6209674,120.965584 85.1684161,122.008152 82.0592632,124.774771 C75.3320943,130.770807 72.3806889,138.150153 77.3421032,146.032983 C82.2068335,153.763242 85.4075818,161.513843 85.1226185,170.683354 C84.9546937,176.211506 90.0077033,179.283267 91.8650533,183.890908 C91.8701419,193.818188 91.8752305,203.750553 91.8803191,213.677833 C68.610014,213.794804 45.3346203,214.140631 22.0694038,213.937203 C9.1188404,213.825318 0.391839903,205.37289 0.244269632,192.628135 C-0.0814026894,164.717832 -0.0763140594,136.792272 0.229003742,108.881969 C0.381662643,94.5911618 8.26903918,88.1068987 25.46352,86.845646" id="Fill-6" fill="#FCD669"></path>
                    <path d="M91.9212964,87.0266667 L51.1380777,86.5940823 C51.1431673,77.693022 50.6138456,68.751248 51.2602289,59.8959908 C52.6446087,40.994597 67.6488429,26.2256566 85.6915872,25.2739709 C106.436926,24.1797868 122.591417,36.0784025 126.68857,55.463273 C132.348241,82.2529706 128.953457,86.54319 102.075112,86.6704207 C98.6905065,86.6856884 95.3059015,86.9045252 91.9212964,87.0266667" id="Fill-8" fill="#FCF7DE"></path>
                    <path d="M78.9847923,154.91852 C73.5446728,151.02477 70,144.656536 70,137.461283 C70,125.608544 79.6188134,116 91.484221,116 C103.349629,116 112.968442,125.608544 112.968442,137.461283 C112.968442,144.656536 109.423769,151.02477 103.98365,154.91852 L103.98365,172.528 C103.98365,178.311526 99.2951755,183 93.5116496,183 L89.4567923,183 C83.6732664,183 78.9847923,178.311526 78.9847923,172.528 L78.9847923,154.91852 Z" id="Combined-Shape" fill="#FFFFFF"></path>
                </g>
            </g>
        </g>
    </g>
</svg>