<?xml version="1.0" encoding="UTF-8"?>
<svg width="400px" height="400px" viewBox="0 0 400 400" version="1.1" xmlns="http://www.w3.org/2000/svg" xmlns:xlink="http://www.w3.org/1999/xlink">
    <!-- Generator: Sketch 48.2 (47327) - http://www.bohemiancoding.com/sketch -->
    <title>submit</title>
    <desc>Created with Sketch.</desc>
    <defs></defs>
    <g id="Page-1" stroke="none" stroke-width="1" fill="none" fill-rule="evenodd">
        <g id="submit">
            <circle id="Oval-8" fill="#FCF7DE" cx="200" cy="200" r="200"></circle>
            <rect id="Rectangle-63" fill="#FCD669" x="89.1518738" y="96.2524655" width="212.228797" height="207.495069" rx="20"></rect>
            <g id="Group-44" transform="translate(112.031558, 123.865878)" fill="#FFFFFF">
                <rect id="Rectangle-64" x="0" y="0" width="166.469428" height="36.2919132" rx="10"></rect>
                <rect id="Rectangle-64-Copy-2" x="0" y="116.765286" width="166.469428" height="36.2919132" rx="10"></rect>
                <rect id="Rectangle-64" x="0" y="58.382643" width="72.5838264" height="36.2919132" rx="10"></rect>
                <rect id="Rectangle-64-Copy" x="93.8856016" y="58.382643" width="72.5838264" height="36.2919132" rx="10"></rect>
            </g>
            <path d="M225.013328,194.416872 L348.694142,194.416872 C356.89334,194.416872 360.992938,200.023197 360.992938,211.235847 C360.992938,222.448497 356.89334,228.054823 348.694142,228.054823 L225.013328,228.054823 L199.807292,213.849374 C198.363881,213.035906 197.853211,211.206344 198.666679,209.762933 C198.93562,209.285726 199.330085,208.891261 199.807292,208.62232 L225.013328,194.416872 Z" id="Path-13" fill="#E6A03E" transform="translate(279.636308, 211.235847) rotate(-41.000000) translate(-279.636308, -211.235847) "></path>
        </g>
    </g>
</svg>