<?xml version="1.0" encoding="UTF-8"?>
<svg width="400px" height="400px" viewBox="0 0 400 400" version="1.1" xmlns="http://www.w3.org/2000/svg" xmlns:xlink="http://www.w3.org/1999/xlink">
    <!-- Generator: Sketch 49.1 (51147) - http://www.bohemiancoding.com/sketch -->
    <title>surveyors</title>
    <desc>Created with Sketch.</desc>
    <defs></defs>
    <g id="Page-1" stroke="none" stroke-width="1" fill="none" fill-rule="evenodd">
        <g id="surveyors">
            <circle id="Oval-8" fill="#FCF7DE" cx="200" cy="200" r="200"></circle>
            <g transform="translate(120.000000, 92.000000)">
                <path d="M0.0345508098,107.493435 C0.0345508098,80.0253342 -0.0604160629,52.5572329 0.0645403485,25.0941296 C0.149510708,7.17689107 7.15706626,0.144937215 25.0658191,0.0899610301 C61.6930425,-0.02998701 98.3202658,-0.02998701 134.947489,0.0899610301 C152.846245,0.144937215 159.898785,7.18688674 159.928775,25.1041252 C160.023742,80.0403277 160.023742,134.97653 159.928775,189.912732 C159.898785,207.824973 152.846245,214.856927 134.932494,214.911903 C98.3102693,215.026853 61.6780477,215.031851 25.0508244,214.911903 C7.152068,214.856927 0.149510708,207.819975 0.0645403485,189.897739 C-0.0604160629,162.429638 0.0345508098,134.961537 0.0345508098,107.493435" id="Fill-4" fill="#FCD669"></path>
                <path d="M79.4808046,59.9404858 C66.2213533,59.9404858 52.9569098,59.7655127 39.6974585,59.9954773 C26.9172645,60.2154434 24.975274,52.3866493 25.0002354,41.9832518 C25.0251967,31.8198173 27.6411426,24.9508754 39.4877834,25.0208646 C66.4260361,25.18084 93.3692811,25.2108354 120.302542,25.0008677 C133.082736,24.9058823 135.024726,32.6196941 134.999765,43.0230916 C134.974803,53.1865261 132.353865,60.140455 120.512217,59.9804796 C106.838407,59.7905089 93.159606,59.9354866 79.4808046,59.9404858" id="Fill-6" fill="#FFFFFF"></path>
                <path d="M56,95.8076352 C54.6292052,104.171911 49.9837337,109.954926 41.1649536,109.999601 C31.8283176,110.054205 25.8018973,104.494568 26.004978,95.2417436 C26.2029817,86.0335948 32.3867896,80.5831649 41.7234256,81.0249575 C50.4457424,81.4369663 55.0252126,87.3093329 56,95.8076352" id="Fill-8" fill="#FFFFFF"></path>
                <path d="M96,95.0572411 C95.0773551,103.650219 90.519895,109.512671 81.810533,109.968585 C72.4826948,110.464143 66.3689051,105.067515 66.0140417,95.8600452 C65.6845257,87.2373342 71.1798391,81.5929273 79.8334369,81.0428578 C89.3032205,80.4382769 94.3372114,86.2858626 96,95.0572411" id="Fill-10" fill="#FFFFFF"></path>
                <path d="M136,95.3305046 C134.87941,103.897088 130.275356,109.705698 121.523597,109.98844 C112.188726,110.286063 106.159849,104.819719 106.002662,95.5834842 C105.860687,86.9623367 111.407862,81.3918254 120.103845,81.0197966 C129.580691,80.6130451 134.524472,86.5109418 136,95.3305046" id="Fill-12" fill="#FFFFFF"></path>
                <path d="M56,135.126818 C54.6132314,144.10131 49.9923565,149.894027 41.2111758,149.998266 C31.9036305,150.112433 25.8656198,144.582795 26.0022722,135.335296 C26.1389245,126.122544 32.2680368,120.677291 41.5806434,121.014827 C50.3820689,121.337472 54.6689046,127.418087 56,135.126818" id="Fill-14" fill="#FFFFFF"></path>
                <path d="M96,134.554835 C95.0283161,143.653513 90.4735476,149.512924 81.7790007,149.968601 C72.4720904,150.463902 66.3687006,145.070074 66.0144409,135.867382 C65.6804245,127.249145 71.1663901,121.647291 79.8052676,121.047977 C89.3550989,120.39418 94.0971189,126.501241 96,134.554835" id="Fill-16" fill="#FFFFFF"></path>
                <path d="M120.275391,151 C111.566745,149.47309 105.559414,144.689447 106.025329,135.117088 C106.441679,126.412177 111.963268,120.816887 120.572783,121.00458 C129.712648,121.207492 135.313542,127.147732 134.98641,136.532397 C134.679104,145.293109 128.870036,149.894131 120.275391,151" id="Fill-18" fill="#FFFFFF"></path>
                <path d="M56,175.067512 C55.1267533,183.587289 50.5828245,189.457351 41.8706659,189.963477 C32.5238805,190.499374 26.2943825,185.105665 26.0100696,175.911054 C25.7206797,166.681709 31.6912499,161.044862 41.0278814,161.000204 C49.8568113,160.960507 54.5327425,166.731329 56,175.067512" id="Fill-20" fill="#FFFFFF"></path>
                <path d="M81.250245,191 C72.3531873,189.870054 66.4251198,185.476948 66.023637,176.670466 C65.5924147,167.266076 71.0892598,161.17045 80.2341465,161.003238 C89.3889462,160.841094 95.0394453,166.779642 94.9997927,176.148563 C94.9700532,185.051318 88.9478108,189.388687 81.250245,191" id="Fill-22" fill="#FFFFFF"></path>
                <path d="M136,175.984446 C134.291677,184.700644 129.338553,190.582346 120.033755,189.954107 C110.99683,189.345655 105.356333,183.538154 106.058868,174.411375 C106.700753,166.081024 112.331141,160.802827 121.004163,161.005644 C130.28369,161.228249 134.953779,167.129738 136,175.984446" id="Fill-24" fill="#E6A03E"></path>
            </g>
        </g>
    </g>
</svg>