<?xml version="1.0" encoding="UTF-8"?>
<svg width="525px" height="420px" viewBox="0 0 525 420" version="1.1" xmlns="http://www.w3.org/2000/svg" xmlns:xlink="http://www.w3.org/1999/xlink">
    <!-- Generator: Sketch 49.1 (51147) - http://www.bohemiancoding.com/sketch -->
    <title>Work</title>
    <desc>Created with Sketch.</desc>
    <defs></defs>
    <g id="Page-1" stroke="none" stroke-width="1" fill="none" fill-rule="evenodd">
        <g id="Work">
            <path d="M446.254201,64.0055062 C452.997874,64.011728 459.744662,63.9743969 466.488335,64.0366154 C480.611113,64.1672744 489.27354,72.44234 489.625519,86.625056 C489.918316,98.2785884 489.697161,109.944564 489.697161,121.604319 C489.700276,195.964806 489.669127,270.328403 489.753228,344.68889 C489.759458,351.710253 489.429283,358.622732 486.940509,366.291167 C497.020198,366.291167 506.561016,366.204061 516.098719,366.319165 C524.751802,366.424937 526.256279,368.387932 524.153748,376.765658 C521.773995,386.244653 515.581652,391.993646 506.071983,393.841536 C502.038238,394.62549 497.820717,394.69393 493.687297,394.700152 C436.610593,394.753038 379.540118,394.762371 322.466528,394.678376 C318.199169,394.672154 314.576586,395.652096 310.735963,397.661755 C296.747124,404.99732 282.474833,411.788474 268.37386,418.912497 C266.128045,420.047985 263.928954,420.004432 261.599038,419.99821 C207.646538,419.858218 153.697154,419.736892 99.7477689,419.624899 C80.5477685,419.584457 77.0124017,416.952613 73.0783329,398.355491 C72.1563341,393.997083 69.3560745,394.784147 66.6959836,394.768592 C53.2055226,394.69393 39.7088318,394.942804 26.2277154,394.662821 C12.0426404,394.364172 3.24315937,387.843669 0.6983183,376.417234 C-1.09272652,368.356823 0.249778381,366.465379 8.40136844,366.325387 C19.0323875,366.144954 29.6696363,366.188507 40.3006553,366.092068 C40.7429655,366.088957 41.1852757,365.625429 41.9141531,365.208565 C39.2291433,359.42224 39.7773587,353.187943 39.7773587,347.009642 C39.7742439,260.731194 39.771129,174.449635 39.7773587,88.1711867 C39.7804736,71.4343997 47.1346594,64.0895012 63.9206429,64.0303936 C70.9228494,64.0055062 77.9281707,64.0335045 84.9303773,64.0366154 C88.2819672,71.8948169 86.4753481,74.8097555 78.1960487,75.509714 C71.3869636,76.0852355 64.2819667,73.8267025 57.8092865,77.5815914 C53.3488062,80.3254289 51.8505582,84.5127366 51.810065,89.4902197 C51.788261,92.0816219 51.7290787,94.673024 51.7290787,97.2644262 C51.7259638,179.172022 51.7259638,261.076507 51.7290787,342.984102 C51.7290787,345.575505 51.6605517,348.170018 51.8412136,350.758309 C52.4641858,359.624451 55.5011748,362.570499 64.475088,363.043359 C67.066652,363.174018 69.6644457,363.121133 72.2591245,363.121133 C200.725318,363.124243 329.188397,363.127354 457.65459,363.118022 C475.888984,363.118022 477.87938,361.204802 477.88561,343.186313 C477.916758,261.278717 477.916758,179.371121 477.870035,97.4635255 C477.866921,90.2492859 478.527271,82.7115099 471.534409,77.6998066 C465.678471,73.8018151 459.084311,76.0572372 452.845246,75.5066031 C444.696771,74.7817571 442.896381,71.8046 446.254201,64.0055062" id="Fill-4" fill="#7D7D7D"></path>
            <path d="M446.468726,63.8644365 C445.02752,71.3960391 448.137653,73.7081819 455.64315,73.2750447 C461.351819,72.9416224 467.475381,71.3804586 473,74.7271451 C469.041365,78.3075388 464.159361,76.9302246 459.639218,77.0548684 C449.351136,77.3384331 449.348016,77.2169054 448.749074,87.3161706 C449.01423,90.5195167 448.901929,93.7166306 448.767791,96.9137446 C449.185803,110.14157 449.042306,123.369395 448.873853,136.590988 C448.755313,146.095079 446.25972,148.974351 436.763988,148.675206 C427.910871,148.394757 421.481599,151.566942 415.660628,157.958054 C408.504515,165.813731 400.793132,173.177064 393.112944,180.534165 C390.311641,183.214007 387.291973,186.333219 382.918446,184.398124 C378.638504,182.503538 378.728969,178.209558 378.554278,174.320671 C378.339033,169.658992 378.485649,164.984849 378.460693,160.320054 C378.404542,149.067834 378.310958,148.924493 367.286675,148.915145 C331.200398,148.890216 295.111002,148.905797 259.024725,148.905797 C256.170391,148.905797 253.312936,148.965003 250.458602,148.846591 C240.859927,148.450847 238.311302,146.163633 238.183403,136.759257 C238.002473,123.537664 237.843379,110.312955 238.283227,97.091362 C238.155328,93.8069974 238.036787,90.5226328 238.295705,87.2382683 C238.08046,82.5765895 238.067982,77.9180268 238.301944,73.2563481 C238.167806,69.8971972 238.117894,66.5567429 240.582292,63.8270433 C240.579173,45.4296159 240.791298,27.0290724 240.460632,8.63787725 C240.338972,2.03798713 243.062288,0.0125251076 249.204566,0.0218733938 C311.981212,0.115356257 374.757857,0.130936734 437.531383,6.07258513e-05 C444.412981,-0.0155197513 446.559191,2.96658357 446.481203,9.45117815 C446.265959,27.5837374 446.44377,45.725645 446.468726,63.8644365" id="Fill-8" fill="#B1B1B1"></path>
            <path d="M241,64 C241,67.3264622 240.996857,70.6496759 240.996857,73.9761382 C237.341714,76.6626462 233.677143,76.6723917 230.006286,74.0183686 C230.003143,70.6951549 230,67.3719412 230,64.0487275 C233.664571,64.032485 237.332286,64.0162425 241,64" id="Fill-10" fill="#7E7E7E"></path>
            <path d="M446.769972,87.0043792 C446.757496,72.0342229 445.369582,74.4415311 459.382835,74.2391055 C464.017533,74.1705922 468.655349,74.3138472 473.293165,74.3574466 C480.47601,78.09765 481.003105,84.727869 480.999986,91.7037688 C480.965678,150.874347 480.981273,210.044926 480.981273,269.215504 L480.981273,343.957287 C480.981273,363.779431 478.822989,366.018571 459.286149,365.999885 C361.305656,365.903344 263.325162,365.741403 165.344669,365.685347 C132.861243,365.666661 100.374697,365.978085 67.8881522,365.971857 C51.8382519,365.968743 49.0499482,362.947929 49.0468292,346.700934 C49.0468292,261.320903 49.0717805,175.937759 49.0000456,90.5577281 C48.9938078,83.718855 49.6175894,77.5090585 56.8035533,74.2609051 C63.4686596,74.2484482 70.1711928,74.7062416 76.7770399,74.0927361 C83.8413664,73.4356313 86.1088125,76.2633621 85.1045241,82.8063824 C84.9111518,84.0645357 85.0047191,85.3631742 84.9704111,86.640013 C82.1010157,89.5113432 78.3520884,89.4864293 74.7497497,89.4584011 C69.4101793,89.4116875 67.2706084,92.0183072 67.386008,97.1163196 C67.4452673,99.7042539 67.3361055,102.301531 67.3361055,104.892579 C67.3361055,147.679136 68.4090098,190.503064 66.9992634,233.242907 C65.8515053,267.997836 68.4090098,302.646881 67.4078404,337.345754 C67.049166,349.793375 67.9567682,350.438023 80.6320101,350.441137 C203.991058,350.481622 327.353224,350.481622 450.712271,350.441137 C462.42689,350.434909 462.82611,349.977115 462.832348,338.049572 C462.857299,259.735755 462.844823,181.421937 462.841704,103.108119 C462.841704,101.034035 462.732543,98.9599503 462.707591,96.88898 C462.648332,92.1366483 460.324746,89.7947391 455.565292,89.5549426 C452.474454,89.3961163 449.293168,89.2559754 446.769972,87.0043792" id="Fill-12" fill="#E5E5E5"></path>
            <path d="M266,409.593409 C264.060071,411.452989 261.63827,410.864435 259.359475,410.864435 C221.338118,410.876958 183.313652,410.714166 145.295404,410.999051 C138.797887,411.049141 136.593705,409.126949 137.060034,402.637204 C137.560561,395.6403 137.237239,388.580785 137.1533,381.549445 C137.112885,378.259178 137.759528,376.036448 141.766848,376.080277 C181.050402,376.515431 220.343283,375.266319 259.623728,376.756487 C263.031039,379.257841 265.222785,381.981468 261.265206,385.841505 C257.54701,387.36611 253.626737,386.971653 249.768642,386.977915 C222.102898,387.024874 194.434044,386.993568 166.7683,387.009221 C163.407622,387.009221 160.00342,386.833907 156.748444,387.804394 C154.733903,388.405471 152.821954,389.526228 152.865478,392.062018 C152.91522,394.735555 154.398146,396.375993 156.997153,396.955155 C160.056271,397.634496 163.16824,397.543708 166.267773,397.546839 C193.678591,397.559361 221.0863,397.537447 248.497119,397.565623 C252.36454,397.568753 256.259942,397.312044 260.062078,398.22618 C262.309783,398.858563 263.718097,400.264205 263.230006,402.737383 C262.648649,405.71772 264.321216,407.621128 266,409.593409" id="Fill-14" fill="#F0F0F0"></path>
            <path d="M515,377 C511.893407,384.674463 506.24364,386.914875 499.731623,386.924601 C436.261243,387.015385 372.790863,387.047808 309.323595,386.885694 C301.544661,386.866241 295.739253,380.916667 289,377 L515,377 Z" id="Fill-16" fill="#E2E2E2"></path>
            <path d="M111,393.350794 L111,394.90535 C111,411.229751 106.791435,414.426443 90.5235302,410.46342 C82.2033999,408.436555 79.700164,401.27684 81.6026233,385.30589 C82.4599816,378.143047 86.3306101,375.102748 93.5899942,375.033935 C111.003129,374.858774 111,374.677357 111,393.350794" id="Fill-18" fill="#CBD3FF"></path>
            <path d="M266.397492,409.997641 C255.874939,410.134486 262.426361,404.287473 263.002206,400.536676 C257.662263,394.966463 257.66541,391.881231 263.014793,385.048312 C261.992117,382.488689 260.966294,379.932176 259.943618,377.372553 C267.269127,375.64333 272.615363,380.348931 278.603526,382.973867 C281.643235,384.304995 284.701824,385.601913 287.750972,386.91438 C293.336358,391.666633 293.402439,395.056657 288.024735,400.434042 C280.815654,403.621909 273.606573,406.812885 266.397492,409.997641" id="Fill-20" fill="#FDFDFD"></path>
            <path d="M41.9287439,375.376236 C50.9926329,375.379436 60.0534029,375.376236 69.1141728,375.382636 C71.8183682,375.385835 74.5475158,375.341038 73.9049964,379.516773 C73.4277855,382.642975 73.6461173,386.044359 68.9738167,385.999562 C53.6999473,385.865171 38.4229589,385.925967 23.1490896,385.804375 C21.6457191,385.794775 20.0955633,385.196413 18.6514544,384.642848 C14.9148615,383.209339 10.4141072,380.940683 11.0628646,376.857742 C11.5712658,373.683543 16.4962075,375.561824 19.4062586,375.459431 C26.9075157,375.200247 34.4212488,375.373036 41.9287439,375.376236" id="Fill-22" fill="#E1E1E1"></path>
            <path d="M287.265428,400.357713 C289.709194,395.790612 290.124116,391.267125 287,386.812176 C288.891555,385.553575 290.032589,382.634493 293.263486,384.743584 C298.013729,387.855818 303.020247,390.566171 309,394.0834 C302.99584,397.164481 297.821523,399.591337 292.876023,402.435651 C289.870892,404.161554 288.967827,401.482354 287.265428,400.357713" id="Fill-24" fill="#8F8F8F"></path>
            <path d="M126.990464,393.893501 C126.990464,398.544193 127.02136,403.194884 126.971927,407.845576 C126.956479,409.469429 126.57028,411.00929 124.497163,410.999958 C122.436405,410.993736 122.031668,409.456986 122.025489,407.833132 C121.991504,398.273551 121.991504,388.717079 122.025489,379.157498 C122.031668,377.530533 122.448763,375.996894 124.509521,376.000005 C126.576459,376.003116 126.959568,377.546087 126.975016,379.169941 C127.018271,384.078831 126.990464,388.984611 126.990464,393.893501" id="Fill-26" fill="#FDFDFD"></path>
            <path d="M240.520245,97.0828019 C240.517127,110.280611 240.498423,123.47842 240.51401,136.676228 C240.526479,146.845134 240.548301,146.863793 251.094352,146.863793 C291.567121,146.873122 332.036773,147.009951 372.503308,146.723853 C378.965608,146.680317 381.194525,148.421781 380.73939,154.936722 C380.200086,162.664468 380.614695,170.457519 380.636517,178.219473 C380.645869,180.632644 380.932667,182.980511 383.679067,183.88856 C386.073204,184.678438 387.588244,183.092462 389.062759,181.618437 C398.396154,172.264288 407.978938,163.137151 416.928898,153.431599 C421.545718,148.421781 426.430631,146.481292 433.198433,146.726963 C446.17603,147.205866 446.179148,146.863793 446.194734,133.597569 C446.207204,121.435309 446.241495,109.27305 446.266434,97.1107898 C453.994385,93.9450571 457.021348,95.4999356 458.031375,103.202804 C458.302586,105.258353 458.243356,107.338781 458.277647,109.409879 C458.527036,126.221225 457.953441,143.023243 459.586941,159.840809 C460.914939,173.498861 458.629909,187.237768 458.470924,200.920699 C457.972145,243.120102 458.27453,285.331944 458.293234,327.537566 C458.296351,331.169763 458.6642,334.777081 458.935411,338.390618 C459.318847,343.478181 456.868597,346.133913 451.862107,346.68434 C448.754092,347.026414 445.642961,346.992206 442.528711,346.992206 C324.427281,346.998426 206.319617,346.998426 88.2150695,346.995316 C86.3976448,346.995316 84.5802201,347.023304 82.7627955,346.94245 C73.3701702,346.544401 71.7553744,344.718974 71.09761,335.29641 C68.8125804,302.457376 68.3823838,269.528159 69.8662503,236.729551 C71.658736,197.111247 70.3619115,157.527149 71.0664364,117.939942 C71.1506053,113.020307 70.9386243,108.103781 70.7546997,103.187255 C70.6674134,100.795852 70.0127665,97.785607 73.7380195,97.1045702 C84.8701352,97.3968874 84.8732526,97.3968874 84.8701352,108.383659 C84.8639005,118.720491 84.9792431,129.057324 84.782849,139.387937 C84.664389,145.411536 86.7062641,148.396903 93.305729,148.372025 C135.782965,148.213427 178.263318,148.216537 220.740554,148.368915 C227.081278,148.393793 229.609462,145.977512 229.531528,139.674034 C229.353838,125.465554 229.556467,111.257074 229.603227,97.0454849 C233.250546,94.3057889 236.89163,94.3182279 240.520245,97.0828019" id="Fill-28" fill="#FEFEFE"></path>
            <path d="M73.7572026,96.7285669 C71.6830991,100.976552 73.2495767,105.411674 73.346119,109.693968 C74.7911401,175.144758 71.7360417,240.576834 72.6890082,306.018267 C72.8416074,316.401192 73.5267467,326.796593 73.1810628,337.160804 C72.9724067,343.429858 75.0838815,344.842734 81.0757361,344.820902 C143.311299,344.608814 205.549975,344.689907 267.788652,344.689907 C327.953226,344.686788 388.114685,344.59322 448.279258,344.820902 C454.68531,344.842734 456.236217,343.473523 456.111646,336.692965 C455.214736,287.101944 455.189822,237.501567 456.089846,187.898071 C456.609929,159.347367 455.666305,130.77483 455.709905,102.21165 C455.722362,93.553494 449.624622,97.7141495 445.915527,96.7348048 C445.915527,93.6751324 445.918642,90.61546 445.918642,87.5557876 C468.247954,87.5277172 464.626059,86.2177658 464.669659,106.147742 C464.847172,185.658678 464.741287,265.166495 464.999771,344.677431 C465.024685,351.785477 463.02221,354.015514 455.750391,353.999919 C328.881278,353.719215 202.012165,353.70362 75.1399383,353.613171 C64.36768,353.603815 64.3147374,353.538317 64.3053946,342.78112 C64.2368806,260.441313 64.2773661,178.098386 64.0001961,95.7554601 C63.975282,88.6910789 66.320327,86.4173774 72.9879781,87.1222561 C76.8372152,87.5308362 80.7643091,87.1939915 84.657146,87.1908726 C85.8654826,93.3757149 83.5858373,96.2139431 77.0925853,95.4061397 C76.0524193,95.2751446 74.8721111,96.2607271 73.7572026,96.7285669" id="Fill-30" fill="#7D7D7D"></path>
            <path d="M230.006286,73.0406955 L240.996857,73 C240.996857,77.6424163 241,82.2848326 241,86.9272489 C237.338571,89.6820205 233.674,89.6914118 230,86.9522923 C230.003143,82.3130064 230.006286,77.6768509 230.006286,73.0406955" id="Fill-36" fill="#E3E3E3"></path>
            <path d="M230.003142,87.024218 C233.669809,87.0181635 237.333333,87.0090817 241,87 C241,90 241,93 241,96 C237.333333,95.987891 233.666667,95.9788093 230,95.9667003 C230,92.9848638 230.003142,90.0030272 230.003142,87.024218" id="Fill-38" fill="#808080"></path>
            <path d="M343.431555,9.13274477 C371.9347,9.13274477 400.440955,9.27003919 428.9441,9.02041297 C434.769129,8.97048773 437.054978,10.1842952 436.998998,16.6932988 C436.681778,54.3899779 436.722208,92.0897774 436.974118,129.786456 C437.014548,135.72132 435.164099,137.980437 429.45103,137.05994 C422.938691,136.01151 418.186612,138.551457 413.823282,143.43789 C407.435344,150.595922 400.416075,157.186054 393.611396,163.963406 C392.603756,164.965031 391.533916,166.827867 389.854517,165.589097 C389.080127,165.018077 388.899747,163.314378 388.865537,162.109931 C388.750467,157.953655 388.818887,153.791138 388.815777,149.631741 C388.812667,137.069301 388.812667,137.066181 376.658789,137.063061 C337.786906,137.063061 298.918132,137.066181 260.046249,137.063061 C250.144011,137.063061 250.137791,137.0537 250.137791,126.815904 C250.134681,90.1582945 250.280851,53.4975642 250.000951,16.8399542 C249.951191,10.5868175 251.84518,8.93928445 257.919009,9.00169101 C286.419044,9.29500181 314.9253,9.13274477 343.431555,9.13274477" id="Fill-40" fill="#CBD3FF"></path>
            <path d="M263,385.026325 C261.351887,390.299816 259.528642,395.576486 262.990618,400.856334 C228.355225,400.86587 193.719833,400.754615 159.087568,400.999376 C152.588936,401.043878 148.904919,398.713879 149.001866,392.140293 C149.098814,385.538099 154.290214,385.045398 159.09695,385.035862 C193.732342,384.969109 228.364607,385.013611 263,385.026325" id="Fill-42" fill="#DFDFDF"></path>
            <path d="M247.822109,225.622791 C213.753267,225.622791 179.687547,225.682541 145.62495,225.512253 C142.936783,225.497315 138.262933,227.902269 138.010039,222.16623 C137.757145,216.442142 142.340453,218.321292 145.187849,218.318305 C213.840687,218.225692 282.493525,218.225692 351.14324,218.32428 C353.722131,218.327267 357.858973,216.451105 357.996347,221.691215 C358.14621,227.427253 353.650322,225.545115 350.799804,225.554078 C316.474946,225.661629 282.150089,225.622791 247.822109,225.622791" id="Fill-44" fill="#6E82F2"></path>
            <path d="M247.809858,296.603854 C213.747289,296.603854 179.684721,296.663485 145.622152,296.487573 C142.958965,296.472666 138.266386,298.935429 138.01037,293.192957 C137.754354,287.528004 142.297071,289.313955 145.175686,289.310974 C213.822221,289.22749 282.468756,289.224508 351.115291,289.3229 C353.697302,289.325881 357.859117,287.459429 357.996492,292.668203 C358.143232,298.3421 353.653592,296.529315 350.774977,296.53826 C316.453271,296.639633 282.131564,296.603854 247.809858,296.603854" id="Fill-46" fill="#6E82F2"></path>
            <path d="M242.063477,239.063396 C273.416945,239.060173 304.7673,239.060173 336.117656,239.06662 C338.186935,239.06662 340.262437,239.092408 342.331716,239.185892 C344.242299,239.269705 344.967324,240.517231 344.989106,242.361119 C345.007776,244.253361 345.200702,246.271323 342.767354,246.777425 C341.762276,246.983734 340.70741,246.977287 339.674326,246.977287 C274.120188,246.986957 208.56605,246.98051 143.011912,246.999852 C140.230054,247.003075 137.874499,246.990181 138.00519,242.902681 C138.160775,238.025403 141.50585,239.102079 144.122788,239.098856 C176.770722,239.044055 209.415544,239.063396 242.063477,239.063396" id="Fill-48" fill="#6E82F2"></path>
            <path d="M166.889836,265.088988 C184.199335,265.088988 201.508833,265.047968 218.818331,265.133164 C221.374638,265.145786 224.839026,263.91202 224.994519,268.714554 C225.162452,273.990398 221.436836,272.867072 218.566432,272.870228 C183.428089,272.914404 148.292855,272.917559 113.154511,272.854451 C110.619973,272.851295 107.168025,274.110304 107.006312,269.279372 C106.82594,263.965662 110.548446,265.133164 113.40952,265.123698 C131.235256,265.057434 149.064101,265.088988 166.889836,265.088988" id="Fill-50" fill="#CBD3FF"></path>
            <path d="M243.307294,202.988996 C228.777712,202.988996 214.251246,202.988996 199.72478,202.985773 C196.845661,202.985773 193.801397,203.379062 194.010164,198.720844 C194.190888,194.59131 196.979646,195.023284 199.537824,195.023284 C228.590756,195.003941 257.646804,195.007165 286.699736,195.010389 C289.304654,195.010389 292.015513,194.607429 291.999933,198.820778 C291.984354,203.424193 288.986829,202.988996 286.110825,202.988996 C271.842982,202.988996 257.575138,202.988996 243.307294,202.988996" id="Fill-52" fill="#CBD3FF"></path>
            <path d="M142.706461,202.989734 C132.840465,202.989734 122.977586,202.967182 113.111591,202.999398 C110.335027,203.009063 107.944876,202.934967 108.000968,198.92087 C108.060176,194.823013 110.649766,195.016308 113.314146,195.016308 C133.04302,195.01953 152.771895,195.003422 172.503886,195.032416 C175.009338,195.035638 177.857575,194.394542 177.994689,198.666365 C178.141152,203.26679 175.233706,202.999398 172.301331,202.996177 C162.438451,202.986512 152.572456,202.992955 142.706461,202.989734" id="Fill-54" fill="#CBD3FF"></path>
            <path d="M265.985893,272.963152 C262.059023,272.959927 258.132153,272.879298 254.205283,272.985728 C251.246682,273.066357 249.895535,271.898849 250.006285,268.763992 C250.104377,266.041956 251.34161,264.997004 253.892019,265.006679 C262.00523,265.048606 270.12477,265.058282 278.241145,265.000229 C280.889646,264.980878 281.899051,266.187088 281.99398,268.844621 C282.104729,272.027855 280.687132,273.079258 277.769667,272.995404 C273.842797,272.882523 269.912763,272.966377 265.985893,272.963152" id="Fill-56" fill="#CBD3FF"></path>
            <path d="M305.186118,62.0014377 C311.583825,62.1153262 317.993841,68.6069705 317.999996,74.9878043 C318.006151,81.6826011 311.057607,88.3404611 304.435257,87.9864833 C298.025241,87.6448178 291.778321,80.9253965 292.006042,74.6184362 C292.239916,68.2037436 298.837648,61.8906272 305.186118,62.0014377" id="Fill-60" fill="#6E82F2"></path>
            <path d="M331.003077,74.6685092 C331.145687,67.1957334 336.338557,61.9601681 343.571372,62.0002283 C351.049105,62.0402886 356.248175,67.7288428 355.990857,75.5898947 C355.76144,82.551132 349.71291,88.310562 342.966829,87.9869986 C335.68751,87.6387826 330.860467,82.2645472 331.003077,74.6685092" id="Fill-62" fill="#6E82F2"></path>
            <path d="M382.139828,62.0004158 C388.603883,62.0528186 395.02466,68.566181 394.999929,75.0518008 C394.975198,81.861085 388.152543,88.2542292 381.184595,87.9922151 C375.323356,87.7733563 369.091154,81.2630763 369.001504,75.255247 C368.890215,68.079143 374.97094,61.9418479 382.139828,62.0004158" id="Fill-64" fill="#6E82F2"></path>
            <g id="Group-67" transform="translate(87.000000, 44.000000)">
                <path d="M68.9494895,0.0980789402 C89.983896,0.0980789402 111.020598,0.199519403 132.055004,0.015082198 C136.353689,-0.021805243 138.040572,0.875020666 137.999261,5.68422079 C137.765163,33.5365442 137.794999,61.3911731 137.9809,89.2434965 C138.010736,93.6284911 136.645164,95.2976478 132.429102,94.6175356 C127.623205,93.8428993 124.116323,95.7195479 120.896326,99.3299062 C116.182232,104.618643 111.002237,109.487785 105.980602,114.495255 C105.236996,115.23531 104.447489,116.611672 103.208146,115.696403 C102.636671,115.274503 102.503556,114.015719 102.478311,113.125809 C102.393393,110.05493 102.443884,106.979439 102.441589,103.906254 C102.439294,94.624452 102.439294,94.6221465 93.4701223,94.619841 C64.7839196,94.619841 36.1000121,94.6221465 7.41380943,94.619841 C0.106275297,94.619841 0.101685137,94.6129246 0.101685137,87.0486938 C0.0993900577,59.9640902 0.207258809,32.8771812 0.000701625544,5.79257764 C-0.0360196515,1.17242566 1.36168396,-0.0448598937 5.84397484,0.00124940759 C26.8760863,0.217963123 47.9127879,0.0980789402 68.9494895,0.0980789402" id="Fill-40" stroke="#B1B1B1" stroke-width="10" fill="#D5F6FD" transform="translate(69.000000, 58.000000) scale(-1, 1) translate(-69.000000, -58.000000) "></path>
                <g id="Group-51" transform="translate(31.000000, 39.000000)" fill="#78E5FC">
                    <path d="M9.7295629,0.00105059944 C14.4502011,0.0842768085 19.1799217,4.82817073 19.184463,9.49108779 C19.1890043,14.3834393 14.0619235,19.2487985 9.17552937,18.9901224 C4.44580869,18.7404438 -0.163568645,13.8300974 0.00445791771,9.22116495 C0.177025739,4.53350496 5.0452548,-0.0799262526 9.7295629,0.00105059944" id="Fill-60" transform="translate(9.592233, 9.500000) scale(-1, 1) translate(-9.592233, -9.500000) "></path>
                    <path d="M28.7789693,9.2577567 C28.8841962,3.79688212 32.7158283,-0.0291079472 38.0526629,0.000166844396 C43.5702132,0.029441636 47.4064204,4.18646204 47.2165545,9.93107691 C47.0472764,15.0181349 42.5842828,19.2269492 37.6065923,18.9904989 C32.2354446,18.7360334 28.6737423,14.8087076 28.7789693,9.2577567" id="Fill-62" transform="translate(38.000000, 9.500000) scale(-1, 1) translate(-38.000000, -9.500000) "></path>
                    <path d="M66.510941,0.000303828994 C71.2805354,0.0385981984 76.0181955,4.79836305 75.9999475,9.53785441 C75.9816994,14.5138698 70.9475077,19.1857829 65.8061086,18.994311 C61.4813115,18.8343757 56.882793,14.0768635 56.8166436,9.68652667 C56.7345272,4.44245068 61.2212762,-0.0424957603 66.510941,0.000303828994" id="Fill-64" transform="translate(66.407767, 9.500000) scale(-1, 1) translate(-66.407767, -9.500000) "></path>
                </g>
            </g>
        </g>
    </g>
</svg>